<svg xmlns="http://www.w3.org/2000/svg" xmlns:xlink="http://www.w3.org/1999/xlink" width="210.00mm" height="297.00mm" viewBox="0 0 210.00 297.00">
<rect x="0" y="0" width="210.00" height="297.00" fill="#ffffff" stroke="#cccccc" stroke-width="0.2"/>
<polygon points="41.843,41.951 43.687,35.805 52.291,35.805 54.135,41.951" fill="rgb(216,216,216)"/>
<polygon points="62.78,20.342 62.151,13.955 70.112,10.687 74.153,15.673" fill="rgb(216,216,216)"/>
<polygon points="59.342,32.144 54.24,34.361 59.342,41.595 66.428,42.191" fill="rgb(216,216,216)"/>
<polygon points="49.408,89.391 42.55,92.445 43.17,105.092 50.294,107.46" fill="rgb(216,216,216)"/>
<polygon points="78.702,42.918 86.515,43.398 88.817,40.838 86.922,33.777" fill="rgb(216,216,216)"/>
<polygon points="71.215,90.007 73.091,97.16 84.192,97.959 87.073,91.148" fill="rgb(216,216,216)"/>
<polygon points="90.957,43.878 97.351,51.542 94.632,84.631 87.073,91.148" fill="rgb(216,216,216)"/>
<polygon points="86.922,33.777 92.68,30.946 91.263,22.459 84.897,21.652" fill="rgb(216,216,216)"/>
<polygon points="8.21,90.936 10.29,96.607 18.374,96.121 19.759,90.242" fill="rgb(216,216,216)"/>
<polygon points="84.897,21.652 86.274,15.383 78.754,11.198 74.153,15.673" fill="rgb(216,216,216)"/>
<polygon points="19.759,90.242 21.755,95.944 29.848,95.578 31.32,89.719" fill="rgb(216,216,216)"/>
<polygon points="62.78,20.342 62.151,13.955 70.112,10.687 74.153,15.673" fill="#99d9fa"/>
<line x1="49.408" y1="89.391" x2="41.843" y2="41.951" stroke="#8c8c8c" stroke-width="0.3" stroke-dasharray="1.2,0.8"/>
<line x1="41.843" y1="41.951" x2="31.32" y2="89.719" stroke="#8c8c8c" stroke-width="0.3" stroke-dasharray="1.2,0.8"/>
<line x1="54.136" y1="41.951" x2="49.408" y2="89.391" stroke="#8c8c8c" stroke-width="0.3" stroke-dasharray="1.2,0.8"/>
<line x1="66.428" y1="42.191" x2="49.408" y2="89.391" stroke="#8c8c8c" stroke-width="0.3" stroke-dasharray="1.2,0.8"/>
<line x1="71.215" y1="90.007" x2="49.408" y2="89.391" stroke="#8c8c8c" stroke-width="0.3" stroke-dasharray="1.2,0.8"/>
<line x1="78.702" y1="42.918" x2="66.428" y2="42.191" stroke="#8c8c8c" stroke-width="0.3" stroke-dasharray="1.2,0.8"/>
<line x1="66.428" y1="42.191" x2="71.215" y2="90.007" stroke="#8c8c8c" stroke-width="0.3" stroke-dasharray="1.2,0.8"/>
<line x1="78.702" y1="42.918" x2="71.215" y2="90.007" stroke="#8c8c8c" stroke-width="0.3" stroke-dasharray="1.2,0.8"/>
<line x1="17.271" y1="42.878" x2="19.76" y2="90.242" stroke="#8c8c8c" stroke-width="0.3" stroke-dasharray="1.2,0.8"/>
<line x1="29.554" y1="42.322" x2="31.32" y2="89.719" stroke="#8c8c8c" stroke-width="0.3" stroke-dasharray="1.2,0.8"/>
<line x1="90.957" y1="43.878" x2="71.215" y2="90.007" stroke="#8c8c8c" stroke-width="0.3" stroke-dasharray="1.2,0.8"/>
<line x1="54.135" y1="41.951" x2="41.843" y2="41.951" stroke="#8c8c8c" stroke-width="0.3" stroke-dasharray="1.2,0.8"/>
<line x1="74.153" y1="15.673" x2="62.78" y2="20.342" stroke="#8c8c8c" stroke-width="0.3" stroke-dasharray="1.2,0.8"/>
<line x1="66.428" y1="42.191" x2="59.342" y2="32.144" stroke="#8c8c8c" stroke-width="0.3" stroke-dasharray="1.2,0.8"/>
<line x1="50.294" y1="107.46" x2="49.408" y2="89.391" stroke="#8c8c8c" stroke-width="0.3" stroke-dasharray="1.2,0.8"/>
<line x1="86.922" y1="33.777" x2="78.702" y2="42.918" stroke="#8c8c8c" stroke-width="0.3" stroke-dasharray="1.2,0.8"/>
<line x1="87.073" y1="91.148" x2="71.215" y2="90.007" stroke="#8c8c8c" stroke-width="0.3" stroke-dasharray="1.2,0.8"/>
<line x1="87.073" y1="91.148" x2="90.957" y2="43.878" stroke="#8c8c8c" stroke-width="0.3" stroke-dasharray="1.2,0.8"/>
<line x1="84.897" y1="21.652" x2="86.922" y2="33.777" stroke="#8c8c8c" stroke-width="0.3" stroke-dasharray="1.2,0.8"/>
<line x1="19.759" y1="90.242" x2="8.21" y2="90.936" stroke="#8c8c8c" stroke-width="0.3" stroke-dasharray="1.2,0.8"/>
<line x1="74.153" y1="15.673" x2="84.897" y2="21.652" stroke="#8c8c8c" stroke-width="0.3" stroke-dasharray="1.2,0.8"/>
<line x1="31.32" y1="89.719" x2="19.759" y2="90.242" stroke="#8c8c8c" stroke-width="0.3" stroke-dasharray="1.2,0.8"/>
<line x1="59.342" y1="32.144" x2="62.779" y2="20.342" stroke="#141414" stroke-width="0.4"/>
<line x1="29.554" y1="42.322" x2="41.843" y2="41.951" stroke="#141414" stroke-width="0.4"/>
<line x1="54.136" y1="41.951" x2="66.428" y2="42.191" stroke="#141414" stroke-width="0.4"/>
<line x1="49.408" y1="89.391" x2="31.32" y2="89.719" stroke="#141414" stroke-width="0.4"/>
<line x1="78.702" y1="42.918" x2="90.957" y2="43.878" stroke="#141414" stroke-width="0.4"/>
<line x1="71.215" y1="90.007" x2="71.087" y2="105.905" stroke="#141414" stroke-width="0.4"/>
<line x1="8.21" y1="90.936" x2="5.0" y2="43.616" stroke="#141414" stroke-width="0.4"/>
<line x1="5.0" y1="43.616" x2="17.271" y2="42.878" stroke="#141414" stroke-width="0.4"/>
<line x1="71.087" y1="105.905" x2="61.067" y2="111.689" stroke="#141414" stroke-width="0.4"/>
<line x1="17.271" y1="42.878" x2="29.554" y2="42.322" stroke="#141414" stroke-width="0.4"/>
<line x1="61.067" y1="111.689" x2="50.294" y2="107.46" stroke="#141414" stroke-width="0.4"/>
<line x1="41.843" y1="41.951" x2="43.687" y2="35.805" stroke="#141414" stroke-width="0.4"/>
<line x1="43.687" y1="35.805" x2="52.291" y2="35.805" stroke="#141414" stroke-width="0.4"/>
<line x1="52.291" y1="35.805" x2="54.135" y2="41.951" stroke="#141414" stroke-width="0.4"/>
<line x1="62.78" y1="20.342" x2="62.151" y2="13.955" stroke="#141414" stroke-width="0.4"/>
<line x1="62.151" y1="13.955" x2="70.112" y2="10.687" stroke="#141414" stroke-width="0.4"/>
<line x1="70.112" y1="10.687" x2="74.153" y2="15.673" stroke="#141414" stroke-width="0.4"/>
<line x1="59.342" y1="32.144" x2="54.24" y2="34.361" stroke="#141414" stroke-width="0.4"/>
<line x1="54.24" y1="34.361" x2="59.342" y2="41.595" stroke="#141414" stroke-width="0.4"/>
<line x1="59.342" y1="41.595" x2="66.428" y2="42.191" stroke="#141414" stroke-width="0.4"/>
<line x1="49.408" y1="89.391" x2="42.55" y2="92.445" stroke="#141414" stroke-width="0.4"/>
<line x1="42.55" y1="92.445" x2="43.17" y2="105.092" stroke="#141414" stroke-width="0.4"/>
<line x1="43.17" y1="105.092" x2="50.294" y2="107.46" stroke="#141414" stroke-width="0.4"/>
<line x1="78.702" y1="42.918" x2="86.515" y2="43.398" stroke="#141414" stroke-width="0.4"/>
<line x1="86.515" y1="43.398" x2="88.817" y2="40.838" stroke="#141414" stroke-width="0.4"/>
<line x1="88.817" y1="40.838" x2="86.922" y2="33.777" stroke="#141414" stroke-width="0.4"/>
<line x1="71.215" y1="90.007" x2="73.091" y2="97.16" stroke="#141414" stroke-width="0.4"/>
<line x1="73.091" y1="97.16" x2="84.192" y2="97.959" stroke="#141414" stroke-width="0.4"/>
<line x1="84.192" y1="97.959" x2="87.073" y2="91.148" stroke="#141414" stroke-width="0.4"/>
<line x1="90.957" y1="43.878" x2="97.351" y2="51.542" stroke="#141414" stroke-width="0.4"/>
<line x1="97.351" y1="51.542" x2="94.632" y2="84.631" stroke="#141414" stroke-width="0.4"/>
<line x1="94.632" y1="84.631" x2="87.073" y2="91.148" stroke="#141414" stroke-width="0.4"/>
<line x1="86.922" y1="33.777" x2="92.68" y2="30.946" stroke="#141414" stroke-width="0.4"/>
<line x1="92.68" y1="30.946" x2="91.263" y2="22.459" stroke="#141414" stroke-width="0.4"/>
<line x1="91.263" y1="22.459" x2="84.897" y2="21.652" stroke="#141414" stroke-width="0.4"/>
<line x1="8.21" y1="90.936" x2="10.29" y2="96.607" stroke="#141414" stroke-width="0.4"/>
<line x1="10.29" y1="96.607" x2="18.374" y2="96.121" stroke="#141414" stroke-width="0.4"/>
<line x1="18.374" y1="96.121" x2="19.759" y2="90.242" stroke="#141414" stroke-width="0.4"/>
<line x1="84.897" y1="21.652" x2="86.274" y2="15.383" stroke="#141414" stroke-width="0.4"/>
<line x1="86.274" y1="15.383" x2="78.754" y2="11.198" stroke="#141414" stroke-width="0.4"/>
<line x1="78.754" y1="11.198" x2="74.153" y2="15.673" stroke="#141414" stroke-width="0.4"/>
<line x1="19.759" y1="90.242" x2="21.755" y2="95.944" stroke="#141414" stroke-width="0.4"/>
<line x1="21.755" y1="95.944" x2="29.848" y2="95.578" stroke="#141414" stroke-width="0.4"/>
<line x1="29.848" y1="95.578" x2="31.32" y2="89.719" stroke="#141414" stroke-width="0.4"/>
<circle cx="47.989" cy="38.878" r="2.40" fill="#ffe082" stroke="#464646" stroke-width="0.2"/>
<text x="47.989" y="39.70" font-size="2.35" text-anchor="middle" fill="#141414">80</text>
<circle cx="67.299" cy="15.164" r="2.40" fill="#99d9fa" stroke="#464646" stroke-width="0.2"/>
<text x="67.299" y="15.99" font-size="2.35" text-anchor="middle" fill="#141414">81</text>
<circle cx="59.838" cy="37.573" r="2.40" fill="#ffe082" stroke="#464646" stroke-width="0.2"/>
<text x="59.838" y="38.39" font-size="2.35" text-anchor="middle" fill="#141414">82</text>
<circle cx="46.355" cy="98.597" r="2.40" fill="#ffe082" stroke="#464646" stroke-width="0.2"/>
<text x="46.355" y="99.42" font-size="2.35" text-anchor="middle" fill="#141414">83</text>
<circle cx="85.239" cy="40.233" r="2.40" fill="#ffe082" stroke="#464646" stroke-width="0.2"/>
<text x="85.239" y="41.05" font-size="2.35" text-anchor="middle" fill="#141414">84</text>
<circle cx="78.893" cy="94.069" r="2.40" fill="#ffe082" stroke="#464646" stroke-width="0.2"/>
<text x="78.893" y="94.89" font-size="2.35" text-anchor="middle" fill="#141414">85</text>
<circle cx="92.503" cy="67.8" r="2.40" fill="#ffe082" stroke="#464646" stroke-width="0.2"/>
<text x="92.503" y="68.62" font-size="2.35" text-anchor="middle" fill="#141414">86</text>
<circle cx="88.94" cy="27.209" r="2.40" fill="#ffe082" stroke="#464646" stroke-width="0.2"/>
<text x="88.94" y="28.03" font-size="2.35" text-anchor="middle" fill="#141414">87</text>
<circle cx="14.158" cy="93.477" r="2.40" fill="#ffe082" stroke="#464646" stroke-width="0.2"/>
<text x="14.158" y="94.30" font-size="2.35" text-anchor="middle" fill="#141414">88</text>
<circle cx="81.02" cy="15.977" r="2.40" fill="#ffe082" stroke="#464646" stroke-width="0.2"/>
<text x="81.02" y="16.80" font-size="2.35" text-anchor="middle" fill="#141414">89</text>
<circle cx="25.671" cy="92.871" r="2.40" fill="#ffe082" stroke="#464646" stroke-width="0.2"/>
<text x="25.671" y="93.69" font-size="2.35" text-anchor="middle" fill="#141414">90</text>
<circle cx="62.351" cy="73.863" r="4.60" fill="#eaf1fe" stroke="#2e78e6" stroke-width="0.3"/>
<text x="62.351" y="75.66" font-size="5.20" text-anchor="middle" fill="#14306e" font-weight="bold">8</text>
<polygon points="41.852,146.223 34.023,146.236 31.877,143.543 34.19,136.607" fill="rgb(216,216,216)"/>
<polygon points="54.146,146.223 61.978,146.239 64.125,143.547 61.814,136.607" fill="rgb(216,216,216)"/>
<polygon points="49.414,193.645 42.557,196.702 43.184,209.35 50.31,211.714" fill="rgb(216,216,216)"/>
<polygon points="61.814,136.607 67.4,133.442 65.488,125.049 59.083,124.616" fill="rgb(216,216,216)"/>
<polygon points="59.083,124.616 60.09,118.278 52.337,114.543 48.008,119.28" fill="rgb(216,216,216)"/>
<polygon points="71.231,194.25 73.108,201.403 84.208,202.2 87.088,195.389" fill="rgb(216,216,216)"/>
<polygon points="90.976,148.136 97.369,155.798 94.647,188.875 87.088,195.389" fill="rgb(216,216,216)"/>
<polygon points="48.008,119.28 43.678,114.541 35.923,118.277 36.93,124.616" fill="rgb(216,216,216)"/>
<polygon points="8.209,195.173 10.287,200.846 18.374,200.362 19.762,194.482" fill="rgb(216,216,216)"/>
<polygon points="36.93,124.616 30.523,125.045 28.606,133.438 34.19,136.607" fill="rgb(216,216,216)"/>
<polygon points="19.762,194.482 21.755,200.187 29.85,199.826 31.326,193.966" fill="rgb(216,216,216)"/>
<polygon points="59.083,124.616 60.09,118.278 52.337,114.543 48.008,119.28" fill="#99d9fa"/>
<line x1="41.852" y1="146.223" x2="54.146" y2="146.223" stroke="#8c8c8c" stroke-width="0.3" stroke-dasharray="1.2,0.8"/>
<line x1="49.414" y1="193.645" x2="41.852" y2="146.223" stroke="#8c8c8c" stroke-width="0.3" stroke-dasharray="1.2,0.8"/>
<line x1="41.852" y1="146.223" x2="31.326" y2="193.966" stroke="#8c8c8c" stroke-width="0.3" stroke-dasharray="1.2,0.8"/>
<line x1="54.146" y1="146.223" x2="49.414" y2="193.645" stroke="#8c8c8c" stroke-width="0.3" stroke-dasharray="1.2,0.8"/>
<line x1="66.443" y1="146.457" x2="49.414" y2="193.645" stroke="#8c8c8c" stroke-width="0.3" stroke-dasharray="1.2,0.8"/>
<line x1="71.231" y1="194.25" x2="49.414" y2="193.645" stroke="#8c8c8c" stroke-width="0.3" stroke-dasharray="1.2,0.8"/>
<line x1="66.443" y1="146.457" x2="71.231" y2="194.25" stroke="#8c8c8c" stroke-width="0.3" stroke-dasharray="1.2,0.8"/>
<line x1="78.719" y1="147.178" x2="71.231" y2="194.25" stroke="#8c8c8c" stroke-width="0.3" stroke-dasharray="1.2,0.8"/>
<line x1="17.275" y1="147.136" x2="19.762" y2="194.482" stroke="#8c8c8c" stroke-width="0.3" stroke-dasharray="1.2,0.8"/>
<line x1="29.562" y1="146.587" x2="31.326" y2="193.966" stroke="#8c8c8c" stroke-width="0.3" stroke-dasharray="1.2,0.8"/>
<line x1="90.976" y1="148.136" x2="71.231" y2="194.25" stroke="#8c8c8c" stroke-width="0.3" stroke-dasharray="1.2,0.8"/>
<line x1="34.19" y1="136.607" x2="41.852" y2="146.223" stroke="#8c8c8c" stroke-width="0.3" stroke-dasharray="1.2,0.8"/>
<line x1="61.814" y1="136.607" x2="54.146" y2="146.223" stroke="#8c8c8c" stroke-width="0.3" stroke-dasharray="1.2,0.8"/>
<line x1="50.31" y1="211.714" x2="49.414" y2="193.645" stroke="#8c8c8c" stroke-width="0.3" stroke-dasharray="1.2,0.8"/>
<line x1="59.083" y1="124.616" x2="61.814" y2="136.607" stroke="#8c8c8c" stroke-width="0.3" stroke-dasharray="1.2,0.8"/>
<line x1="48.008" y1="119.28" x2="59.083" y2="124.616" stroke="#8c8c8c" stroke-width="0.3" stroke-dasharray="1.2,0.8"/>
<line x1="87.088" y1="195.389" x2="71.231" y2="194.25" stroke="#8c8c8c" stroke-width="0.3" stroke-dasharray="1.2,0.8"/>
<line x1="87.088" y1="195.389" x2="90.976" y2="148.136" stroke="#8c8c8c" stroke-width="0.3" stroke-dasharray="1.2,0.8"/>
<line x1="36.93" y1="124.616" x2="48.008" y2="119.28" stroke="#8c8c8c" stroke-width="0.3" stroke-dasharray="1.2,0.8"/>
<line x1="19.762" y1="194.482" x2="8.209" y2="195.173" stroke="#8c8c8c" stroke-width="0.3" stroke-dasharray="1.2,0.8"/>
<line x1="34.19" y1="136.607" x2="36.93" y2="124.616" stroke="#8c8c8c" stroke-width="0.3" stroke-dasharray="1.2,0.8"/>
<line x1="31.326" y1="193.966" x2="19.762" y2="194.482" stroke="#8c8c8c" stroke-width="0.3" stroke-dasharray="1.2,0.8"/>
<line x1="29.562" y1="146.587" x2="41.852" y2="146.223" stroke="#141414" stroke-width="0.4"/>
<line x1="54.146" y1="146.223" x2="66.443" y2="146.457" stroke="#141414" stroke-width="0.4"/>
<line x1="49.414" y1="193.645" x2="31.326" y2="193.966" stroke="#141414" stroke-width="0.4"/>
<line x1="66.443" y1="146.457" x2="78.719" y2="147.178" stroke="#141414" stroke-width="0.4"/>
<line x1="78.719" y1="147.178" x2="90.976" y2="148.136" stroke="#141414" stroke-width="0.4"/>
<line x1="71.231" y1="194.25" x2="71.109" y2="210.148" stroke="#141414" stroke-width="0.4"/>
<line x1="8.209" y1="195.173" x2="5.0" y2="147.87" stroke="#141414" stroke-width="0.4"/>
<line x1="5.0" y1="147.87" x2="17.275" y2="147.136" stroke="#141414" stroke-width="0.4"/>
<line x1="71.109" y1="210.148" x2="61.088" y2="215.937" stroke="#141414" stroke-width="0.4"/>
<line x1="17.275" y1="147.136" x2="29.562" y2="146.587" stroke="#141414" stroke-width="0.4"/>
<line x1="61.088" y1="215.937" x2="50.31" y2="211.714" stroke="#141414" stroke-width="0.4"/>
<line x1="41.852" y1="146.223" x2="34.023" y2="146.236" stroke="#141414" stroke-width="0.4"/>
<line x1="34.023" y1="146.236" x2="31.877" y2="143.543" stroke="#141414" stroke-width="0.4"/>
<line x1="31.877" y1="143.543" x2="34.19" y2="136.607" stroke="#141414" stroke-width="0.4"/>
<line x1="54.146" y1="146.223" x2="61.978" y2="146.239" stroke="#141414" stroke-width="0.4"/>
<line x1="61.978" y1="146.239" x2="64.125" y2="143.547" stroke="#141414" stroke-width="0.4"/>
<line x1="64.125" y1="143.547" x2="61.814" y2="136.607" stroke="#141414" stroke-width="0.4"/>
<line x1="49.414" y1="193.645" x2="42.557" y2="196.702" stroke="#141414" stroke-width="0.4"/>
<line x1="42.557" y1="196.702" x2="43.184" y2="209.35" stroke="#141414" stroke-width="0.4"/>
<line x1="43.184" y1="209.35" x2="50.31" y2="211.714" stroke="#141414" stroke-width="0.4"/>
<line x1="61.814" y1="136.607" x2="67.4" y2="133.442" stroke="#141414" stroke-width="0.4"/>
<line x1="67.4" y1="133.442" x2="65.488" y2="125.049" stroke="#141414" stroke-width="0.4"/>
<line x1="65.488" y1="125.049" x2="59.083" y2="124.616" stroke="#141414" stroke-width="0.4"/>
<line x1="59.083" y1="124.616" x2="60.09" y2="118.278" stroke="#141414" stroke-width="0.4"/>
<line x1="60.09" y1="118.278" x2="52.337" y2="114.543" stroke="#141414" stroke-width="0.4"/>
<line x1="52.337" y1="114.543" x2="48.008" y2="119.28" stroke="#141414" stroke-width="0.4"/>
<line x1="71.231" y1="194.25" x2="73.108" y2="201.403" stroke="#141414" stroke-width="0.4"/>
<line x1="73.108" y1="201.403" x2="84.208" y2="202.2" stroke="#141414" stroke-width="0.4"/>
<line x1="84.208" y1="202.2" x2="87.088" y2="195.389" stroke="#141414" stroke-width="0.4"/>
<line x1="90.976" y1="148.136" x2="97.369" y2="155.798" stroke="#141414" stroke-width="0.4"/>
<line x1="97.369" y1="155.798" x2="94.647" y2="188.875" stroke="#141414" stroke-width="0.4"/>
<line x1="94.647" y1="188.875" x2="87.088" y2="195.389" stroke="#141414" stroke-width="0.4"/>
<line x1="48.008" y1="119.28" x2="43.678" y2="114.541" stroke="#141414" stroke-width="0.4"/>
<line x1="43.678" y1="114.541" x2="35.923" y2="118.277" stroke="#141414" stroke-width="0.4"/>
<line x1="35.923" y1="118.277" x2="36.93" y2="124.616" stroke="#141414" stroke-width="0.4"/>
<line x1="8.209" y1="195.173" x2="10.287" y2="200.846" stroke="#141414" stroke-width="0.4"/>
<line x1="10.287" y1="200.846" x2="18.374" y2="200.362" stroke="#141414" stroke-width="0.4"/>
<line x1="18.374" y1="200.362" x2="19.762" y2="194.482" stroke="#141414" stroke-width="0.4"/>
<line x1="36.93" y1="124.616" x2="30.523" y2="125.045" stroke="#141414" stroke-width="0.4"/>
<line x1="30.523" y1="125.045" x2="28.606" y2="133.438" stroke="#141414" stroke-width="0.4"/>
<line x1="28.606" y1="133.438" x2="34.19" y2="136.607" stroke="#141414" stroke-width="0.4"/>
<line x1="19.762" y1="194.482" x2="21.755" y2="200.187" stroke="#141414" stroke-width="0.4"/>
<line x1="21.755" y1="200.187" x2="29.85" y2="199.826" stroke="#141414" stroke-width="0.4"/>
<line x1="29.85" y1="199.826" x2="31.326" y2="193.966" stroke="#141414" stroke-width="0.4"/>
<circle cx="35.485" cy="143.152" r="2.40" fill="#ffe082" stroke="#464646" stroke-width="0.2"/>
<text x="35.485" y="143.97" font-size="2.35" text-anchor="middle" fill="#141414">91</text>
<circle cx="60.516" cy="143.154" r="2.40" fill="#ffe082" stroke="#464646" stroke-width="0.2"/>
<text x="60.516" y="143.98" font-size="2.35" text-anchor="middle" fill="#141414">92</text>
<circle cx="46.366" cy="202.853" r="2.40" fill="#ffe082" stroke="#464646" stroke-width="0.2"/>
<text x="46.366" y="203.67" font-size="2.35" text-anchor="middle" fill="#141414">93</text>
<circle cx="63.446" cy="129.929" r="2.40" fill="#ffe082" stroke="#464646" stroke-width="0.2"/>
<text x="63.446" y="130.75" font-size="2.35" text-anchor="middle" fill="#141414">94</text>
<circle cx="54.88" cy="119.179" r="2.40" fill="#99d9fa" stroke="#464646" stroke-width="0.2"/>
<text x="54.88" y="120.00" font-size="2.35" text-anchor="middle" fill="#141414">95</text>
<circle cx="78.909" cy="198.31" r="2.40" fill="#ffe082" stroke="#464646" stroke-width="0.2"/>
<text x="78.909" y="199.13" font-size="2.35" text-anchor="middle" fill="#141414">96</text>
<circle cx="92.52" cy="172.049" r="2.40" fill="#ffe082" stroke="#464646" stroke-width="0.2"/>
<text x="92.52" y="172.87" font-size="2.35" text-anchor="middle" fill="#141414">97</text>
<circle cx="41.135" cy="119.178" r="2.40" fill="#ffe082" stroke="#464646" stroke-width="0.2"/>
<text x="41.135" y="120.00" font-size="2.35" text-anchor="middle" fill="#141414">98</text>
<circle cx="14.158" cy="197.716" r="2.40" fill="#ffe082" stroke="#464646" stroke-width="0.2"/>
<text x="14.158" y="198.54" font-size="2.35" text-anchor="middle" fill="#141414">99</text>
<circle cx="32.562" cy="129.926" r="2.40" fill="#ffe082" stroke="#464646" stroke-width="0.2"/>
<text x="32.562" y="130.75" font-size="2.35" text-anchor="middle" fill="#141414">100</text>
<circle cx="25.673" cy="197.115" r="2.40" fill="#ffe082" stroke="#464646" stroke-width="0.2"/>
<text x="25.673" y="197.94" font-size="2.35" text-anchor="middle" fill="#141414">101</text>
<circle cx="62.363" cy="178.118" r="4.60" fill="#eaf1fe" stroke="#2e78e6" stroke-width="0.3"/>
<text x="62.363" y="179.92" font-size="5.20" text-anchor="middle" fill="#14306e" font-weight="bold">9</text>
<text x="205.0" y="295.0" font-size="3.2" text-anchor="end" fill="#737373" font-family="sans-serif">5 / 10</text>
<g pointer-events="none"><text x="105.0" y="83.2" text-anchor="middle" font-family="sans-serif" font-size="12.4" fill="#9aa0a6" fill-opacity="0.3" transform="rotate(-28 105.0 83.2)">papercraft.kr</text><text x="105.0" y="148.5" text-anchor="middle" font-family="sans-serif" font-size="12.4" fill="#9aa0a6" fill-opacity="0.3" transform="rotate(-28 105.0 148.5)">papercraft.kr</text><text x="105.0" y="213.8" text-anchor="middle" font-family="sans-serif" font-size="12.4" fill="#9aa0a6" fill-opacity="0.3" transform="rotate(-28 105.0 213.8)">papercraft.kr</text></g></svg>
