<svg xmlns="http://www.w3.org/2000/svg" xmlns:xlink="http://www.w3.org/1999/xlink" width="210.00mm" height="297.00mm" viewBox="0 0 210.00 297.00">
<rect x="0" y="0" width="210.00" height="297.00" fill="#ffffff" stroke="#cccccc" stroke-width="0.2"/>
<polygon points="65.077,105.907 60.366,101.577 63.777,87.541 69.949,85.856" fill="rgb(216,216,216)"/>
<polygon points="65.077,126.542 63.351,135.295 67.659,143.493 75.847,147.036" fill="rgb(216,216,216)"/>
<polygon points="75.847,147.036 72.505,152.715 80.045,167.061 86.618,167.53" fill="rgb(216,216,216)"/>
<polygon points="86.618,167.53 83.276,173.209 90.815,187.555 97.388,188.024" fill="rgb(216,216,216)"/>
<polygon points="97.388,188.024 94.046,193.704 101.586,208.05 108.159,208.519" fill="rgb(216,216,216)"/>
<polygon points="108.159,208.519 107.532,214.886 119.428,223.078 125.153,220.222" fill="rgb(216,216,216)"/>
<polygon points="125.153,220.222 130.753,217.127 130.753,202.683 125.153,199.587" fill="rgb(216,216,216)"/>
<polygon points="193.3,121.263 193.927,114.895 182.031,106.703 176.305,109.56" fill="rgb(216,216,216)"/>
<polygon points="150.447,9.011 145.559,4.883 132.064,10.035 131.17,16.37" fill="rgb(216,216,216)"/>
<polygon points="82.071,117.61 90.26,121.153 94.568,129.351 92.842,138.105" fill="rgb(216,216,216)"/>
<polygon points="92.842,138.105 99.415,138.574 106.954,152.919 103.612,158.599" fill="rgb(216,216,216)"/>
<polygon points="103.612,158.599 110.185,159.068 117.724,173.414 114.383,179.093" fill="rgb(216,216,216)"/>
<polygon points="114.383,179.093 120.955,179.562 128.495,193.908 125.153,199.587" fill="rgb(216,216,216)"/>
<polygon points="84.354,98.548 91.916,93.814 101.112,94.915 107.342,101.301" fill="rgb(216,216,216)"/>
<polygon points="107.342,101.301 111.456,96.154 127.547,98.081 130.33,104.054" fill="rgb(216,216,216)"/>
<polygon points="130.33,104.054 134.444,98.906 150.535,100.834 153.318,106.807" fill="rgb(216,216,216)"/>
<polygon points="153.318,106.807 157.432,101.659 173.523,103.587 176.305,109.56" fill="rgb(216,216,216)"/>
<polygon points="69.949,85.856 68.043,79.549 78.757,67.388 85.254,68.485" fill="rgb(216,216,216)"/>
<polygon points="85.254,68.485 83.348,62.177 94.062,50.017 100.559,51.113" fill="rgb(216,216,216)"/>
<polygon points="100.559,51.113 98.653,44.806 109.367,32.646 115.865,33.742" fill="rgb(216,216,216)"/>
<polygon points="115.865,33.742 113.959,27.434 124.672,15.274 131.17,16.37" fill="rgb(216,216,216)"/>
<polygon points="69.949,85.856 68.043,79.549 78.757,67.388 85.254,68.485" fill="#99d9fa"/>
<line x1="65.077" y1="126.542" x2="65.077" y2="105.907" stroke="#8c8c8c" stroke-width="0.3" stroke-dasharray="1.2,0.8"/>
<line x1="65.077" y1="105.907" x2="82.071" y2="117.61" stroke="#8c8c8c" stroke-width="0.3" stroke-dasharray="1.2,0.8"/>
<line x1="65.077" y1="105.907" x2="84.354" y2="98.548" stroke="#8c8c8c" stroke-width="0.3" stroke-dasharray="1.2,0.8"/>
<line x1="82.071" y1="117.61" x2="65.077" y2="126.542" stroke="#8c8c8c" stroke-width="0.3" stroke-dasharray="1.2,0.8"/>
<line x1="65.077" y1="126.542" x2="48.082" y2="117.61" stroke="#8c8c8c" stroke-width="0.3" stroke-dasharray="1.2,0.8"/>
<line x1="125.153" y1="199.587" x2="108.159" y2="208.519" stroke="#8c8c8c" stroke-width="0.3" stroke-dasharray="1.2,0.8"/>
<line x1="21.995" y1="208.519" x2="5.0" y2="199.587" stroke="#8c8c8c" stroke-width="0.3" stroke-dasharray="1.2,0.8"/>
<line x1="84.354" y1="98.548" x2="82.071" y2="117.61" stroke="#8c8c8c" stroke-width="0.3" stroke-dasharray="1.2,0.8"/>
<line x1="176.305" y1="109.56" x2="174.022" y2="128.622" stroke="#8c8c8c" stroke-width="0.3" stroke-dasharray="1.2,0.8"/>
<line x1="69.949" y1="85.856" x2="84.354" y2="98.548" stroke="#8c8c8c" stroke-width="0.3" stroke-dasharray="1.2,0.8"/>
<line x1="131.17" y1="16.37" x2="145.575" y2="29.062" stroke="#8c8c8c" stroke-width="0.3" stroke-dasharray="1.2,0.8"/>
<line x1="69.949" y1="85.856" x2="65.077" y2="105.907" stroke="#8c8c8c" stroke-width="0.3" stroke-dasharray="1.2,0.8"/>
<line x1="75.847" y1="147.036" x2="65.077" y2="126.542" stroke="#8c8c8c" stroke-width="0.3" stroke-dasharray="1.2,0.8"/>
<line x1="86.618" y1="167.53" x2="75.847" y2="147.036" stroke="#8c8c8c" stroke-width="0.3" stroke-dasharray="1.2,0.8"/>
<line x1="97.388" y1="188.024" x2="86.618" y2="167.53" stroke="#8c8c8c" stroke-width="0.3" stroke-dasharray="1.2,0.8"/>
<line x1="108.159" y1="208.519" x2="97.388" y2="188.024" stroke="#8c8c8c" stroke-width="0.3" stroke-dasharray="1.2,0.8"/>
<line x1="125.153" y1="220.222" x2="108.159" y2="208.519" stroke="#8c8c8c" stroke-width="0.3" stroke-dasharray="1.2,0.8"/>
<line x1="125.153" y1="199.587" x2="125.153" y2="220.222" stroke="#8c8c8c" stroke-width="0.3" stroke-dasharray="1.2,0.8"/>
<line x1="176.305" y1="109.56" x2="193.3" y2="121.263" stroke="#8c8c8c" stroke-width="0.3" stroke-dasharray="1.2,0.8"/>
<line x1="131.17" y1="16.37" x2="150.447" y2="9.011" stroke="#8c8c8c" stroke-width="0.3" stroke-dasharray="1.2,0.8"/>
<line x1="92.842" y1="138.105" x2="82.071" y2="117.61" stroke="#8c8c8c" stroke-width="0.3" stroke-dasharray="1.2,0.8"/>
<line x1="103.612" y1="158.599" x2="92.842" y2="138.105" stroke="#8c8c8c" stroke-width="0.3" stroke-dasharray="1.2,0.8"/>
<line x1="114.383" y1="179.093" x2="103.612" y2="158.599" stroke="#8c8c8c" stroke-width="0.3" stroke-dasharray="1.2,0.8"/>
<line x1="125.153" y1="199.587" x2="114.383" y2="179.093" stroke="#8c8c8c" stroke-width="0.3" stroke-dasharray="1.2,0.8"/>
<line x1="107.342" y1="101.301" x2="84.354" y2="98.548" stroke="#8c8c8c" stroke-width="0.3" stroke-dasharray="1.2,0.8"/>
<line x1="130.33" y1="104.054" x2="107.342" y2="101.301" stroke="#8c8c8c" stroke-width="0.3" stroke-dasharray="1.2,0.8"/>
<line x1="153.318" y1="106.807" x2="130.33" y2="104.054" stroke="#8c8c8c" stroke-width="0.3" stroke-dasharray="1.2,0.8"/>
<line x1="176.305" y1="109.56" x2="153.318" y2="106.807" stroke="#8c8c8c" stroke-width="0.3" stroke-dasharray="1.2,0.8"/>
<line x1="85.254" y1="68.485" x2="69.949" y2="85.856" stroke="#8c8c8c" stroke-width="0.3" stroke-dasharray="1.2,0.8"/>
<line x1="100.559" y1="51.113" x2="85.254" y2="68.485" stroke="#8c8c8c" stroke-width="0.3" stroke-dasharray="1.2,0.8"/>
<line x1="115.865" y1="33.742" x2="100.559" y2="51.113" stroke="#8c8c8c" stroke-width="0.3" stroke-dasharray="1.2,0.8"/>
<line x1="131.17" y1="16.37" x2="115.865" y2="33.742" stroke="#8c8c8c" stroke-width="0.3" stroke-dasharray="1.2,0.8"/>
<line x1="48.082" y1="117.61" x2="65.077" y2="105.907" stroke="#141414" stroke-width="0.4"/>
<line x1="65.077" y1="126.542" x2="54.306" y2="147.036" stroke="#141414" stroke-width="0.4"/>
<line x1="54.306" y1="147.036" x2="43.536" y2="167.53" stroke="#141414" stroke-width="0.4"/>
<line x1="43.536" y1="167.53" x2="32.765" y2="188.024" stroke="#141414" stroke-width="0.4"/>
<line x1="32.765" y1="188.024" x2="21.995" y2="208.519" stroke="#141414" stroke-width="0.4"/>
<line x1="21.995" y1="208.519" x2="5.0" y2="220.222" stroke="#141414" stroke-width="0.4"/>
<line x1="193.3" y1="121.263" x2="174.022" y2="128.622" stroke="#141414" stroke-width="0.4"/>
<line x1="150.447" y1="9.011" x2="145.575" y2="29.062" stroke="#141414" stroke-width="0.4"/>
<line x1="5.0" y1="220.222" x2="5.0" y2="199.587" stroke="#141414" stroke-width="0.4"/>
<line x1="105.059" y1="120.363" x2="82.071" y2="117.61" stroke="#141414" stroke-width="0.4"/>
<line x1="128.047" y1="123.116" x2="105.059" y2="120.363" stroke="#141414" stroke-width="0.4"/>
<line x1="151.035" y1="125.869" x2="128.047" y2="123.116" stroke="#141414" stroke-width="0.4"/>
<line x1="174.022" y1="128.622" x2="151.035" y2="125.869" stroke="#141414" stroke-width="0.4"/>
<line x1="99.659" y1="81.177" x2="84.354" y2="98.548" stroke="#141414" stroke-width="0.4"/>
<line x1="114.965" y1="63.805" x2="99.659" y2="81.177" stroke="#141414" stroke-width="0.4"/>
<line x1="130.27" y1="46.434" x2="114.965" y2="63.805" stroke="#141414" stroke-width="0.4"/>
<line x1="145.575" y1="29.062" x2="130.27" y2="46.434" stroke="#141414" stroke-width="0.4"/>
<line x1="37.312" y1="138.105" x2="48.082" y2="117.61" stroke="#141414" stroke-width="0.4"/>
<line x1="26.541" y1="158.599" x2="37.312" y2="138.105" stroke="#141414" stroke-width="0.4"/>
<line x1="15.771" y1="179.093" x2="26.541" y2="158.599" stroke="#141414" stroke-width="0.4"/>
<line x1="5.0" y1="199.587" x2="15.771" y2="179.093" stroke="#141414" stroke-width="0.4"/>
<line x1="65.077" y1="105.907" x2="60.366" y2="101.577" stroke="#141414" stroke-width="0.4"/>
<line x1="60.366" y1="101.577" x2="63.777" y2="87.541" stroke="#141414" stroke-width="0.4"/>
<line x1="63.777" y1="87.541" x2="69.949" y2="85.856" stroke="#141414" stroke-width="0.4"/>
<line x1="65.077" y1="126.542" x2="63.351" y2="135.295" stroke="#141414" stroke-width="0.4"/>
<line x1="63.351" y1="135.295" x2="67.659" y2="143.493" stroke="#141414" stroke-width="0.4"/>
<line x1="67.659" y1="143.493" x2="75.847" y2="147.036" stroke="#141414" stroke-width="0.4"/>
<line x1="75.847" y1="147.036" x2="72.505" y2="152.715" stroke="#141414" stroke-width="0.4"/>
<line x1="72.505" y1="152.715" x2="80.045" y2="167.061" stroke="#141414" stroke-width="0.4"/>
<line x1="80.045" y1="167.061" x2="86.618" y2="167.53" stroke="#141414" stroke-width="0.4"/>
<line x1="86.618" y1="167.53" x2="83.276" y2="173.209" stroke="#141414" stroke-width="0.4"/>
<line x1="83.276" y1="173.209" x2="90.815" y2="187.555" stroke="#141414" stroke-width="0.4"/>
<line x1="90.815" y1="187.555" x2="97.388" y2="188.024" stroke="#141414" stroke-width="0.4"/>
<line x1="97.388" y1="188.024" x2="94.046" y2="193.704" stroke="#141414" stroke-width="0.4"/>
<line x1="94.046" y1="193.704" x2="101.586" y2="208.05" stroke="#141414" stroke-width="0.4"/>
<line x1="101.586" y1="208.05" x2="108.159" y2="208.519" stroke="#141414" stroke-width="0.4"/>
<line x1="108.159" y1="208.519" x2="107.532" y2="214.886" stroke="#141414" stroke-width="0.4"/>
<line x1="107.532" y1="214.886" x2="119.428" y2="223.078" stroke="#141414" stroke-width="0.4"/>
<line x1="119.428" y1="223.078" x2="125.153" y2="220.222" stroke="#141414" stroke-width="0.4"/>
<line x1="125.153" y1="220.222" x2="130.753" y2="217.127" stroke="#141414" stroke-width="0.4"/>
<line x1="130.753" y1="217.127" x2="130.753" y2="202.683" stroke="#141414" stroke-width="0.4"/>
<line x1="130.753" y1="202.683" x2="125.153" y2="199.587" stroke="#141414" stroke-width="0.4"/>
<line x1="193.3" y1="121.263" x2="193.927" y2="114.895" stroke="#141414" stroke-width="0.4"/>
<line x1="193.927" y1="114.895" x2="182.031" y2="106.703" stroke="#141414" stroke-width="0.4"/>
<line x1="182.031" y1="106.703" x2="176.305" y2="109.56" stroke="#141414" stroke-width="0.4"/>
<line x1="150.447" y1="9.011" x2="145.559" y2="4.883" stroke="#141414" stroke-width="0.4"/>
<line x1="145.559" y1="4.883" x2="132.064" y2="10.035" stroke="#141414" stroke-width="0.4"/>
<line x1="132.064" y1="10.035" x2="131.17" y2="16.37" stroke="#141414" stroke-width="0.4"/>
<line x1="82.071" y1="117.61" x2="90.26" y2="121.153" stroke="#141414" stroke-width="0.4"/>
<line x1="90.26" y1="121.153" x2="94.568" y2="129.351" stroke="#141414" stroke-width="0.4"/>
<line x1="94.568" y1="129.351" x2="92.842" y2="138.105" stroke="#141414" stroke-width="0.4"/>
<line x1="92.842" y1="138.105" x2="99.415" y2="138.574" stroke="#141414" stroke-width="0.4"/>
<line x1="99.415" y1="138.574" x2="106.954" y2="152.919" stroke="#141414" stroke-width="0.4"/>
<line x1="106.954" y1="152.919" x2="103.612" y2="158.599" stroke="#141414" stroke-width="0.4"/>
<line x1="103.612" y1="158.599" x2="110.185" y2="159.068" stroke="#141414" stroke-width="0.4"/>
<line x1="110.185" y1="159.068" x2="117.724" y2="173.414" stroke="#141414" stroke-width="0.4"/>
<line x1="117.724" y1="173.414" x2="114.383" y2="179.093" stroke="#141414" stroke-width="0.4"/>
<line x1="114.383" y1="179.093" x2="120.955" y2="179.562" stroke="#141414" stroke-width="0.4"/>
<line x1="120.955" y1="179.562" x2="128.495" y2="193.908" stroke="#141414" stroke-width="0.4"/>
<line x1="128.495" y1="193.908" x2="125.153" y2="199.587" stroke="#141414" stroke-width="0.4"/>
<line x1="84.354" y1="98.548" x2="91.916" y2="93.814" stroke="#141414" stroke-width="0.4"/>
<line x1="91.916" y1="93.814" x2="101.112" y2="94.915" stroke="#141414" stroke-width="0.4"/>
<line x1="101.112" y1="94.915" x2="107.342" y2="101.301" stroke="#141414" stroke-width="0.4"/>
<line x1="107.342" y1="101.301" x2="111.456" y2="96.154" stroke="#141414" stroke-width="0.4"/>
<line x1="111.456" y1="96.154" x2="127.547" y2="98.081" stroke="#141414" stroke-width="0.4"/>
<line x1="127.547" y1="98.081" x2="130.33" y2="104.054" stroke="#141414" stroke-width="0.4"/>
<line x1="130.33" y1="104.054" x2="134.444" y2="98.906" stroke="#141414" stroke-width="0.4"/>
<line x1="134.444" y1="98.906" x2="150.535" y2="100.834" stroke="#141414" stroke-width="0.4"/>
<line x1="150.535" y1="100.834" x2="153.318" y2="106.807" stroke="#141414" stroke-width="0.4"/>
<line x1="153.318" y1="106.807" x2="157.432" y2="101.659" stroke="#141414" stroke-width="0.4"/>
<line x1="157.432" y1="101.659" x2="173.523" y2="103.587" stroke="#141414" stroke-width="0.4"/>
<line x1="173.523" y1="103.587" x2="176.305" y2="109.56" stroke="#141414" stroke-width="0.4"/>
<line x1="69.949" y1="85.856" x2="68.043" y2="79.549" stroke="#141414" stroke-width="0.4"/>
<line x1="68.043" y1="79.549" x2="78.757" y2="67.388" stroke="#141414" stroke-width="0.4"/>
<line x1="78.757" y1="67.388" x2="85.254" y2="68.485" stroke="#141414" stroke-width="0.4"/>
<line x1="85.254" y1="68.485" x2="83.348" y2="62.177" stroke="#141414" stroke-width="0.4"/>
<line x1="83.348" y1="62.177" x2="94.062" y2="50.017" stroke="#141414" stroke-width="0.4"/>
<line x1="94.062" y1="50.017" x2="100.559" y2="51.113" stroke="#141414" stroke-width="0.4"/>
<line x1="100.559" y1="51.113" x2="98.653" y2="44.806" stroke="#141414" stroke-width="0.4"/>
<line x1="98.653" y1="44.806" x2="109.367" y2="32.646" stroke="#141414" stroke-width="0.4"/>
<line x1="109.367" y1="32.646" x2="115.865" y2="33.742" stroke="#141414" stroke-width="0.4"/>
<line x1="115.865" y1="33.742" x2="113.959" y2="27.434" stroke="#141414" stroke-width="0.4"/>
<line x1="113.959" y1="27.434" x2="124.672" y2="15.274" stroke="#141414" stroke-width="0.4"/>
<line x1="124.672" y1="15.274" x2="131.17" y2="16.37" stroke="#141414" stroke-width="0.4"/>
<circle cx="64.792" cy="95.221" r="2.46" fill="#ffe082" stroke="#464646" stroke-width="0.2"/>
<text x="64.792" y="96.39" font-size="3.34" text-anchor="middle" fill="#141414">1</text>
<circle cx="67.983" cy="138.091" r="2.46" fill="#ffe082" stroke="#464646" stroke-width="0.2"/>
<text x="67.983" y="139.26" font-size="3.34" text-anchor="middle" fill="#141414">2</text>
<circle cx="78.754" cy="158.586" r="2.46" fill="#ffe082" stroke="#464646" stroke-width="0.2"/>
<text x="78.754" y="159.76" font-size="3.34" text-anchor="middle" fill="#141414">3</text>
<circle cx="89.524" cy="179.08" r="2.46" fill="#ffe082" stroke="#464646" stroke-width="0.2"/>
<text x="89.524" y="180.25" font-size="3.34" text-anchor="middle" fill="#141414">4</text>
<circle cx="100.295" cy="199.574" r="2.46" fill="#ffe082" stroke="#464646" stroke-width="0.2"/>
<text x="100.295" y="200.74" font-size="3.34" text-anchor="middle" fill="#141414">5</text>
<circle cx="115.068" cy="216.676" r="2.46" fill="#ffe082" stroke="#464646" stroke-width="0.2"/>
<text x="115.068" y="217.85" font-size="3.34" text-anchor="middle" fill="#141414">6</text>
<circle cx="127.953" cy="209.905" r="2.46" fill="#ffe082" stroke="#464646" stroke-width="0.2"/>
<text x="127.953" y="211.08" font-size="3.34" text-anchor="middle" fill="#141414">7</text>
<circle cx="186.391" cy="113.105" r="2.46" fill="#ffe082" stroke="#464646" stroke-width="0.2"/>
<text x="186.391" y="114.28" font-size="3.34" text-anchor="middle" fill="#141414">8</text>
<circle cx="139.81" cy="10.075" r="2.46" fill="#ffe082" stroke="#464646" stroke-width="0.2"/>
<text x="139.81" y="11.25" font-size="3.34" text-anchor="middle" fill="#141414">9</text>
<circle cx="89.935" cy="126.555" r="2.46" fill="#ffe082" stroke="#464646" stroke-width="0.2"/>
<text x="89.935" y="127.73" font-size="3.34" text-anchor="middle" fill="#141414">10</text>
<circle cx="100.706" cy="147.049" r="2.46" fill="#ffe082" stroke="#464646" stroke-width="0.2"/>
<text x="100.706" y="148.22" font-size="3.34" text-anchor="middle" fill="#141414">11</text>
<circle cx="111.476" cy="167.543" r="2.46" fill="#ffe082" stroke="#464646" stroke-width="0.2"/>
<text x="111.476" y="168.71" font-size="3.34" text-anchor="middle" fill="#141414">12</text>
<circle cx="122.247" cy="188.038" r="2.46" fill="#ffe082" stroke="#464646" stroke-width="0.2"/>
<text x="122.247" y="189.21" font-size="3.34" text-anchor="middle" fill="#141414">13</text>
<circle cx="96.181" cy="97.144" r="2.46" fill="#ffe082" stroke="#464646" stroke-width="0.2"/>
<text x="96.181" y="98.31" font-size="3.34" text-anchor="middle" fill="#141414">14</text>
<circle cx="119.169" cy="99.897" r="2.46" fill="#ffe082" stroke="#464646" stroke-width="0.2"/>
<text x="119.169" y="101.07" font-size="3.34" text-anchor="middle" fill="#141414">15</text>
<circle cx="142.157" cy="102.65" r="2.46" fill="#ffe082" stroke="#464646" stroke-width="0.2"/>
<text x="142.157" y="103.82" font-size="3.34" text-anchor="middle" fill="#141414">16</text>
<circle cx="165.144" cy="105.403" r="2.46" fill="#ffe082" stroke="#464646" stroke-width="0.2"/>
<text x="165.144" y="106.57" font-size="3.34" text-anchor="middle" fill="#141414">17</text>
<circle cx="75.501" cy="75.319" r="2.46" fill="#99d9fa" stroke="#464646" stroke-width="0.2"/>
<text x="75.501" y="76.49" font-size="3.34" text-anchor="middle" fill="#141414">18</text>
<circle cx="90.806" cy="57.948" r="2.46" fill="#ffe082" stroke="#464646" stroke-width="0.2"/>
<text x="90.806" y="59.12" font-size="3.34" text-anchor="middle" fill="#141414">19</text>
<circle cx="106.111" cy="40.577" r="2.46" fill="#ffe082" stroke="#464646" stroke-width="0.2"/>
<text x="106.111" y="41.75" font-size="3.34" text-anchor="middle" fill="#141414">20</text>
<circle cx="121.416" cy="23.205" r="2.46" fill="#ffe082" stroke="#464646" stroke-width="0.2"/>
<text x="121.416" y="24.38" font-size="3.34" text-anchor="middle" fill="#141414">21</text>
<circle cx="41.461" cy="157.722" r="3.94" fill="#eaf1fe" stroke="#2e78e6" stroke-width="0.3"/>
<text x="41.461" y="159.26" font-size="4.45" text-anchor="middle" fill="#14306e" font-weight="bold">1</text>
<polygon points="22.542,240.837 20.483,234.976 29.352,226.107 35.212,228.166" fill="rgb(216,216,216)"/>
<polygon points="7.645,268.404 7.892,275.711 25.16,289.237 32.314,287.726" fill="rgb(216,216,216)"/>
<polygon points="35.212,253.507 41.073,255.566 49.942,246.697 47.883,240.837" fill="rgb(216,216,216)"/>
<polygon points="47.883,240.837 49.942,234.977 41.073,226.107 35.212,228.166" fill="rgb(216,216,216)"/>
<polygon points="22.542,240.837 20.483,234.976 29.352,226.107 35.212,228.166" fill="#99d9fa"/>
<line x1="7.645" y1="268.404" x2="22.542" y2="240.837" stroke="#8c8c8c" stroke-width="0.3" stroke-dasharray="1.2,0.8"/>
<line x1="35.212" y1="253.507" x2="22.542" y2="240.837" stroke="#8c8c8c" stroke-width="0.3" stroke-dasharray="1.2,0.8"/>
<line x1="35.212" y1="253.507" x2="7.645" y2="268.404" stroke="#8c8c8c" stroke-width="0.3" stroke-dasharray="1.2,0.8"/>
<line x1="38.868" y1="271.049" x2="7.645" y2="268.404" stroke="#8c8c8c" stroke-width="0.3" stroke-dasharray="1.2,0.8"/>
<line x1="35.212" y1="228.166" x2="22.542" y2="240.837" stroke="#8c8c8c" stroke-width="0.3" stroke-dasharray="1.2,0.8"/>
<line x1="32.314" y1="287.726" x2="7.645" y2="268.404" stroke="#8c8c8c" stroke-width="0.3" stroke-dasharray="1.2,0.8"/>
<line x1="47.883" y1="240.837" x2="35.212" y2="253.507" stroke="#8c8c8c" stroke-width="0.3" stroke-dasharray="1.2,0.8"/>
<line x1="35.212" y1="228.166" x2="47.883" y2="240.837" stroke="#8c8c8c" stroke-width="0.3" stroke-dasharray="1.2,0.8"/>
<line x1="5.0" y1="237.181" x2="22.542" y2="240.837" stroke="#141414" stroke-width="0.4"/>
<line x1="7.645" y1="268.404" x2="5.0" y2="237.181" stroke="#141414" stroke-width="0.4"/>
<line x1="35.212" y1="253.507" x2="38.868" y2="271.049" stroke="#141414" stroke-width="0.4"/>
<line x1="38.868" y1="271.049" x2="32.314" y2="287.726" stroke="#141414" stroke-width="0.4"/>
<line x1="22.542" y1="240.837" x2="20.483" y2="234.976" stroke="#141414" stroke-width="0.4"/>
<line x1="20.483" y1="234.976" x2="29.352" y2="226.107" stroke="#141414" stroke-width="0.4"/>
<line x1="29.352" y1="226.107" x2="35.212" y2="228.166" stroke="#141414" stroke-width="0.4"/>
<line x1="7.645" y1="268.404" x2="7.892" y2="275.711" stroke="#141414" stroke-width="0.4"/>
<line x1="7.892" y1="275.711" x2="25.16" y2="289.237" stroke="#141414" stroke-width="0.4"/>
<line x1="25.16" y1="289.237" x2="32.314" y2="287.726" stroke="#141414" stroke-width="0.4"/>
<line x1="35.212" y1="253.507" x2="41.073" y2="255.566" stroke="#141414" stroke-width="0.4"/>
<line x1="41.073" y1="255.566" x2="49.942" y2="246.697" stroke="#141414" stroke-width="0.4"/>
<line x1="49.942" y1="246.697" x2="47.883" y2="240.837" stroke="#141414" stroke-width="0.4"/>
<line x1="47.883" y1="240.837" x2="49.942" y2="234.977" stroke="#141414" stroke-width="0.4"/>
<line x1="49.942" y1="234.977" x2="41.073" y2="226.107" stroke="#141414" stroke-width="0.4"/>
<line x1="41.073" y1="226.107" x2="35.212" y2="228.166" stroke="#141414" stroke-width="0.4"/>
<circle cx="26.897" cy="232.522" r="2.46" fill="#99d9fa" stroke="#464646" stroke-width="0.2"/>
<text x="26.897" y="233.69" font-size="3.34" text-anchor="middle" fill="#141414">22</text>
<circle cx="18.253" cy="280.27" r="2.46" fill="#ffe082" stroke="#464646" stroke-width="0.2"/>
<text x="18.253" y="281.44" font-size="3.34" text-anchor="middle" fill="#141414">23</text>
<circle cx="43.527" cy="249.152" r="2.46" fill="#ffe082" stroke="#464646" stroke-width="0.2"/>
<text x="43.527" y="250.32" font-size="3.34" text-anchor="middle" fill="#141414">24</text>
<circle cx="43.527" cy="232.522" r="2.46" fill="#ffe082" stroke="#464646" stroke-width="0.2"/>
<text x="43.527" y="233.69" font-size="3.34" text-anchor="middle" fill="#141414">25</text>
<circle cx="26.276" cy="275.727" r="4.58" fill="#eaf1fe" stroke="#2e78e6" stroke-width="0.3"/>
<text x="26.276" y="277.52" font-size="5.18" text-anchor="middle" fill="#14306e" font-weight="bold">2</text>
<polygon points="75.414,233.125 81.286,233.658 83.223,242.036 78.183,245.093" fill="rgb(216,216,216)"/>
<polygon points="63.131,233.125 56.929,230.58 52.872,233.352 52.988,240.054" fill="rgb(216,216,216)"/>
<polygon points="52.988,240.054 56.673,245.654 61.587,245.654 65.272,240.054" fill="rgb(216,216,216)"/>
<polygon points="60.806,251.498 67.008,254.043 71.065,251.271 70.949,244.568" fill="rgb(216,216,216)"/>
<polygon points="73.717,256.536 79.604,256.856 82.73,248.845 78.183,245.093" fill="rgb(216,216,216)"/>
<polygon points="75.414,233.125 81.286,233.658 83.223,242.036 78.183,245.093" fill="#99d9fa"/>
<line x1="63.131" y1="233.125" x2="75.415" y2="233.125" stroke="#8c8c8c" stroke-width="0.3" stroke-dasharray="1.2,0.8"/>
<line x1="75.415" y1="233.125" x2="65.272" y2="240.054" stroke="#8c8c8c" stroke-width="0.3" stroke-dasharray="1.2,0.8"/>
<line x1="75.415" y1="233.125" x2="70.949" y2="244.568" stroke="#8c8c8c" stroke-width="0.3" stroke-dasharray="1.2,0.8"/>
<line x1="65.272" y1="240.054" x2="63.131" y2="233.125" stroke="#8c8c8c" stroke-width="0.3" stroke-dasharray="1.2,0.8"/>
<line x1="63.131" y1="233.125" x2="65.272" y2="226.195" stroke="#8c8c8c" stroke-width="0.3" stroke-dasharray="1.2,0.8"/>
<line x1="70.949" y1="244.568" x2="65.272" y2="240.054" stroke="#8c8c8c" stroke-width="0.3" stroke-dasharray="1.2,0.8"/>
<line x1="78.183" y1="245.093" x2="70.949" y2="244.568" stroke="#8c8c8c" stroke-width="0.3" stroke-dasharray="1.2,0.8"/>
<line x1="78.183" y1="245.093" x2="75.414" y2="233.125" stroke="#8c8c8c" stroke-width="0.3" stroke-dasharray="1.2,0.8"/>
<line x1="52.988" y1="240.054" x2="63.131" y2="233.125" stroke="#8c8c8c" stroke-width="0.3" stroke-dasharray="1.2,0.8"/>
<line x1="65.272" y1="240.054" x2="52.988" y2="240.054" stroke="#8c8c8c" stroke-width="0.3" stroke-dasharray="1.2,0.8"/>
<line x1="70.949" y1="244.568" x2="60.806" y2="251.498" stroke="#8c8c8c" stroke-width="0.3" stroke-dasharray="1.2,0.8"/>
<line x1="78.183" y1="245.093" x2="73.717" y2="256.536" stroke="#8c8c8c" stroke-width="0.3" stroke-dasharray="1.2,0.8"/>
<line x1="65.272" y1="226.195" x2="75.415" y2="233.125" stroke="#141414" stroke-width="0.4"/>
<line x1="63.131" y1="233.125" x2="52.988" y2="226.195" stroke="#141414" stroke-width="0.4"/>
<line x1="60.806" y1="251.498" x2="65.272" y2="240.054" stroke="#141414" stroke-width="0.4"/>
<line x1="73.717" y1="256.536" x2="70.949" y2="244.568" stroke="#141414" stroke-width="0.4"/>
<line x1="52.988" y1="226.195" x2="65.272" y2="226.195" stroke="#141414" stroke-width="0.4"/>
<line x1="75.414" y1="233.125" x2="81.286" y2="233.658" stroke="#141414" stroke-width="0.4"/>
<line x1="81.286" y1="233.658" x2="83.223" y2="242.036" stroke="#141414" stroke-width="0.4"/>
<line x1="83.223" y1="242.036" x2="78.183" y2="245.093" stroke="#141414" stroke-width="0.4"/>
<line x1="63.131" y1="233.125" x2="56.929" y2="230.58" stroke="#141414" stroke-width="0.4"/>
<line x1="56.929" y1="230.58" x2="52.872" y2="233.352" stroke="#141414" stroke-width="0.4"/>
<line x1="52.872" y1="233.352" x2="52.988" y2="240.054" stroke="#141414" stroke-width="0.4"/>
<line x1="52.988" y1="240.054" x2="56.673" y2="245.654" stroke="#141414" stroke-width="0.4"/>
<line x1="56.673" y1="245.654" x2="61.587" y2="245.654" stroke="#141414" stroke-width="0.4"/>
<line x1="61.587" y1="245.654" x2="65.272" y2="240.054" stroke="#141414" stroke-width="0.4"/>
<line x1="60.806" y1="251.498" x2="67.008" y2="254.043" stroke="#141414" stroke-width="0.4"/>
<line x1="67.008" y1="254.043" x2="71.065" y2="251.271" stroke="#141414" stroke-width="0.4"/>
<line x1="71.065" y1="251.271" x2="70.949" y2="244.568" stroke="#141414" stroke-width="0.4"/>
<line x1="73.717" y1="256.536" x2="79.604" y2="256.856" stroke="#141414" stroke-width="0.4"/>
<line x1="79.604" y1="256.856" x2="82.73" y2="248.845" stroke="#141414" stroke-width="0.4"/>
<line x1="82.73" y1="248.845" x2="78.183" y2="245.093" stroke="#141414" stroke-width="0.4"/>
<circle cx="79.527" cy="238.478" r="2.46" fill="#99d9fa" stroke="#464646" stroke-width="0.2"/>
<text x="79.527" y="239.65" font-size="3.34" text-anchor="middle" fill="#141414">34</text>
<circle cx="56.48" cy="234.278" r="2.46" fill="#ffe082" stroke="#464646" stroke-width="0.2"/>
<text x="56.48" y="235.45" font-size="3.34" text-anchor="middle" fill="#141414">35</text>
<circle cx="59.13" cy="242.854" r="2.46" fill="#ffe082" stroke="#464646" stroke-width="0.2"/>
<text x="59.13" y="244.02" font-size="3.34" text-anchor="middle" fill="#141414">36</text>
<circle cx="67.457" cy="250.345" r="2.46" fill="#ffe082" stroke="#464646" stroke-width="0.2"/>
<text x="67.457" y="251.52" font-size="3.34" text-anchor="middle" fill="#141414">37</text>
<circle cx="78.558" cy="251.832" r="2.46" fill="#ffe082" stroke="#464646" stroke-width="0.2"/>
<text x="78.558" y="253.00" font-size="3.34" text-anchor="middle" fill="#141414">38</text>
<circle cx="74.849" cy="240.929" r="1.85" fill="#eaf1fe" stroke="#2e78e6" stroke-width="0.3"/>
<text x="74.849" y="241.65" font-size="2.60" text-anchor="middle" fill="#14306e" font-weight="bold">5</text>
<polygon points="108.766,233.125 114.637,233.658 116.575,242.036 111.534,245.093" fill="rgb(216,216,216)"/>
<polygon points="96.482,233.125 90.281,230.58 86.223,233.352 86.34,240.054" fill="rgb(216,216,216)"/>
<polygon points="86.34,240.054 90.025,245.654 94.938,245.654 98.624,240.054" fill="rgb(216,216,216)"/>
<polygon points="94.158,251.498 100.36,254.043 104.417,251.271 104.301,244.568" fill="rgb(216,216,216)"/>
<polygon points="107.069,256.536 112.955,256.856 116.081,248.845 111.534,245.093" fill="rgb(216,216,216)"/>
<polygon points="108.766,233.125 114.637,233.658 116.575,242.036 111.534,245.093" fill="#99d9fa"/>
<line x1="96.482" y1="233.125" x2="108.766" y2="233.125" stroke="#8c8c8c" stroke-width="0.3" stroke-dasharray="1.2,0.8"/>
<line x1="108.766" y1="233.125" x2="98.624" y2="240.054" stroke="#8c8c8c" stroke-width="0.3" stroke-dasharray="1.2,0.8"/>
<line x1="108.766" y1="233.125" x2="104.301" y2="244.568" stroke="#8c8c8c" stroke-width="0.3" stroke-dasharray="1.2,0.8"/>
<line x1="98.624" y1="240.054" x2="96.482" y2="233.125" stroke="#8c8c8c" stroke-width="0.3" stroke-dasharray="1.2,0.8"/>
<line x1="96.482" y1="233.125" x2="98.624" y2="226.195" stroke="#8c8c8c" stroke-width="0.3" stroke-dasharray="1.2,0.8"/>
<line x1="104.301" y1="244.568" x2="98.624" y2="240.054" stroke="#8c8c8c" stroke-width="0.3" stroke-dasharray="1.2,0.8"/>
<line x1="111.534" y1="245.093" x2="104.301" y2="244.568" stroke="#8c8c8c" stroke-width="0.3" stroke-dasharray="1.2,0.8"/>
<line x1="111.534" y1="245.093" x2="108.766" y2="233.125" stroke="#8c8c8c" stroke-width="0.3" stroke-dasharray="1.2,0.8"/>
<line x1="86.34" y1="240.054" x2="96.482" y2="233.125" stroke="#8c8c8c" stroke-width="0.3" stroke-dasharray="1.2,0.8"/>
<line x1="98.624" y1="240.054" x2="86.34" y2="240.054" stroke="#8c8c8c" stroke-width="0.3" stroke-dasharray="1.2,0.8"/>
<line x1="104.301" y1="244.568" x2="94.158" y2="251.498" stroke="#8c8c8c" stroke-width="0.3" stroke-dasharray="1.2,0.8"/>
<line x1="111.534" y1="245.093" x2="107.069" y2="256.536" stroke="#8c8c8c" stroke-width="0.3" stroke-dasharray="1.2,0.8"/>
<line x1="98.624" y1="226.195" x2="108.766" y2="233.125" stroke="#141414" stroke-width="0.4"/>
<line x1="96.482" y1="233.125" x2="86.34" y2="226.195" stroke="#141414" stroke-width="0.4"/>
<line x1="94.158" y1="251.498" x2="98.624" y2="240.054" stroke="#141414" stroke-width="0.4"/>
<line x1="107.069" y1="256.536" x2="104.301" y2="244.568" stroke="#141414" stroke-width="0.4"/>
<line x1="86.34" y1="226.195" x2="98.624" y2="226.195" stroke="#141414" stroke-width="0.4"/>
<line x1="108.766" y1="233.125" x2="114.637" y2="233.658" stroke="#141414" stroke-width="0.4"/>
<line x1="114.637" y1="233.658" x2="116.575" y2="242.036" stroke="#141414" stroke-width="0.4"/>
<line x1="116.575" y1="242.036" x2="111.534" y2="245.093" stroke="#141414" stroke-width="0.4"/>
<line x1="96.482" y1="233.125" x2="90.281" y2="230.58" stroke="#141414" stroke-width="0.4"/>
<line x1="90.281" y1="230.58" x2="86.223" y2="233.352" stroke="#141414" stroke-width="0.4"/>
<line x1="86.223" y1="233.352" x2="86.34" y2="240.054" stroke="#141414" stroke-width="0.4"/>
<line x1="86.34" y1="240.054" x2="90.025" y2="245.654" stroke="#141414" stroke-width="0.4"/>
<line x1="90.025" y1="245.654" x2="94.938" y2="245.654" stroke="#141414" stroke-width="0.4"/>
<line x1="94.938" y1="245.654" x2="98.624" y2="240.054" stroke="#141414" stroke-width="0.4"/>
<line x1="94.158" y1="251.498" x2="100.36" y2="254.043" stroke="#141414" stroke-width="0.4"/>
<line x1="100.36" y1="254.043" x2="104.417" y2="251.271" stroke="#141414" stroke-width="0.4"/>
<line x1="104.417" y1="251.271" x2="104.301" y2="244.568" stroke="#141414" stroke-width="0.4"/>
<line x1="107.069" y1="256.536" x2="112.955" y2="256.856" stroke="#141414" stroke-width="0.4"/>
<line x1="112.955" y1="256.856" x2="116.081" y2="248.845" stroke="#141414" stroke-width="0.4"/>
<line x1="116.081" y1="248.845" x2="111.534" y2="245.093" stroke="#141414" stroke-width="0.4"/>
<circle cx="112.878" cy="238.478" r="2.46" fill="#99d9fa" stroke="#464646" stroke-width="0.2"/>
<text x="112.878" y="239.65" font-size="3.34" text-anchor="middle" fill="#141414">39</text>
<circle cx="89.832" cy="234.278" r="2.46" fill="#ffe082" stroke="#464646" stroke-width="0.2"/>
<text x="89.832" y="235.45" font-size="3.34" text-anchor="middle" fill="#141414">40</text>
<circle cx="92.482" cy="242.854" r="2.46" fill="#ffe082" stroke="#464646" stroke-width="0.2"/>
<text x="92.482" y="244.02" font-size="3.34" text-anchor="middle" fill="#141414">41</text>
<circle cx="100.809" cy="250.345" r="2.46" fill="#ffe082" stroke="#464646" stroke-width="0.2"/>
<text x="100.809" y="251.52" font-size="3.34" text-anchor="middle" fill="#141414">42</text>
<circle cx="111.91" cy="251.832" r="2.46" fill="#ffe082" stroke="#464646" stroke-width="0.2"/>
<text x="111.91" y="253.00" font-size="3.34" text-anchor="middle" fill="#141414">43</text>
<circle cx="108.2" cy="240.929" r="1.85" fill="#eaf1fe" stroke="#2e78e6" stroke-width="0.3"/>
<text x="108.2" y="241.65" font-size="2.60" text-anchor="middle" fill="#14306e" font-weight="bold">6</text>
<text x="205.0" y="295.0" font-size="3.2" text-anchor="end" fill="#737373" font-family="sans-serif">1 / 3</text>
<g pointer-events="none"><text x="105.0" y="83.2" text-anchor="middle" font-family="sans-serif" font-size="12.4" fill="#9aa0a6" fill-opacity="0.3" transform="rotate(-28 105.0 83.2)">papercraft.kr</text><text x="105.0" y="148.5" text-anchor="middle" font-family="sans-serif" font-size="12.4" fill="#9aa0a6" fill-opacity="0.3" transform="rotate(-28 105.0 148.5)">papercraft.kr</text><text x="105.0" y="213.8" text-anchor="middle" font-family="sans-serif" font-size="12.4" fill="#9aa0a6" fill-opacity="0.3" transform="rotate(-28 105.0 213.8)">papercraft.kr</text></g></svg>
