<svg xmlns="http://www.w3.org/2000/svg" xmlns:xlink="http://www.w3.org/1999/xlink" width="210.00mm" height="297.00mm" viewBox="0 0 210.00 297.00">
<rect x="0" y="0" width="210.00" height="297.00" fill="#ffffff" stroke="#cccccc" stroke-width="0.2"/>
<polygon points="111.849,66.106 111.048,51.636 113.145,47.281 124.957,38.886" fill="rgb(216,216,216)"/>
<polygon points="58.075,92.002 46.263,83.607 44.165,79.251 44.967,64.782" fill="rgb(216,216,216)"/>
<polygon points="124.957,93.326 135.771,102.974 140.483,104.05 154.412,100.049" fill="rgb(216,216,216)"/>
<polygon points="71.184,119.222 70.383,133.692 72.48,138.047 84.292,146.442" fill="rgb(216,216,216)"/>
<polygon points="154.412,100.049 162.319,102.697 178.854,89.51 178.033,81.212" fill="rgb(216,216,216)"/>
<polygon points="84.292,146.442 79.952,153.563 89.127,172.616 97.401,173.662" fill="rgb(216,216,216)"/>
<polygon points="178.033,81.212 185.033,76.68 185.033,55.532 178.033,51.0" fill="rgb(216,216,216)"/>
<polygon points="97.401,173.662 93.06,180.782 102.236,199.837 110.509,200.883" fill="rgb(216,216,216)"/>
<polygon points="178.033,51.0 178.854,42.702 162.32,29.516 154.412,32.163" fill="rgb(216,216,216)"/>
<polygon points="110.509,200.883 106.169,208.003 115.345,227.057 123.618,228.102" fill="rgb(216,216,216)"/>
<polygon points="154.412,32.163 148.436,26.347 127.818,31.053 124.957,38.886" fill="rgb(216,216,216)"/>
<polygon points="123.618,228.102 119.277,235.223 128.453,254.277 136.726,255.323" fill="rgb(216,216,216)"/>
<polygon points="190.5,229.427 185.471,239.618 147.829,257.745 136.726,255.323" fill="rgb(216,216,216)"/>
<polygon points="178.033,81.212 185.033,76.68 185.033,55.532 178.033,51.0" fill="#99d9fa"/>
<line x1="58.075" y1="92.002" x2="111.849" y2="66.106" stroke="#8c8c8c" stroke-width="0.3" stroke-dasharray="1.2,0.8"/>
<line x1="124.958" y1="93.326" x2="111.849" y2="66.106" stroke="#8c8c8c" stroke-width="0.3" stroke-dasharray="1.2,0.8"/>
<line x1="71.184" y1="119.222" x2="58.075" y2="92.002" stroke="#8c8c8c" stroke-width="0.3" stroke-dasharray="1.2,0.8"/>
<line x1="124.958" y1="93.326" x2="71.184" y2="119.222" stroke="#8c8c8c" stroke-width="0.3" stroke-dasharray="1.2,0.8"/>
<line x1="138.066" y1="120.546" x2="84.292" y2="146.442" stroke="#8c8c8c" stroke-width="0.3" stroke-dasharray="1.2,0.8"/>
<line x1="151.174" y1="147.766" x2="97.401" y2="173.662" stroke="#8c8c8c" stroke-width="0.3" stroke-dasharray="1.2,0.8"/>
<line x1="164.283" y1="174.987" x2="110.509" y2="200.883" stroke="#8c8c8c" stroke-width="0.3" stroke-dasharray="1.2,0.8"/>
<line x1="177.392" y1="202.207" x2="123.618" y2="228.102" stroke="#8c8c8c" stroke-width="0.3" stroke-dasharray="1.2,0.8"/>
<line x1="124.957" y1="38.886" x2="111.849" y2="66.106" stroke="#8c8c8c" stroke-width="0.3" stroke-dasharray="1.2,0.8"/>
<line x1="44.967" y1="64.782" x2="58.075" y2="92.002" stroke="#8c8c8c" stroke-width="0.3" stroke-dasharray="1.2,0.8"/>
<line x1="154.412" y1="100.049" x2="124.957" y2="93.326" stroke="#8c8c8c" stroke-width="0.3" stroke-dasharray="1.2,0.8"/>
<line x1="84.292" y1="146.442" x2="71.184" y2="119.222" stroke="#8c8c8c" stroke-width="0.3" stroke-dasharray="1.2,0.8"/>
<line x1="178.033" y1="81.212" x2="154.412" y2="100.049" stroke="#8c8c8c" stroke-width="0.3" stroke-dasharray="1.2,0.8"/>
<line x1="97.401" y1="173.662" x2="84.292" y2="146.442" stroke="#8c8c8c" stroke-width="0.3" stroke-dasharray="1.2,0.8"/>
<line x1="178.033" y1="51.0" x2="178.033" y2="81.212" stroke="#8c8c8c" stroke-width="0.3" stroke-dasharray="1.2,0.8"/>
<line x1="110.509" y1="200.883" x2="97.401" y2="173.662" stroke="#8c8c8c" stroke-width="0.3" stroke-dasharray="1.2,0.8"/>
<line x1="154.412" y1="32.163" x2="178.033" y2="51.0" stroke="#8c8c8c" stroke-width="0.3" stroke-dasharray="1.2,0.8"/>
<line x1="123.618" y1="228.102" x2="110.509" y2="200.883" stroke="#8c8c8c" stroke-width="0.3" stroke-dasharray="1.2,0.8"/>
<line x1="124.957" y1="38.886" x2="154.412" y2="32.163" stroke="#8c8c8c" stroke-width="0.3" stroke-dasharray="1.2,0.8"/>
<line x1="136.726" y1="255.323" x2="123.618" y2="228.102" stroke="#8c8c8c" stroke-width="0.3" stroke-dasharray="1.2,0.8"/>
<line x1="136.726" y1="255.323" x2="190.5" y2="229.427" stroke="#8c8c8c" stroke-width="0.3" stroke-dasharray="1.2,0.8"/>
<line x1="98.74" y1="38.886" x2="111.849" y2="66.106" stroke="#141414" stroke-width="0.4"/>
<line x1="28.621" y1="85.279" x2="58.075" y2="92.002" stroke="#141414" stroke-width="0.4"/>
<line x1="124.958" y1="93.326" x2="138.066" y2="120.546" stroke="#141414" stroke-width="0.4"/>
<line x1="71.184" y1="119.222" x2="58.075" y2="146.442" stroke="#141414" stroke-width="0.4"/>
<line x1="138.066" y1="120.546" x2="151.174" y2="147.766" stroke="#141414" stroke-width="0.4"/>
<line x1="58.075" y1="146.442" x2="28.621" y2="153.165" stroke="#141414" stroke-width="0.4"/>
<line x1="151.174" y1="147.766" x2="164.283" y2="174.987" stroke="#141414" stroke-width="0.4"/>
<line x1="28.621" y1="153.165" x2="5.0" y2="134.328" stroke="#141414" stroke-width="0.4"/>
<line x1="164.283" y1="174.987" x2="177.392" y2="202.207" stroke="#141414" stroke-width="0.4"/>
<line x1="5.0" y1="134.328" x2="5.0" y2="104.116" stroke="#141414" stroke-width="0.4"/>
<line x1="177.392" y1="202.207" x2="190.5" y2="229.427" stroke="#141414" stroke-width="0.4"/>
<line x1="5.0" y1="104.116" x2="28.621" y2="85.279" stroke="#141414" stroke-width="0.4"/>
<line x1="44.967" y1="64.782" x2="98.74" y2="38.886" stroke="#141414" stroke-width="0.4"/>
<line x1="111.849" y1="66.106" x2="111.048" y2="51.636" stroke="#141414" stroke-width="0.4"/>
<line x1="111.048" y1="51.636" x2="113.145" y2="47.281" stroke="#141414" stroke-width="0.4"/>
<line x1="113.145" y1="47.281" x2="124.957" y2="38.886" stroke="#141414" stroke-width="0.4"/>
<line x1="58.075" y1="92.002" x2="46.263" y2="83.607" stroke="#141414" stroke-width="0.4"/>
<line x1="46.263" y1="83.607" x2="44.165" y2="79.251" stroke="#141414" stroke-width="0.4"/>
<line x1="44.165" y1="79.251" x2="44.967" y2="64.782" stroke="#141414" stroke-width="0.4"/>
<line x1="124.957" y1="93.326" x2="135.771" y2="102.974" stroke="#141414" stroke-width="0.4"/>
<line x1="135.771" y1="102.974" x2="140.483" y2="104.05" stroke="#141414" stroke-width="0.4"/>
<line x1="140.483" y1="104.05" x2="154.412" y2="100.049" stroke="#141414" stroke-width="0.4"/>
<line x1="71.184" y1="119.222" x2="70.383" y2="133.692" stroke="#141414" stroke-width="0.4"/>
<line x1="70.383" y1="133.692" x2="72.48" y2="138.047" stroke="#141414" stroke-width="0.4"/>
<line x1="72.48" y1="138.047" x2="84.292" y2="146.442" stroke="#141414" stroke-width="0.4"/>
<line x1="154.412" y1="100.049" x2="162.319" y2="102.697" stroke="#141414" stroke-width="0.4"/>
<line x1="162.319" y1="102.697" x2="178.854" y2="89.51" stroke="#141414" stroke-width="0.4"/>
<line x1="178.854" y1="89.51" x2="178.033" y2="81.212" stroke="#141414" stroke-width="0.4"/>
<line x1="84.292" y1="146.442" x2="79.952" y2="153.563" stroke="#141414" stroke-width="0.4"/>
<line x1="79.952" y1="153.563" x2="89.127" y2="172.616" stroke="#141414" stroke-width="0.4"/>
<line x1="89.127" y1="172.616" x2="97.401" y2="173.662" stroke="#141414" stroke-width="0.4"/>
<line x1="178.033" y1="81.212" x2="185.033" y2="76.68" stroke="#141414" stroke-width="0.4"/>
<line x1="185.033" y1="76.68" x2="185.033" y2="55.532" stroke="#141414" stroke-width="0.4"/>
<line x1="185.033" y1="55.532" x2="178.033" y2="51.0" stroke="#141414" stroke-width="0.4"/>
<line x1="97.401" y1="173.662" x2="93.06" y2="180.782" stroke="#141414" stroke-width="0.4"/>
<line x1="93.06" y1="180.782" x2="102.236" y2="199.837" stroke="#141414" stroke-width="0.4"/>
<line x1="102.236" y1="199.837" x2="110.509" y2="200.883" stroke="#141414" stroke-width="0.4"/>
<line x1="178.033" y1="51.0" x2="178.854" y2="42.702" stroke="#141414" stroke-width="0.4"/>
<line x1="178.854" y1="42.702" x2="162.32" y2="29.516" stroke="#141414" stroke-width="0.4"/>
<line x1="162.32" y1="29.516" x2="154.412" y2="32.163" stroke="#141414" stroke-width="0.4"/>
<line x1="110.509" y1="200.883" x2="106.169" y2="208.003" stroke="#141414" stroke-width="0.4"/>
<line x1="106.169" y1="208.003" x2="115.345" y2="227.057" stroke="#141414" stroke-width="0.4"/>
<line x1="115.345" y1="227.057" x2="123.618" y2="228.102" stroke="#141414" stroke-width="0.4"/>
<line x1="154.412" y1="32.163" x2="148.436" y2="26.347" stroke="#141414" stroke-width="0.4"/>
<line x1="148.436" y1="26.347" x2="127.818" y2="31.053" stroke="#141414" stroke-width="0.4"/>
<line x1="127.818" y1="31.053" x2="124.957" y2="38.886" stroke="#141414" stroke-width="0.4"/>
<line x1="123.618" y1="228.102" x2="119.277" y2="235.223" stroke="#141414" stroke-width="0.4"/>
<line x1="119.277" y1="235.223" x2="128.453" y2="254.277" stroke="#141414" stroke-width="0.4"/>
<line x1="128.453" y1="254.277" x2="136.726" y2="255.323" stroke="#141414" stroke-width="0.4"/>
<line x1="190.5" y1="229.427" x2="185.471" y2="239.618" stroke="#141414" stroke-width="0.4"/>
<line x1="185.471" y1="239.618" x2="147.829" y2="257.745" stroke="#141414" stroke-width="0.4"/>
<line x1="147.829" y1="257.745" x2="136.726" y2="255.323" stroke="#141414" stroke-width="0.4"/>
<circle cx="115.25" cy="50.977" r="3.07" fill="#ffe082" stroke="#464646" stroke-width="0.2"/>
<text x="115.25" y="52.03" font-size="3.01" text-anchor="middle" fill="#141414">122</text>
<circle cx="48.367" cy="79.91" r="3.07" fill="#ffe082" stroke="#464646" stroke-width="0.2"/>
<text x="48.367" y="80.96" font-size="3.01" text-anchor="middle" fill="#141414">123</text>
<circle cx="138.906" cy="100.1" r="3.07" fill="#ffe082" stroke="#464646" stroke-width="0.2"/>
<text x="138.906" y="101.15" font-size="3.01" text-anchor="middle" fill="#141414">124</text>
<circle cx="74.585" cy="134.351" r="3.07" fill="#ffe082" stroke="#464646" stroke-width="0.2"/>
<text x="74.585" y="135.40" font-size="3.01" text-anchor="middle" fill="#141414">125</text>
<circle cx="168.405" cy="93.367" r="3.07" fill="#ffe082" stroke="#464646" stroke-width="0.2"/>
<text x="168.405" y="94.42" font-size="3.01" text-anchor="middle" fill="#141414">126</text>
<circle cx="87.693" cy="161.571" r="3.07" fill="#ffe082" stroke="#464646" stroke-width="0.2"/>
<text x="87.693" y="162.62" font-size="3.01" text-anchor="middle" fill="#141414">127</text>
<circle cx="181.533" cy="66.106" r="3.07" fill="#99d9fa" stroke="#464646" stroke-width="0.2"/>
<text x="181.533" y="67.16" font-size="3.01" text-anchor="middle" fill="#141414">128</text>
<circle cx="100.802" cy="188.791" r="3.07" fill="#ffe082" stroke="#464646" stroke-width="0.2"/>
<text x="100.802" y="189.84" font-size="3.01" text-anchor="middle" fill="#141414">129</text>
<circle cx="168.405" cy="38.845" r="3.07" fill="#ffe082" stroke="#464646" stroke-width="0.2"/>
<text x="168.405" y="39.90" font-size="3.01" text-anchor="middle" fill="#141414">130</text>
<circle cx="113.91" cy="216.011" r="3.07" fill="#ffe082" stroke="#464646" stroke-width="0.2"/>
<text x="113.91" y="217.06" font-size="3.01" text-anchor="middle" fill="#141414">131</text>
<circle cx="138.906" cy="32.112" r="3.07" fill="#ffe082" stroke="#464646" stroke-width="0.2"/>
<text x="138.906" y="33.16" font-size="3.01" text-anchor="middle" fill="#141414">132</text>
<circle cx="127.018" cy="243.231" r="3.07" fill="#ffe082" stroke="#464646" stroke-width="0.2"/>
<text x="127.018" y="244.28" font-size="3.01" text-anchor="middle" fill="#141414">133</text>
<circle cx="165.132" cy="245.528" r="3.07" fill="#ffe082" stroke="#464646" stroke-width="0.2"/>
<text x="165.132" y="246.58" font-size="3.01" text-anchor="middle" fill="#141414">134</text>
<circle cx="84.739" cy="101.517" r="4.60" fill="#eaf1fe" stroke="#2e78e6" stroke-width="0.3"/>
<text x="84.739" y="103.32" font-size="5.20" text-anchor="middle" fill="#14306e" font-weight="bold">12</text>
<text x="205.0" y="295.0" font-size="3.2" text-anchor="end" fill="#737373" font-family="sans-serif">12 / 13</text>
</svg>
