<svg xmlns="http://www.w3.org/2000/svg" xmlns:xlink="http://www.w3.org/1999/xlink" width="210.00mm" height="297.00mm" viewBox="0 0 210.00 297.00">
<rect x="0" y="0" width="210.00" height="297.00" fill="#ffffff" stroke="#cccccc" stroke-width="0.2"/>
<polygon points="125.296,157.416 131.784,149.755 169.649,88.65 166.662,86.961" fill="rgb(216,216,216)"/>
<polygon points="17.446,129.034 12.859,132.415 20.224,147.707 25.728,146.227" fill="rgb(216,216,216)"/>
<polygon points="17.446,129.034 12.859,125.653 20.228,110.361 25.731,111.841" fill="rgb(216,216,216)"/>
<polygon points="79.093,14.634 83.514,11.083 94.159,20.726 91.061,25.476" fill="rgb(216,216,216)"/>
<polygon points="25.728,146.227 25.511,151.922 42.064,155.699 44.338,150.474" fill="rgb(216,216,216)"/>
<polygon points="155.689,73.763 154.756,68.705 148.55,60.202 142.166,64.928" fill="rgb(216,216,216)"/>
<polygon points="44.338,150.474 48.654,154.195 61.93,143.613 59.265,138.576" fill="rgb(216,216,216)"/>
<polygon points="142.166,64.928 144.644,59.828 132.873,51.593 128.932,55.67" fill="rgb(216,216,216)"/>
<polygon points="59.265,138.576 62.46,137.178 65.656,126.685 59.267,119.493" fill="rgb(216,216,216)"/>
<polygon points="128.932,55.67 131.569,50.65 120.065,42.052 115.998,46.004" fill="rgb(216,216,216)"/>
<polygon points="115.998,46.004 118.79,41.068 107.559,32.114 103.37,35.936" fill="rgb(216,216,216)"/>
<polygon points="44.343,107.595 39.431,104.899 27.252,103.862 25.731,111.841" fill="rgb(216,216,216)"/>
<polygon points="103.37,35.936 106.315,31.091 95.368,21.787 91.061,25.476" fill="rgb(216,216,216)"/>
<polygon points="17.446,129.034 12.859,125.653 20.228,110.361 25.731,111.841" fill="#99d9fa"/>
<line x1="155.689" y1="73.763" x2="169.483" y2="82.158" stroke="#8c8c8c" stroke-width="0.3" stroke-dasharray="1.2,0.8"/>
<line x1="106.174" y1="152.299" x2="155.689" y2="73.763" stroke="#8c8c8c" stroke-width="0.3" stroke-dasharray="1.2,0.8"/>
<line x1="90.193" y1="141.858" x2="142.166" y2="64.928" stroke="#8c8c8c" stroke-width="0.3" stroke-dasharray="1.2,0.8"/>
<line x1="74.552" y1="130.917" x2="128.931" y2="55.67" stroke="#8c8c8c" stroke-width="0.3" stroke-dasharray="1.2,0.8"/>
<line x1="59.267" y1="119.493" x2="115.998" y2="46.004" stroke="#8c8c8c" stroke-width="0.3" stroke-dasharray="1.2,0.8"/>
<line x1="44.343" y1="107.595" x2="59.267" y2="119.493" stroke="#8c8c8c" stroke-width="0.3" stroke-dasharray="1.2,0.8"/>
<line x1="44.343" y1="107.595" x2="103.37" y2="35.936" stroke="#8c8c8c" stroke-width="0.3" stroke-dasharray="1.2,0.8"/>
<line x1="29.796" y1="95.233" x2="91.061" y2="25.476" stroke="#8c8c8c" stroke-width="0.3" stroke-dasharray="1.2,0.8"/>
<line x1="166.662" y1="86.961" x2="125.296" y2="157.416" stroke="#8c8c8c" stroke-width="0.3" stroke-dasharray="1.2,0.8"/>
<line x1="25.728" y1="146.227" x2="17.446" y2="129.034" stroke="#8c8c8c" stroke-width="0.3" stroke-dasharray="1.2,0.8"/>
<line x1="25.731" y1="111.841" x2="17.446" y2="129.034" stroke="#8c8c8c" stroke-width="0.3" stroke-dasharray="1.2,0.8"/>
<line x1="91.061" y1="25.476" x2="79.093" y2="14.634" stroke="#8c8c8c" stroke-width="0.3" stroke-dasharray="1.2,0.8"/>
<line x1="44.338" y1="150.474" x2="25.728" y2="146.227" stroke="#8c8c8c" stroke-width="0.3" stroke-dasharray="1.2,0.8"/>
<line x1="142.166" y1="64.928" x2="155.689" y2="73.763" stroke="#8c8c8c" stroke-width="0.3" stroke-dasharray="1.2,0.8"/>
<line x1="59.265" y1="138.576" x2="44.338" y2="150.474" stroke="#8c8c8c" stroke-width="0.3" stroke-dasharray="1.2,0.8"/>
<line x1="128.932" y1="55.67" x2="142.166" y2="64.928" stroke="#8c8c8c" stroke-width="0.3" stroke-dasharray="1.2,0.8"/>
<line x1="59.267" y1="119.493" x2="59.265" y2="138.576" stroke="#8c8c8c" stroke-width="0.3" stroke-dasharray="1.2,0.8"/>
<line x1="115.998" y1="46.004" x2="128.932" y2="55.67" stroke="#8c8c8c" stroke-width="0.3" stroke-dasharray="1.2,0.8"/>
<line x1="103.37" y1="35.936" x2="115.998" y2="46.004" stroke="#8c8c8c" stroke-width="0.3" stroke-dasharray="1.2,0.8"/>
<line x1="25.731" y1="111.841" x2="44.343" y2="107.595" stroke="#8c8c8c" stroke-width="0.3" stroke-dasharray="1.2,0.8"/>
<line x1="91.061" y1="25.476" x2="103.37" y2="35.936" stroke="#8c8c8c" stroke-width="0.3" stroke-dasharray="1.2,0.8"/>
<line x1="169.483" y1="82.158" x2="166.662" y2="86.961" stroke="#141414" stroke-width="0.4"/>
<line x1="125.297" y1="157.416" x2="122.476" y2="162.22" stroke="#141414" stroke-width="0.4"/>
<line x1="15.652" y1="82.419" x2="79.093" y2="14.633" stroke="#141414" stroke-width="0.4"/>
<line x1="122.476" y1="162.22" x2="106.174" y2="152.299" stroke="#141414" stroke-width="0.4"/>
<line x1="29.796" y1="95.233" x2="15.652" y2="82.419" stroke="#141414" stroke-width="0.4"/>
<line x1="184.646" y1="76.602" x2="169.483" y2="82.158" stroke="#141414" stroke-width="0.4"/>
<line x1="106.174" y1="152.299" x2="90.193" y2="141.858" stroke="#141414" stroke-width="0.4"/>
<line x1="155.689" y1="73.763" x2="153.651" y2="57.739" stroke="#141414" stroke-width="0.4"/>
<line x1="90.193" y1="141.858" x2="74.552" y2="130.917" stroke="#141414" stroke-width="0.4"/>
<line x1="153.651" y1="57.739" x2="164.904" y2="46.153" stroke="#141414" stroke-width="0.4"/>
<line x1="74.552" y1="130.917" x2="59.267" y2="119.493" stroke="#141414" stroke-width="0.4"/>
<line x1="164.904" y1="46.153" x2="180.974" y2="47.729" stroke="#141414" stroke-width="0.4"/>
<line x1="180.974" y1="47.729" x2="189.76" y2="61.28" stroke="#141414" stroke-width="0.4"/>
<line x1="44.343" y1="107.595" x2="29.796" y2="95.233" stroke="#141414" stroke-width="0.4"/>
<line x1="189.76" y1="61.28" x2="184.646" y2="76.602" stroke="#141414" stroke-width="0.4"/>
<line x1="125.296" y1="157.416" x2="131.784" y2="149.755" stroke="#141414" stroke-width="0.4"/>
<line x1="131.784" y1="149.755" x2="169.649" y2="88.65" stroke="#141414" stroke-width="0.4"/>
<line x1="169.649" y1="88.65" x2="166.662" y2="86.961" stroke="#141414" stroke-width="0.4"/>
<line x1="17.446" y1="129.034" x2="12.859" y2="132.415" stroke="#141414" stroke-width="0.4"/>
<line x1="12.859" y1="132.415" x2="20.224" y2="147.707" stroke="#141414" stroke-width="0.4"/>
<line x1="20.224" y1="147.707" x2="25.728" y2="146.227" stroke="#141414" stroke-width="0.4"/>
<line x1="17.446" y1="129.034" x2="12.859" y2="125.653" stroke="#141414" stroke-width="0.4"/>
<line x1="12.859" y1="125.653" x2="20.228" y2="110.361" stroke="#141414" stroke-width="0.4"/>
<line x1="20.228" y1="110.361" x2="25.731" y2="111.841" stroke="#141414" stroke-width="0.4"/>
<line x1="79.093" y1="14.634" x2="83.514" y2="11.083" stroke="#141414" stroke-width="0.4"/>
<line x1="83.514" y1="11.083" x2="94.159" y2="20.726" stroke="#141414" stroke-width="0.4"/>
<line x1="94.159" y1="20.726" x2="91.061" y2="25.476" stroke="#141414" stroke-width="0.4"/>
<line x1="25.728" y1="146.227" x2="25.511" y2="151.922" stroke="#141414" stroke-width="0.4"/>
<line x1="25.511" y1="151.922" x2="42.064" y2="155.699" stroke="#141414" stroke-width="0.4"/>
<line x1="42.064" y1="155.699" x2="44.338" y2="150.474" stroke="#141414" stroke-width="0.4"/>
<line x1="155.689" y1="73.763" x2="154.756" y2="68.705" stroke="#141414" stroke-width="0.4"/>
<line x1="154.756" y1="68.705" x2="148.55" y2="60.202" stroke="#141414" stroke-width="0.4"/>
<line x1="148.55" y1="60.202" x2="142.166" y2="64.928" stroke="#141414" stroke-width="0.4"/>
<line x1="44.338" y1="150.474" x2="48.654" y2="154.195" stroke="#141414" stroke-width="0.4"/>
<line x1="48.654" y1="154.195" x2="61.93" y2="143.613" stroke="#141414" stroke-width="0.4"/>
<line x1="61.93" y1="143.613" x2="59.265" y2="138.576" stroke="#141414" stroke-width="0.4"/>
<line x1="142.166" y1="64.928" x2="144.644" y2="59.828" stroke="#141414" stroke-width="0.4"/>
<line x1="144.644" y1="59.828" x2="132.873" y2="51.593" stroke="#141414" stroke-width="0.4"/>
<line x1="132.873" y1="51.593" x2="128.932" y2="55.67" stroke="#141414" stroke-width="0.4"/>
<line x1="59.265" y1="138.576" x2="62.46" y2="137.178" stroke="#141414" stroke-width="0.4"/>
<line x1="62.46" y1="137.178" x2="65.656" y2="126.685" stroke="#141414" stroke-width="0.4"/>
<line x1="65.656" y1="126.685" x2="59.267" y2="119.493" stroke="#141414" stroke-width="0.4"/>
<line x1="128.932" y1="55.67" x2="131.569" y2="50.65" stroke="#141414" stroke-width="0.4"/>
<line x1="131.569" y1="50.65" x2="120.065" y2="42.052" stroke="#141414" stroke-width="0.4"/>
<line x1="120.065" y1="42.052" x2="115.998" y2="46.004" stroke="#141414" stroke-width="0.4"/>
<line x1="115.998" y1="46.004" x2="118.79" y2="41.068" stroke="#141414" stroke-width="0.4"/>
<line x1="118.79" y1="41.068" x2="107.559" y2="32.114" stroke="#141414" stroke-width="0.4"/>
<line x1="107.559" y1="32.114" x2="103.37" y2="35.936" stroke="#141414" stroke-width="0.4"/>
<line x1="44.343" y1="107.595" x2="39.431" y2="104.899" stroke="#141414" stroke-width="0.4"/>
<line x1="39.431" y1="104.899" x2="27.252" y2="103.862" stroke="#141414" stroke-width="0.4"/>
<line x1="27.252" y1="103.862" x2="25.731" y2="111.841" stroke="#141414" stroke-width="0.4"/>
<line x1="103.37" y1="35.936" x2="106.315" y2="31.091" stroke="#141414" stroke-width="0.4"/>
<line x1="106.315" y1="31.091" x2="95.368" y2="21.787" stroke="#141414" stroke-width="0.4"/>
<line x1="95.368" y1="21.787" x2="91.061" y2="25.476" stroke="#141414" stroke-width="0.4"/>
<circle cx="19.064" cy="138.846" r="2.22" fill="#ffe082" stroke="#464646" stroke-width="0.2"/>
<text x="19.064" y="139.61" font-size="2.18" text-anchor="middle" fill="#141414">103</text>
<circle cx="19.066" cy="119.222" r="2.22" fill="#99d9fa" stroke="#464646" stroke-width="0.2"/>
<text x="19.066" y="119.98" font-size="2.18" text-anchor="middle" fill="#141414">104</text>
<circle cx="86.957" cy="17.98" r="2.22" fill="#ffe082" stroke="#464646" stroke-width="0.2"/>
<text x="86.957" y="18.74" font-size="2.18" text-anchor="middle" fill="#141414">105</text>
<circle cx="34.41" cy="151.08" r="2.22" fill="#ffe082" stroke="#464646" stroke-width="0.2"/>
<text x="34.41" y="151.84" font-size="2.18" text-anchor="middle" fill="#141414">106</text>
<circle cx="150.29" cy="66.9" r="2.22" fill="#ffe082" stroke="#464646" stroke-width="0.2"/>
<text x="150.29" y="67.66" font-size="2.18" text-anchor="middle" fill="#141414">107</text>
<circle cx="53.547" cy="146.714" r="2.22" fill="#ffe082" stroke="#464646" stroke-width="0.2"/>
<text x="53.547" y="147.48" font-size="2.18" text-anchor="middle" fill="#141414">108</text>
<circle cx="137.154" cy="58.005" r="2.22" fill="#ffe082" stroke="#464646" stroke-width="0.2"/>
<text x="137.154" y="58.77" font-size="2.18" text-anchor="middle" fill="#141414">109</text>
<circle cx="61.662" cy="130.483" r="2.22" fill="#ffe082" stroke="#464646" stroke-width="0.2"/>
<text x="61.662" y="131.25" font-size="2.18" text-anchor="middle" fill="#141414">110</text>
<circle cx="124.141" cy="48.594" r="2.22" fill="#ffe082" stroke="#464646" stroke-width="0.2"/>
<text x="124.141" y="49.36" font-size="2.18" text-anchor="middle" fill="#141414">111</text>
<circle cx="111.429" cy="38.781" r="2.22" fill="#ffe082" stroke="#464646" stroke-width="0.2"/>
<text x="111.429" y="39.54" font-size="2.18" text-anchor="middle" fill="#141414">112</text>
<circle cx="34.189" cy="107.049" r="2.22" fill="#ffe082" stroke="#464646" stroke-width="0.2"/>
<text x="34.189" y="107.81" font-size="2.18" text-anchor="middle" fill="#141414">113</text>
<circle cx="99.028" cy="28.572" r="2.22" fill="#ffe082" stroke="#464646" stroke-width="0.2"/>
<text x="99.028" y="29.33" font-size="2.18" text-anchor="middle" fill="#141414">114</text>
<circle cx="59.169" cy="79.588" r="4.60" fill="#eaf1fe" stroke="#2e78e6" stroke-width="0.3"/>
<text x="59.169" y="81.39" font-size="5.20" text-anchor="middle" fill="#14306e" font-weight="bold">10</text>
<text x="205.0" y="295.0" font-size="3.2" text-anchor="end" fill="#737373" font-family="sans-serif">6 / 11</text>
<g pointer-events="none"><text x="105.0" y="83.2" text-anchor="middle" font-family="sans-serif" font-size="12.4" fill="#9aa0a6" fill-opacity="0.3" transform="rotate(-28 105.0 83.2)">papercraft.kr</text><text x="105.0" y="148.5" text-anchor="middle" font-family="sans-serif" font-size="12.4" fill="#9aa0a6" fill-opacity="0.3" transform="rotate(-28 105.0 148.5)">papercraft.kr</text><text x="105.0" y="213.8" text-anchor="middle" font-family="sans-serif" font-size="12.4" fill="#9aa0a6" fill-opacity="0.3" transform="rotate(-28 105.0 213.8)">papercraft.kr</text></g></svg>
