<svg xmlns="http://www.w3.org/2000/svg" xmlns:xlink="http://www.w3.org/1999/xlink" width="210.00mm" height="297.00mm" viewBox="0 0 210.00 297.00">
<rect x="0" y="0" width="210.00" height="297.00" fill="#ffffff" stroke="#cccccc" stroke-width="0.2"/>
<polygon points="5.0,86.102 9.609,80.502 22.122,80.502 26.731,86.102" fill="rgb(216,216,216)"/>
<polygon points="113.656,86.102 103.008,81.482 102.573,81.482 91.925,86.102" fill="rgb(216,216,216)"/>
<polygon points="91.925,86.102 87.316,80.502 74.803,80.502 70.194,86.102" fill="rgb(216,216,216)"/>
<polygon points="70.194,86.102 65.585,80.502 53.072,80.502 48.463,86.102" fill="rgb(216,216,216)"/>
<polygon points="48.463,86.102 43.853,80.502 31.34,80.502 26.731,86.102" fill="rgb(216,216,216)"/>
<polygon points="5.0,86.102 9.609,80.502 22.122,80.502 26.731,86.102" fill="#99d9fa"/>
<line x1="113.656" y1="86.102" x2="135.388" y2="86.102" stroke="#8c8c8c" stroke-width="0.3" stroke-dasharray="1.2,0.8"/>
<line x1="113.656" y1="93.726" x2="113.656" y2="86.102" stroke="#8c8c8c" stroke-width="0.3" stroke-dasharray="1.2,0.8"/>
<line x1="91.925" y1="93.726" x2="91.925" y2="86.102" stroke="#8c8c8c" stroke-width="0.3" stroke-dasharray="1.2,0.8"/>
<line x1="70.194" y1="93.726" x2="70.194" y2="86.102" stroke="#8c8c8c" stroke-width="0.3" stroke-dasharray="1.2,0.8"/>
<line x1="48.463" y1="93.726" x2="48.463" y2="86.102" stroke="#8c8c8c" stroke-width="0.3" stroke-dasharray="1.2,0.8"/>
<line x1="26.731" y1="93.726" x2="26.731" y2="86.102" stroke="#8c8c8c" stroke-width="0.3" stroke-dasharray="1.2,0.8"/>
<line x1="26.731" y1="86.102" x2="5.0" y2="86.102" stroke="#8c8c8c" stroke-width="0.3" stroke-dasharray="1.2,0.8"/>
<line x1="91.925" y1="86.102" x2="113.656" y2="86.102" stroke="#8c8c8c" stroke-width="0.3" stroke-dasharray="1.2,0.8"/>
<line x1="70.194" y1="86.102" x2="91.925" y2="86.102" stroke="#8c8c8c" stroke-width="0.3" stroke-dasharray="1.2,0.8"/>
<line x1="48.463" y1="86.102" x2="70.194" y2="86.102" stroke="#8c8c8c" stroke-width="0.3" stroke-dasharray="1.2,0.8"/>
<line x1="26.731" y1="86.102" x2="48.463" y2="86.102" stroke="#8c8c8c" stroke-width="0.3" stroke-dasharray="1.2,0.8"/>
<line x1="5.0" y1="93.726" x2="5.0" y2="86.102" stroke="#141414" stroke-width="0.4"/>
<line x1="26.731" y1="93.726" x2="5.0" y2="93.726" stroke="#141414" stroke-width="0.4"/>
<line x1="113.656" y1="5.0" x2="135.388" y2="5.0" stroke="#141414" stroke-width="0.4"/>
<line x1="94.837" y1="15.866" x2="113.656" y2="5.0" stroke="#141414" stroke-width="0.4"/>
<line x1="135.388" y1="5.0" x2="154.208" y2="15.866" stroke="#141414" stroke-width="0.4"/>
<line x1="154.208" y1="15.866" x2="165.073" y2="34.686" stroke="#141414" stroke-width="0.4"/>
<line x1="165.073" y1="34.686" x2="165.073" y2="56.417" stroke="#141414" stroke-width="0.4"/>
<line x1="165.073" y1="56.417" x2="154.208" y2="75.237" stroke="#141414" stroke-width="0.4"/>
<line x1="154.208" y1="75.237" x2="135.388" y2="86.102" stroke="#141414" stroke-width="0.4"/>
<line x1="135.388" y1="86.102" x2="135.388" y2="93.726" stroke="#141414" stroke-width="0.4"/>
<line x1="135.388" y1="93.726" x2="113.656" y2="93.726" stroke="#141414" stroke-width="0.4"/>
<line x1="113.656" y1="93.726" x2="91.925" y2="93.726" stroke="#141414" stroke-width="0.4"/>
<line x1="113.656" y1="86.102" x2="94.837" y2="75.237" stroke="#141414" stroke-width="0.4"/>
<line x1="91.925" y1="93.726" x2="70.194" y2="93.726" stroke="#141414" stroke-width="0.4"/>
<line x1="94.837" y1="75.237" x2="83.971" y2="56.417" stroke="#141414" stroke-width="0.4"/>
<line x1="70.194" y1="93.726" x2="48.463" y2="93.726" stroke="#141414" stroke-width="0.4"/>
<line x1="83.971" y1="56.417" x2="83.971" y2="34.686" stroke="#141414" stroke-width="0.4"/>
<line x1="48.463" y1="93.726" x2="26.731" y2="93.726" stroke="#141414" stroke-width="0.4"/>
<line x1="83.971" y1="34.686" x2="94.837" y2="15.866" stroke="#141414" stroke-width="0.4"/>
<line x1="5.0" y1="86.102" x2="9.609" y2="80.502" stroke="#141414" stroke-width="0.4"/>
<line x1="9.609" y1="80.502" x2="22.122" y2="80.502" stroke="#141414" stroke-width="0.4"/>
<line x1="22.122" y1="80.502" x2="26.731" y2="86.102" stroke="#141414" stroke-width="0.4"/>
<line x1="113.656" y1="86.102" x2="103.008" y2="81.482" stroke="#141414" stroke-width="0.4"/>
<line x1="103.008" y1="81.482" x2="102.573" y2="81.482" stroke="#141414" stroke-width="0.4"/>
<line x1="102.573" y1="81.482" x2="91.925" y2="86.102" stroke="#141414" stroke-width="0.4"/>
<line x1="91.925" y1="86.102" x2="87.316" y2="80.502" stroke="#141414" stroke-width="0.4"/>
<line x1="87.316" y1="80.502" x2="74.803" y2="80.502" stroke="#141414" stroke-width="0.4"/>
<line x1="74.803" y1="80.502" x2="70.194" y2="86.102" stroke="#141414" stroke-width="0.4"/>
<line x1="70.194" y1="86.102" x2="65.585" y2="80.502" stroke="#141414" stroke-width="0.4"/>
<line x1="65.585" y1="80.502" x2="53.072" y2="80.502" stroke="#141414" stroke-width="0.4"/>
<line x1="53.072" y1="80.502" x2="48.463" y2="86.102" stroke="#141414" stroke-width="0.4"/>
<line x1="48.463" y1="86.102" x2="43.853" y2="80.502" stroke="#141414" stroke-width="0.4"/>
<line x1="43.853" y1="80.502" x2="31.34" y2="80.502" stroke="#141414" stroke-width="0.4"/>
<line x1="31.34" y1="80.502" x2="26.731" y2="86.102" stroke="#141414" stroke-width="0.4"/>
<circle cx="15.866" cy="83.302" r="2.25" fill="#99d9fa" stroke="#464646" stroke-width="0.2"/>
<text x="15.866" y="84.07" font-size="2.20" text-anchor="middle" fill="#141414">76</text>
<circle cx="102.791" cy="83.792" r="2.25" fill="#ffe082" stroke="#464646" stroke-width="0.2"/>
<text x="102.791" y="84.56" font-size="2.20" text-anchor="middle" fill="#141414">77</text>
<circle cx="81.059" cy="83.302" r="2.25" fill="#ffe082" stroke="#464646" stroke-width="0.2"/>
<text x="81.059" y="84.07" font-size="2.20" text-anchor="middle" fill="#141414">78</text>
<circle cx="59.328" cy="83.302" r="2.25" fill="#ffe082" stroke="#464646" stroke-width="0.2"/>
<text x="59.328" y="84.07" font-size="2.20" text-anchor="middle" fill="#141414">79</text>
<circle cx="37.597" cy="83.302" r="2.25" fill="#ffe082" stroke="#464646" stroke-width="0.2"/>
<text x="37.597" y="84.07" font-size="2.20" text-anchor="middle" fill="#141414">80</text>
<circle cx="101.11" cy="32.034" r="4.60" fill="#eaf1fe" stroke="#2e78e6" stroke-width="0.3"/>
<text x="101.11" y="33.83" font-size="5.20" text-anchor="middle" fill="#14306e" font-weight="bold">7</text>
<polygon points="35.138,122.552 30.694,118.316 32.967,111.868 39.086,111.355" fill="rgb(216,216,216)"/>
<polygon points="88.946,275.173 83.146,277.756 76.732,272.768 77.808,266.51" fill="rgb(216,216,216)"/>
<polygon points="27.948,125.087 23.503,129.324 25.777,135.772 31.895,136.285" fill="rgb(216,216,216)"/>
<polygon points="27.948,125.087 21.829,124.574 19.556,118.127 24.0,113.89" fill="rgb(216,216,216)"/>
<polygon points="39.086,133.75 42.124,140.723 42.34,140.887 49.871,141.948" fill="rgb(216,216,216)"/>
<polygon points="31.895,136.285 27.569,140.857 30.163,148.214 36.4,149.062" fill="rgb(216,216,216)"/>
<polygon points="49.871,141.948 51.879,148.071 60.363,149.799 64.605,144.948" fill="rgb(216,216,216)"/>
<polygon points="36.4,149.062 32.179,153.931 35.058,162.097 41.4,163.242" fill="rgb(216,216,216)"/>
<polygon points="64.605,144.948 68.848,149.799 77.332,148.071 79.339,141.948" fill="rgb(216,216,216)"/>
<polygon points="41.4,163.242 37.179,168.112 40.057,176.278 46.399,177.423" fill="rgb(216,216,216)"/>
<polygon points="79.339,141.948 85.015,144.667 91.226,139.947 90.125,133.75" fill="rgb(216,216,216)"/>
<polygon points="46.399,177.423 42.073,181.995 44.667,189.352 50.904,190.2" fill="rgb(216,216,216)"/>
<polygon points="90.125,133.75 96.244,133.237 98.517,126.789 94.073,122.552" fill="rgb(216,216,216)"/>
<polygon points="50.904,190.2 48.481,197.223 48.56,197.447 54.852,201.398" fill="rgb(216,216,216)"/>
<polygon points="94.073,122.552 98.517,118.316 96.244,111.868 90.125,111.355" fill="rgb(216,216,216)"/>
<polygon points="90.125,111.355 91.226,105.157 85.015,100.438 79.339,103.157" fill="rgb(216,216,216)"/>
<polygon points="58.8,212.595 57.505,220.091 57.595,220.346 63.304,225.372" fill="rgb(216,216,216)"/>
<polygon points="79.339,103.157 77.332,97.034 68.848,95.306 64.605,100.157" fill="rgb(216,216,216)"/>
<polygon points="63.304,225.372 59.083,230.242 61.962,238.407 68.304,239.553" fill="rgb(216,216,216)"/>
<polygon points="64.605,100.157 60.363,95.306 51.879,97.034 49.871,103.157" fill="rgb(216,216,216)"/>
<polygon points="68.304,239.553 64.083,244.422 66.962,252.588 73.304,253.734" fill="rgb(216,216,216)"/>
<polygon points="49.871,103.157 44.195,100.438 37.985,105.157 39.086,111.355" fill="rgb(216,216,216)"/>
<polygon points="73.304,253.734 68.978,258.305 71.571,265.662 77.808,266.51" fill="rgb(216,216,216)"/>
<polygon points="35.138,122.552 30.694,118.316 32.967,111.868 39.086,111.355" fill="#99d9fa"/>
<line x1="27.948" y1="125.087" x2="35.138" y2="122.552" stroke="#8c8c8c" stroke-width="0.3" stroke-dasharray="1.2,0.8"/>
<line x1="39.086" y1="133.75" x2="35.138" y2="122.552" stroke="#8c8c8c" stroke-width="0.3" stroke-dasharray="1.2,0.8"/>
<line x1="39.086" y1="133.75" x2="31.895" y2="136.285" stroke="#8c8c8c" stroke-width="0.3" stroke-dasharray="1.2,0.8"/>
<line x1="43.59" y1="146.527" x2="36.4" y2="149.062" stroke="#8c8c8c" stroke-width="0.3" stroke-dasharray="1.2,0.8"/>
<line x1="48.59" y1="160.708" x2="41.4" y2="163.243" stroke="#8c8c8c" stroke-width="0.3" stroke-dasharray="1.2,0.8"/>
<line x1="53.589" y1="174.888" x2="46.399" y2="177.423" stroke="#8c8c8c" stroke-width="0.3" stroke-dasharray="1.2,0.8"/>
<line x1="58.094" y1="187.665" x2="50.904" y2="190.2" stroke="#8c8c8c" stroke-width="0.3" stroke-dasharray="1.2,0.8"/>
<line x1="62.042" y1="198.863" x2="54.852" y2="201.398" stroke="#8c8c8c" stroke-width="0.3" stroke-dasharray="1.2,0.8"/>
<line x1="58.8" y1="212.595" x2="54.852" y2="201.398" stroke="#8c8c8c" stroke-width="0.3" stroke-dasharray="1.2,0.8"/>
<line x1="65.99" y1="210.06" x2="58.8" y2="212.595" stroke="#8c8c8c" stroke-width="0.3" stroke-dasharray="1.2,0.8"/>
<line x1="70.494" y1="222.837" x2="63.304" y2="225.372" stroke="#8c8c8c" stroke-width="0.3" stroke-dasharray="1.2,0.8"/>
<line x1="75.494" y1="237.018" x2="68.304" y2="239.553" stroke="#8c8c8c" stroke-width="0.3" stroke-dasharray="1.2,0.8"/>
<line x1="80.494" y1="251.198" x2="73.303" y2="253.733" stroke="#8c8c8c" stroke-width="0.3" stroke-dasharray="1.2,0.8"/>
<line x1="84.998" y1="263.975" x2="77.808" y2="266.51" stroke="#8c8c8c" stroke-width="0.3" stroke-dasharray="1.2,0.8"/>
<line x1="39.086" y1="111.355" x2="35.138" y2="122.552" stroke="#8c8c8c" stroke-width="0.3" stroke-dasharray="1.2,0.8"/>
<line x1="77.808" y1="266.51" x2="88.946" y2="275.173" stroke="#8c8c8c" stroke-width="0.3" stroke-dasharray="1.2,0.8"/>
<line x1="31.895" y1="136.285" x2="27.948" y2="125.087" stroke="#8c8c8c" stroke-width="0.3" stroke-dasharray="1.2,0.8"/>
<line x1="24.0" y1="113.89" x2="27.948" y2="125.087" stroke="#8c8c8c" stroke-width="0.3" stroke-dasharray="1.2,0.8"/>
<line x1="49.871" y1="141.948" x2="39.086" y2="133.75" stroke="#8c8c8c" stroke-width="0.3" stroke-dasharray="1.2,0.8"/>
<line x1="36.4" y1="149.062" x2="31.895" y2="136.285" stroke="#8c8c8c" stroke-width="0.3" stroke-dasharray="1.2,0.8"/>
<line x1="64.605" y1="144.948" x2="49.871" y2="141.948" stroke="#8c8c8c" stroke-width="0.3" stroke-dasharray="1.2,0.8"/>
<line x1="41.4" y1="163.242" x2="36.4" y2="149.062" stroke="#8c8c8c" stroke-width="0.3" stroke-dasharray="1.2,0.8"/>
<line x1="79.339" y1="141.948" x2="64.605" y2="144.948" stroke="#8c8c8c" stroke-width="0.3" stroke-dasharray="1.2,0.8"/>
<line x1="46.399" y1="177.423" x2="41.4" y2="163.242" stroke="#8c8c8c" stroke-width="0.3" stroke-dasharray="1.2,0.8"/>
<line x1="90.125" y1="133.75" x2="79.339" y2="141.948" stroke="#8c8c8c" stroke-width="0.3" stroke-dasharray="1.2,0.8"/>
<line x1="50.904" y1="190.2" x2="46.399" y2="177.423" stroke="#8c8c8c" stroke-width="0.3" stroke-dasharray="1.2,0.8"/>
<line x1="94.073" y1="122.552" x2="90.125" y2="133.75" stroke="#8c8c8c" stroke-width="0.3" stroke-dasharray="1.2,0.8"/>
<line x1="54.852" y1="201.398" x2="50.904" y2="190.2" stroke="#8c8c8c" stroke-width="0.3" stroke-dasharray="1.2,0.8"/>
<line x1="90.125" y1="111.355" x2="94.073" y2="122.552" stroke="#8c8c8c" stroke-width="0.3" stroke-dasharray="1.2,0.8"/>
<line x1="79.339" y1="103.157" x2="90.125" y2="111.355" stroke="#8c8c8c" stroke-width="0.3" stroke-dasharray="1.2,0.8"/>
<line x1="63.304" y1="225.372" x2="58.8" y2="212.595" stroke="#8c8c8c" stroke-width="0.3" stroke-dasharray="1.2,0.8"/>
<line x1="64.605" y1="100.157" x2="79.339" y2="103.157" stroke="#8c8c8c" stroke-width="0.3" stroke-dasharray="1.2,0.8"/>
<line x1="68.304" y1="239.553" x2="63.304" y2="225.372" stroke="#8c8c8c" stroke-width="0.3" stroke-dasharray="1.2,0.8"/>
<line x1="49.871" y1="103.157" x2="64.605" y2="100.157" stroke="#8c8c8c" stroke-width="0.3" stroke-dasharray="1.2,0.8"/>
<line x1="73.304" y1="253.734" x2="68.304" y2="239.553" stroke="#8c8c8c" stroke-width="0.3" stroke-dasharray="1.2,0.8"/>
<line x1="39.086" y1="111.355" x2="49.871" y2="103.157" stroke="#8c8c8c" stroke-width="0.3" stroke-dasharray="1.2,0.8"/>
<line x1="77.808" y1="266.51" x2="73.304" y2="253.734" stroke="#8c8c8c" stroke-width="0.3" stroke-dasharray="1.2,0.8"/>
<line x1="84.998" y1="263.975" x2="88.946" y2="275.173" stroke="#141414" stroke-width="0.4"/>
<line x1="24.0" y1="113.89" x2="35.138" y2="122.552" stroke="#141414" stroke-width="0.4"/>
<line x1="8.948" y1="238.36" x2="5.0" y2="227.163" stroke="#141414" stroke-width="0.4"/>
<line x1="19.046" y1="244.606" x2="8.948" y2="238.36" stroke="#141414" stroke-width="0.4"/>
<line x1="39.086" y1="133.75" x2="43.59" y2="146.527" stroke="#141414" stroke-width="0.4"/>
<line x1="5.0" y1="227.163" x2="8.26" y2="214.013" stroke="#141414" stroke-width="0.4"/>
<line x1="43.59" y1="146.527" x2="48.59" y2="160.708" stroke="#141414" stroke-width="0.4"/>
<line x1="8.26" y1="214.013" x2="17.854" y2="202.435" stroke="#141414" stroke-width="0.4"/>
<line x1="48.59" y1="160.708" x2="53.589" y2="174.888" stroke="#141414" stroke-width="0.4"/>
<line x1="17.854" y1="202.435" x2="31.212" y2="195.532" stroke="#141414" stroke-width="0.4"/>
<line x1="53.589" y1="174.888" x2="58.094" y2="187.665" stroke="#141414" stroke-width="0.4"/>
<line x1="31.212" y1="195.532" x2="44.754" y2="195.152" stroke="#141414" stroke-width="0.4"/>
<line x1="58.094" y1="187.665" x2="62.042" y2="198.863" stroke="#141414" stroke-width="0.4"/>
<line x1="44.754" y1="195.152" x2="54.852" y2="201.398" stroke="#141414" stroke-width="0.4"/>
<line x1="62.042" y1="198.863" x2="65.99" y2="210.06" stroke="#141414" stroke-width="0.4"/>
<line x1="65.99" y1="210.06" x2="70.494" y2="222.837" stroke="#141414" stroke-width="0.4"/>
<line x1="58.8" y1="212.595" x2="55.54" y2="225.745" stroke="#141414" stroke-width="0.4"/>
<line x1="70.494" y1="222.837" x2="75.494" y2="237.018" stroke="#141414" stroke-width="0.4"/>
<line x1="55.54" y1="225.745" x2="45.946" y2="237.322" stroke="#141414" stroke-width="0.4"/>
<line x1="75.494" y1="237.018" x2="80.494" y2="251.198" stroke="#141414" stroke-width="0.4"/>
<line x1="45.946" y1="237.322" x2="32.588" y2="244.226" stroke="#141414" stroke-width="0.4"/>
<line x1="80.494" y1="251.198" x2="84.998" y2="263.975" stroke="#141414" stroke-width="0.4"/>
<line x1="32.588" y1="244.226" x2="19.046" y2="244.606" stroke="#141414" stroke-width="0.4"/>
<line x1="35.138" y1="122.552" x2="30.694" y2="118.316" stroke="#141414" stroke-width="0.4"/>
<line x1="30.694" y1="118.316" x2="32.967" y2="111.868" stroke="#141414" stroke-width="0.4"/>
<line x1="32.967" y1="111.868" x2="39.086" y2="111.355" stroke="#141414" stroke-width="0.4"/>
<line x1="88.946" y1="275.173" x2="83.146" y2="277.756" stroke="#141414" stroke-width="0.4"/>
<line x1="83.146" y1="277.756" x2="76.732" y2="272.768" stroke="#141414" stroke-width="0.4"/>
<line x1="76.732" y1="272.768" x2="77.808" y2="266.51" stroke="#141414" stroke-width="0.4"/>
<line x1="27.948" y1="125.087" x2="23.503" y2="129.324" stroke="#141414" stroke-width="0.4"/>
<line x1="23.503" y1="129.324" x2="25.777" y2="135.772" stroke="#141414" stroke-width="0.4"/>
<line x1="25.777" y1="135.772" x2="31.895" y2="136.285" stroke="#141414" stroke-width="0.4"/>
<line x1="27.948" y1="125.087" x2="21.829" y2="124.574" stroke="#141414" stroke-width="0.4"/>
<line x1="21.829" y1="124.574" x2="19.556" y2="118.127" stroke="#141414" stroke-width="0.4"/>
<line x1="19.556" y1="118.127" x2="24.0" y2="113.89" stroke="#141414" stroke-width="0.4"/>
<line x1="39.086" y1="133.75" x2="42.124" y2="140.723" stroke="#141414" stroke-width="0.4"/>
<line x1="42.124" y1="140.723" x2="42.34" y2="140.887" stroke="#141414" stroke-width="0.4"/>
<line x1="42.34" y1="140.887" x2="49.871" y2="141.948" stroke="#141414" stroke-width="0.4"/>
<line x1="31.895" y1="136.285" x2="27.569" y2="140.857" stroke="#141414" stroke-width="0.4"/>
<line x1="27.569" y1="140.857" x2="30.163" y2="148.214" stroke="#141414" stroke-width="0.4"/>
<line x1="30.163" y1="148.214" x2="36.4" y2="149.062" stroke="#141414" stroke-width="0.4"/>
<line x1="49.871" y1="141.948" x2="51.879" y2="148.071" stroke="#141414" stroke-width="0.4"/>
<line x1="51.879" y1="148.071" x2="60.363" y2="149.799" stroke="#141414" stroke-width="0.4"/>
<line x1="60.363" y1="149.799" x2="64.605" y2="144.948" stroke="#141414" stroke-width="0.4"/>
<line x1="36.4" y1="149.062" x2="32.179" y2="153.931" stroke="#141414" stroke-width="0.4"/>
<line x1="32.179" y1="153.931" x2="35.058" y2="162.097" stroke="#141414" stroke-width="0.4"/>
<line x1="35.058" y1="162.097" x2="41.4" y2="163.242" stroke="#141414" stroke-width="0.4"/>
<line x1="64.605" y1="144.948" x2="68.848" y2="149.799" stroke="#141414" stroke-width="0.4"/>
<line x1="68.848" y1="149.799" x2="77.332" y2="148.071" stroke="#141414" stroke-width="0.4"/>
<line x1="77.332" y1="148.071" x2="79.339" y2="141.948" stroke="#141414" stroke-width="0.4"/>
<line x1="41.4" y1="163.242" x2="37.179" y2="168.112" stroke="#141414" stroke-width="0.4"/>
<line x1="37.179" y1="168.112" x2="40.057" y2="176.278" stroke="#141414" stroke-width="0.4"/>
<line x1="40.057" y1="176.278" x2="46.399" y2="177.423" stroke="#141414" stroke-width="0.4"/>
<line x1="79.339" y1="141.948" x2="85.015" y2="144.667" stroke="#141414" stroke-width="0.4"/>
<line x1="85.015" y1="144.667" x2="91.226" y2="139.947" stroke="#141414" stroke-width="0.4"/>
<line x1="91.226" y1="139.947" x2="90.125" y2="133.75" stroke="#141414" stroke-width="0.4"/>
<line x1="46.399" y1="177.423" x2="42.073" y2="181.995" stroke="#141414" stroke-width="0.4"/>
<line x1="42.073" y1="181.995" x2="44.667" y2="189.352" stroke="#141414" stroke-width="0.4"/>
<line x1="44.667" y1="189.352" x2="50.904" y2="190.2" stroke="#141414" stroke-width="0.4"/>
<line x1="90.125" y1="133.75" x2="96.244" y2="133.237" stroke="#141414" stroke-width="0.4"/>
<line x1="96.244" y1="133.237" x2="98.517" y2="126.789" stroke="#141414" stroke-width="0.4"/>
<line x1="98.517" y1="126.789" x2="94.073" y2="122.552" stroke="#141414" stroke-width="0.4"/>
<line x1="50.904" y1="190.2" x2="48.481" y2="197.223" stroke="#141414" stroke-width="0.4"/>
<line x1="48.481" y1="197.223" x2="48.56" y2="197.447" stroke="#141414" stroke-width="0.4"/>
<line x1="48.56" y1="197.447" x2="54.852" y2="201.398" stroke="#141414" stroke-width="0.4"/>
<line x1="94.073" y1="122.552" x2="98.517" y2="118.316" stroke="#141414" stroke-width="0.4"/>
<line x1="98.517" y1="118.316" x2="96.244" y2="111.868" stroke="#141414" stroke-width="0.4"/>
<line x1="96.244" y1="111.868" x2="90.125" y2="111.355" stroke="#141414" stroke-width="0.4"/>
<line x1="90.125" y1="111.355" x2="91.226" y2="105.157" stroke="#141414" stroke-width="0.4"/>
<line x1="91.226" y1="105.157" x2="85.015" y2="100.438" stroke="#141414" stroke-width="0.4"/>
<line x1="85.015" y1="100.438" x2="79.339" y2="103.157" stroke="#141414" stroke-width="0.4"/>
<line x1="58.8" y1="212.595" x2="57.505" y2="220.091" stroke="#141414" stroke-width="0.4"/>
<line x1="57.505" y1="220.091" x2="57.595" y2="220.346" stroke="#141414" stroke-width="0.4"/>
<line x1="57.595" y1="220.346" x2="63.304" y2="225.372" stroke="#141414" stroke-width="0.4"/>
<line x1="79.339" y1="103.157" x2="77.332" y2="97.034" stroke="#141414" stroke-width="0.4"/>
<line x1="77.332" y1="97.034" x2="68.848" y2="95.306" stroke="#141414" stroke-width="0.4"/>
<line x1="68.848" y1="95.306" x2="64.605" y2="100.157" stroke="#141414" stroke-width="0.4"/>
<line x1="63.304" y1="225.372" x2="59.083" y2="230.242" stroke="#141414" stroke-width="0.4"/>
<line x1="59.083" y1="230.242" x2="61.962" y2="238.407" stroke="#141414" stroke-width="0.4"/>
<line x1="61.962" y1="238.407" x2="68.304" y2="239.553" stroke="#141414" stroke-width="0.4"/>
<line x1="64.605" y1="100.157" x2="60.363" y2="95.306" stroke="#141414" stroke-width="0.4"/>
<line x1="60.363" y1="95.306" x2="51.879" y2="97.034" stroke="#141414" stroke-width="0.4"/>
<line x1="51.879" y1="97.034" x2="49.871" y2="103.157" stroke="#141414" stroke-width="0.4"/>
<line x1="68.304" y1="239.553" x2="64.083" y2="244.422" stroke="#141414" stroke-width="0.4"/>
<line x1="64.083" y1="244.422" x2="66.962" y2="252.588" stroke="#141414" stroke-width="0.4"/>
<line x1="66.962" y1="252.588" x2="73.304" y2="253.734" stroke="#141414" stroke-width="0.4"/>
<line x1="49.871" y1="103.157" x2="44.195" y2="100.438" stroke="#141414" stroke-width="0.4"/>
<line x1="44.195" y1="100.438" x2="37.985" y2="105.157" stroke="#141414" stroke-width="0.4"/>
<line x1="37.985" y1="105.157" x2="39.086" y2="111.355" stroke="#141414" stroke-width="0.4"/>
<line x1="73.304" y1="253.734" x2="68.978" y2="258.305" stroke="#141414" stroke-width="0.4"/>
<line x1="68.978" y1="258.305" x2="71.571" y2="265.662" stroke="#141414" stroke-width="0.4"/>
<line x1="71.571" y1="265.662" x2="77.808" y2="266.51" stroke="#141414" stroke-width="0.4"/>
<circle cx="34.471" cy="116.023" r="2.25" fill="#99d9fa" stroke="#464646" stroke-width="0.2"/>
<text x="34.471" y="116.79" font-size="2.20" text-anchor="middle" fill="#141414">81</text>
<circle cx="81.658" cy="273.052" r="2.25" fill="#ffe082" stroke="#464646" stroke-width="0.2"/>
<text x="81.658" y="273.82" font-size="2.20" text-anchor="middle" fill="#141414">82</text>
<circle cx="27.281" cy="131.617" r="2.25" fill="#ffe082" stroke="#464646" stroke-width="0.2"/>
<text x="27.281" y="132.39" font-size="2.20" text-anchor="middle" fill="#141414">83</text>
<circle cx="23.333" cy="120.42" r="2.25" fill="#ffe082" stroke="#464646" stroke-width="0.2"/>
<text x="23.333" y="121.19" font-size="2.20" text-anchor="middle" fill="#141414">84</text>
<circle cx="31.507" cy="143.604" r="2.25" fill="#ffe082" stroke="#464646" stroke-width="0.2"/>
<text x="31.507" y="144.37" font-size="2.20" text-anchor="middle" fill="#141414">86</text>
<circle cx="56.68" cy="146.191" r="2.25" fill="#ffe082" stroke="#464646" stroke-width="0.2"/>
<text x="56.68" y="146.96" font-size="2.20" text-anchor="middle" fill="#141414">87</text>
<circle cx="36.259" cy="157.083" r="2.25" fill="#ffe082" stroke="#464646" stroke-width="0.2"/>
<text x="36.259" y="157.85" font-size="2.20" text-anchor="middle" fill="#141414">88</text>
<circle cx="72.531" cy="146.191" r="2.25" fill="#ffe082" stroke="#464646" stroke-width="0.2"/>
<text x="72.531" y="146.96" font-size="2.20" text-anchor="middle" fill="#141414">89</text>
<circle cx="41.259" cy="171.264" r="2.25" fill="#ffe082" stroke="#464646" stroke-width="0.2"/>
<text x="41.259" y="172.03" font-size="2.20" text-anchor="middle" fill="#141414">90</text>
<circle cx="86.426" cy="140.078" r="2.25" fill="#ffe082" stroke="#464646" stroke-width="0.2"/>
<text x="86.426" y="140.85" font-size="2.20" text-anchor="middle" fill="#141414">91</text>
<circle cx="46.011" cy="184.743" r="2.25" fill="#ffe082" stroke="#464646" stroke-width="0.2"/>
<text x="46.011" y="185.51" font-size="2.20" text-anchor="middle" fill="#141414">92</text>
<circle cx="94.74" cy="129.082" r="2.25" fill="#ffe082" stroke="#464646" stroke-width="0.2"/>
<text x="94.74" y="129.85" font-size="2.20" text-anchor="middle" fill="#141414">93</text>
<circle cx="94.74" cy="116.023" r="2.25" fill="#ffe082" stroke="#464646" stroke-width="0.2"/>
<text x="94.74" y="116.79" font-size="2.20" text-anchor="middle" fill="#141414">95</text>
<circle cx="86.426" cy="105.027" r="2.25" fill="#ffe082" stroke="#464646" stroke-width="0.2"/>
<text x="86.426" y="105.80" font-size="2.20" text-anchor="middle" fill="#141414">96</text>
<circle cx="72.531" cy="98.913" r="2.25" fill="#ffe082" stroke="#464646" stroke-width="0.2"/>
<text x="72.531" y="99.68" font-size="2.20" text-anchor="middle" fill="#141414">98</text>
<circle cx="63.163" cy="233.393" r="2.25" fill="#ffe082" stroke="#464646" stroke-width="0.2"/>
<text x="63.163" y="234.16" font-size="2.20" text-anchor="middle" fill="#141414">99</text>
<circle cx="56.68" cy="98.913" r="2.25" fill="#ffe082" stroke="#464646" stroke-width="0.2"/>
<text x="56.68" y="99.68" font-size="2.20" text-anchor="middle" fill="#141414">100</text>
<circle cx="68.163" cy="247.574" r="2.25" fill="#ffe082" stroke="#464646" stroke-width="0.2"/>
<text x="68.163" y="248.34" font-size="2.20" text-anchor="middle" fill="#141414">101</text>
<circle cx="42.784" cy="105.027" r="2.25" fill="#ffe082" stroke="#464646" stroke-width="0.2"/>
<text x="42.784" y="105.80" font-size="2.20" text-anchor="middle" fill="#141414">102</text>
<circle cx="72.915" cy="261.053" r="2.25" fill="#ffe082" stroke="#464646" stroke-width="0.2"/>
<text x="72.915" y="261.82" font-size="2.20" text-anchor="middle" fill="#141414">103</text>
<circle cx="78.023" cy="132.75" r="3.16" fill="#eaf1fe" stroke="#2e78e6" stroke-width="0.3"/>
<text x="78.023" y="133.99" font-size="3.57" text-anchor="middle" fill="#14306e" font-weight="bold">8</text>
<polygon points="183.309,51.637 180.918,57.237 174.425,57.237 172.034,51.637" fill="rgb(216,216,216)"/>
<polygon points="183.309,33.956 180.918,28.356 174.425,28.356 172.034,33.956" fill="rgb(216,216,216)"/>
<polygon points="192.022,51.637 197.622,47.887 197.622,37.706 192.022,33.956" fill="rgb(216,216,216)"/>
<polygon points="192.022,51.637 197.622,54.028 197.622,60.521 192.022,62.912" fill="rgb(216,216,216)"/>
<polygon points="192.022,33.956 197.622,31.565 197.622,25.072 192.022,22.681" fill="rgb(216,216,216)"/>
<polygon points="172.034,51.637 166.434,47.887 166.434,37.706 172.034,33.956" fill="rgb(216,216,216)"/>
<polygon points="183.309,62.912 185.157,68.512 190.174,68.512 192.022,62.912" fill="rgb(216,216,216)"/>
<polygon points="183.309,51.637 180.918,57.237 174.425,57.237 172.034,51.637" fill="#99d9fa"/>
<line x1="183.309" y1="51.637" x2="183.309" y2="33.956" stroke="#8c8c8c" stroke-width="0.3" stroke-dasharray="1.2,0.8"/>
<line x1="192.022" y1="51.637" x2="183.309" y2="51.637" stroke="#8c8c8c" stroke-width="0.3" stroke-dasharray="1.2,0.8"/>
<line x1="183.309" y1="33.956" x2="192.022" y2="33.956" stroke="#8c8c8c" stroke-width="0.3" stroke-dasharray="1.2,0.8"/>
<line x1="183.309" y1="22.681" x2="192.022" y2="22.681" stroke="#8c8c8c" stroke-width="0.3" stroke-dasharray="1.2,0.8"/>
<line x1="192.022" y1="22.681" x2="192.022" y2="5.0" stroke="#8c8c8c" stroke-width="0.3" stroke-dasharray="1.2,0.8"/>
<line x1="172.034" y1="51.637" x2="183.309" y2="51.637" stroke="#8c8c8c" stroke-width="0.3" stroke-dasharray="1.2,0.8"/>
<line x1="172.034" y1="33.956" x2="183.309" y2="33.956" stroke="#8c8c8c" stroke-width="0.3" stroke-dasharray="1.2,0.8"/>
<line x1="192.022" y1="33.956" x2="192.022" y2="51.637" stroke="#8c8c8c" stroke-width="0.3" stroke-dasharray="1.2,0.8"/>
<line x1="192.022" y1="62.912" x2="192.022" y2="51.637" stroke="#8c8c8c" stroke-width="0.3" stroke-dasharray="1.2,0.8"/>
<line x1="192.022" y1="22.681" x2="192.022" y2="33.956" stroke="#8c8c8c" stroke-width="0.3" stroke-dasharray="1.2,0.8"/>
<line x1="172.034" y1="33.956" x2="172.034" y2="51.637" stroke="#8c8c8c" stroke-width="0.3" stroke-dasharray="1.2,0.8"/>
<line x1="192.022" y1="62.912" x2="183.309" y2="62.912" stroke="#8c8c8c" stroke-width="0.3" stroke-dasharray="1.2,0.8"/>
<line x1="183.309" y1="62.912" x2="183.309" y2="51.637" stroke="#141414" stroke-width="0.4"/>
<line x1="183.309" y1="33.956" x2="183.309" y2="22.681" stroke="#141414" stroke-width="0.4"/>
<line x1="203.298" y1="5.0" x2="203.298" y2="22.681" stroke="#141414" stroke-width="0.4"/>
<line x1="192.022" y1="5.0" x2="203.298" y2="5.0" stroke="#141414" stroke-width="0.4"/>
<line x1="203.298" y1="22.681" x2="192.022" y2="22.681" stroke="#141414" stroke-width="0.4"/>
<line x1="183.309" y1="22.681" x2="183.309" y2="5.0" stroke="#141414" stroke-width="0.4"/>
<line x1="183.309" y1="5.0" x2="192.022" y2="5.0" stroke="#141414" stroke-width="0.4"/>
<line x1="183.309" y1="51.637" x2="180.918" y2="57.237" stroke="#141414" stroke-width="0.4"/>
<line x1="180.918" y1="57.237" x2="174.425" y2="57.237" stroke="#141414" stroke-width="0.4"/>
<line x1="174.425" y1="57.237" x2="172.034" y2="51.637" stroke="#141414" stroke-width="0.4"/>
<line x1="183.309" y1="33.956" x2="180.918" y2="28.356" stroke="#141414" stroke-width="0.4"/>
<line x1="180.918" y1="28.356" x2="174.425" y2="28.356" stroke="#141414" stroke-width="0.4"/>
<line x1="174.425" y1="28.356" x2="172.034" y2="33.956" stroke="#141414" stroke-width="0.4"/>
<line x1="192.022" y1="51.637" x2="197.622" y2="47.887" stroke="#141414" stroke-width="0.4"/>
<line x1="197.622" y1="47.887" x2="197.622" y2="37.706" stroke="#141414" stroke-width="0.4"/>
<line x1="197.622" y1="37.706" x2="192.022" y2="33.956" stroke="#141414" stroke-width="0.4"/>
<line x1="192.022" y1="51.637" x2="197.622" y2="54.028" stroke="#141414" stroke-width="0.4"/>
<line x1="197.622" y1="54.028" x2="197.622" y2="60.521" stroke="#141414" stroke-width="0.4"/>
<line x1="197.622" y1="60.521" x2="192.022" y2="62.912" stroke="#141414" stroke-width="0.4"/>
<line x1="192.022" y1="33.956" x2="197.622" y2="31.565" stroke="#141414" stroke-width="0.4"/>
<line x1="197.622" y1="31.565" x2="197.622" y2="25.072" stroke="#141414" stroke-width="0.4"/>
<line x1="197.622" y1="25.072" x2="192.022" y2="22.681" stroke="#141414" stroke-width="0.4"/>
<line x1="172.034" y1="51.637" x2="166.434" y2="47.887" stroke="#141414" stroke-width="0.4"/>
<line x1="166.434" y1="47.887" x2="166.434" y2="37.706" stroke="#141414" stroke-width="0.4"/>
<line x1="166.434" y1="37.706" x2="172.034" y2="33.956" stroke="#141414" stroke-width="0.4"/>
<line x1="183.309" y1="62.912" x2="185.157" y2="68.512" stroke="#141414" stroke-width="0.4"/>
<line x1="185.157" y1="68.512" x2="190.174" y2="68.512" stroke="#141414" stroke-width="0.4"/>
<line x1="190.174" y1="68.512" x2="192.022" y2="62.912" stroke="#141414" stroke-width="0.4"/>
<circle cx="177.671" cy="54.437" r="2.25" fill="#99d9fa" stroke="#464646" stroke-width="0.2"/>
<text x="177.671" y="55.21" font-size="2.20" text-anchor="middle" fill="#141414">118</text>
<circle cx="177.671" cy="31.156" r="2.25" fill="#ffe082" stroke="#464646" stroke-width="0.2"/>
<text x="177.671" y="31.93" font-size="2.20" text-anchor="middle" fill="#141414">119</text>
<circle cx="194.822" cy="42.796" r="2.25" fill="#ffe082" stroke="#464646" stroke-width="0.2"/>
<text x="194.822" y="43.57" font-size="2.20" text-anchor="middle" fill="#141414">120</text>
<circle cx="194.822" cy="57.275" r="2.25" fill="#ffe082" stroke="#464646" stroke-width="0.2"/>
<text x="194.822" y="58.05" font-size="2.20" text-anchor="middle" fill="#141414">121</text>
<circle cx="194.822" cy="28.318" r="2.25" fill="#ffe082" stroke="#464646" stroke-width="0.2"/>
<text x="194.822" y="29.09" font-size="2.20" text-anchor="middle" fill="#141414">122</text>
<circle cx="169.234" cy="42.796" r="2.25" fill="#ffe082" stroke="#464646" stroke-width="0.2"/>
<text x="169.234" y="43.57" font-size="2.20" text-anchor="middle" fill="#141414">123</text>
<circle cx="187.666" cy="65.712" r="2.25" fill="#ffe082" stroke="#464646" stroke-width="0.2"/>
<text x="187.666" y="66.48" font-size="2.20" text-anchor="middle" fill="#141414">124</text>
<circle cx="189.118" cy="59.154" r="1.84" fill="#eaf1fe" stroke="#2e78e6" stroke-width="0.3"/>
<text x="189.118" y="59.87" font-size="2.60" text-anchor="middle" fill="#14306e" font-weight="bold">11</text>
<polygon points="105.478,156.254 99.878,152.504 99.878,142.324 105.478,138.574" fill="rgb(216,216,216)"/>
<polygon points="105.478,156.254 107.621,161.854 113.438,161.854 115.581,156.254" fill="rgb(216,216,216)"/>
<polygon points="105.478,138.574 107.621,132.974 113.438,132.974 115.581,138.574" fill="rgb(216,216,216)"/>
<polygon points="115.581,100.687 117.056,95.579 121.73,95.579 123.205,100.687" fill="rgb(216,216,216)"/>
<polygon points="123.205,110.79 128.805,108.647 128.805,102.829 123.205,100.687" fill="rgb(216,216,216)"/>
<polygon points="123.205,128.471 128.805,130.613 128.805,136.431 123.205,138.574" fill="rgb(216,216,216)"/>
<polygon points="123.205,156.254 128.805,152.504 128.805,142.324 123.205,138.574" fill="rgb(216,216,216)"/>
<polygon points="105.478,138.574 107.621,132.974 113.438,132.974 115.581,138.574" fill="#99d9fa"/>
<line x1="115.581" y1="110.79" x2="123.205" y2="110.79" stroke="#8c8c8c" stroke-width="0.3" stroke-dasharray="1.2,0.8"/>
<line x1="123.205" y1="128.471" x2="115.581" y2="128.471" stroke="#8c8c8c" stroke-width="0.3" stroke-dasharray="1.2,0.8"/>
<line x1="115.581" y1="138.574" x2="115.581" y2="156.254" stroke="#8c8c8c" stroke-width="0.3" stroke-dasharray="1.2,0.8"/>
<line x1="123.205" y1="138.574" x2="115.581" y2="138.574" stroke="#8c8c8c" stroke-width="0.3" stroke-dasharray="1.2,0.8"/>
<line x1="123.205" y1="110.79" x2="123.205" y2="128.471" stroke="#8c8c8c" stroke-width="0.3" stroke-dasharray="1.2,0.8"/>
<line x1="105.478" y1="138.574" x2="105.478" y2="156.254" stroke="#8c8c8c" stroke-width="0.3" stroke-dasharray="1.2,0.8"/>
<line x1="115.581" y1="156.254" x2="105.478" y2="156.254" stroke="#8c8c8c" stroke-width="0.3" stroke-dasharray="1.2,0.8"/>
<line x1="115.581" y1="138.574" x2="105.478" y2="138.574" stroke="#8c8c8c" stroke-width="0.3" stroke-dasharray="1.2,0.8"/>
<line x1="123.205" y1="100.687" x2="115.581" y2="100.687" stroke="#8c8c8c" stroke-width="0.3" stroke-dasharray="1.2,0.8"/>
<line x1="123.205" y1="100.687" x2="123.205" y2="110.79" stroke="#8c8c8c" stroke-width="0.3" stroke-dasharray="1.2,0.8"/>
<line x1="123.205" y1="138.574" x2="123.205" y2="128.471" stroke="#8c8c8c" stroke-width="0.3" stroke-dasharray="1.2,0.8"/>
<line x1="123.205" y1="138.574" x2="123.205" y2="156.254" stroke="#8c8c8c" stroke-width="0.3" stroke-dasharray="1.2,0.8"/>
<line x1="115.581" y1="128.471" x2="115.581" y2="110.79" stroke="#141414" stroke-width="0.4"/>
<line x1="115.581" y1="110.79" x2="115.581" y2="100.687" stroke="#141414" stroke-width="0.4"/>
<line x1="115.581" y1="138.574" x2="115.581" y2="128.471" stroke="#141414" stroke-width="0.4"/>
<line x1="123.205" y1="156.254" x2="115.581" y2="156.254" stroke="#141414" stroke-width="0.4"/>
<line x1="123.205" y1="110.79" x2="133.308" y2="110.79" stroke="#141414" stroke-width="0.4"/>
<line x1="133.308" y1="128.471" x2="123.205" y2="128.471" stroke="#141414" stroke-width="0.4"/>
<line x1="133.308" y1="110.79" x2="133.308" y2="128.471" stroke="#141414" stroke-width="0.4"/>
<line x1="105.478" y1="156.254" x2="99.878" y2="152.504" stroke="#141414" stroke-width="0.4"/>
<line x1="99.878" y1="152.504" x2="99.878" y2="142.324" stroke="#141414" stroke-width="0.4"/>
<line x1="99.878" y1="142.324" x2="105.478" y2="138.574" stroke="#141414" stroke-width="0.4"/>
<line x1="105.478" y1="156.254" x2="107.621" y2="161.854" stroke="#141414" stroke-width="0.4"/>
<line x1="107.621" y1="161.854" x2="113.438" y2="161.854" stroke="#141414" stroke-width="0.4"/>
<line x1="113.438" y1="161.854" x2="115.581" y2="156.254" stroke="#141414" stroke-width="0.4"/>
<line x1="105.478" y1="138.574" x2="107.621" y2="132.974" stroke="#141414" stroke-width="0.4"/>
<line x1="107.621" y1="132.974" x2="113.438" y2="132.974" stroke="#141414" stroke-width="0.4"/>
<line x1="113.438" y1="132.974" x2="115.581" y2="138.574" stroke="#141414" stroke-width="0.4"/>
<line x1="115.581" y1="100.687" x2="117.056" y2="95.579" stroke="#141414" stroke-width="0.4"/>
<line x1="117.056" y1="95.579" x2="121.73" y2="95.579" stroke="#141414" stroke-width="0.4"/>
<line x1="121.73" y1="95.579" x2="123.205" y2="100.687" stroke="#141414" stroke-width="0.4"/>
<line x1="123.205" y1="110.79" x2="128.805" y2="108.647" stroke="#141414" stroke-width="0.4"/>
<line x1="128.805" y1="108.647" x2="128.805" y2="102.829" stroke="#141414" stroke-width="0.4"/>
<line x1="128.805" y1="102.829" x2="123.205" y2="100.687" stroke="#141414" stroke-width="0.4"/>
<line x1="123.205" y1="128.471" x2="128.805" y2="130.613" stroke="#141414" stroke-width="0.4"/>
<line x1="128.805" y1="130.613" x2="128.805" y2="136.431" stroke="#141414" stroke-width="0.4"/>
<line x1="128.805" y1="136.431" x2="123.205" y2="138.574" stroke="#141414" stroke-width="0.4"/>
<line x1="123.205" y1="156.254" x2="128.805" y2="152.504" stroke="#141414" stroke-width="0.4"/>
<line x1="128.805" y1="152.504" x2="128.805" y2="142.324" stroke="#141414" stroke-width="0.4"/>
<line x1="128.805" y1="142.324" x2="123.205" y2="138.574" stroke="#141414" stroke-width="0.4"/>
<circle cx="102.678" cy="147.414" r="2.25" fill="#ffe082" stroke="#464646" stroke-width="0.2"/>
<text x="102.678" y="148.18" font-size="2.20" text-anchor="middle" fill="#141414">125</text>
<circle cx="110.529" cy="159.054" r="2.25" fill="#ffe082" stroke="#464646" stroke-width="0.2"/>
<text x="110.529" y="159.82" font-size="2.20" text-anchor="middle" fill="#141414">126</text>
<circle cx="110.529" cy="135.774" r="2.25" fill="#99d9fa" stroke="#464646" stroke-width="0.2"/>
<text x="110.529" y="136.54" font-size="2.20" text-anchor="middle" fill="#141414">127</text>
<circle cx="119.393" cy="98.133" r="2.25" fill="#ffe082" stroke="#464646" stroke-width="0.2"/>
<text x="119.393" y="98.90" font-size="2.20" text-anchor="middle" fill="#141414">128</text>
<circle cx="126.005" cy="105.738" r="2.25" fill="#ffe082" stroke="#464646" stroke-width="0.2"/>
<text x="126.005" y="106.51" font-size="2.20" text-anchor="middle" fill="#141414">129</text>
<circle cx="126.005" cy="133.522" r="2.25" fill="#ffe082" stroke="#464646" stroke-width="0.2"/>
<text x="126.005" y="134.29" font-size="2.20" text-anchor="middle" fill="#141414">130</text>
<circle cx="126.005" cy="147.414" r="2.25" fill="#ffe082" stroke="#464646" stroke-width="0.2"/>
<text x="126.005" y="148.18" font-size="2.20" text-anchor="middle" fill="#141414">131</text>
<circle cx="108.845" cy="144.467" r="2.34" fill="#eaf1fe" stroke="#2e78e6" stroke-width="0.3"/>
<text x="108.845" y="145.38" font-size="2.64" text-anchor="middle" fill="#14306e" font-weight="bold">12</text>
<polygon points="153.183,143.363 150.792,148.963 144.299,148.963 141.908,143.363" fill="rgb(216,216,216)"/>
<polygon points="153.183,125.682 150.792,120.082 144.299,120.082 141.908,125.682" fill="rgb(216,216,216)"/>
<polygon points="161.896,143.363 167.496,139.613 167.496,129.432 161.896,125.682" fill="rgb(216,216,216)"/>
<polygon points="161.896,143.363 167.496,145.754 167.496,152.247 161.896,154.638" fill="rgb(216,216,216)"/>
<polygon points="161.896,125.682 167.496,123.291 167.496,116.798 161.896,114.407" fill="rgb(216,216,216)"/>
<polygon points="141.908,143.363 136.308,139.613 136.308,129.432 141.908,125.682" fill="rgb(216,216,216)"/>
<polygon points="153.183,154.638 155.031,160.238 160.048,160.238 161.896,154.638" fill="rgb(216,216,216)"/>
<polygon points="153.183,143.363 150.792,148.963 144.299,148.963 141.908,143.363" fill="#99d9fa"/>
<line x1="153.183" y1="143.363" x2="153.183" y2="125.682" stroke="#8c8c8c" stroke-width="0.3" stroke-dasharray="1.2,0.8"/>
<line x1="161.897" y1="143.363" x2="153.183" y2="143.363" stroke="#8c8c8c" stroke-width="0.3" stroke-dasharray="1.2,0.8"/>
<line x1="153.183" y1="125.682" x2="161.897" y2="125.682" stroke="#8c8c8c" stroke-width="0.3" stroke-dasharray="1.2,0.8"/>
<line x1="153.183" y1="114.407" x2="161.897" y2="114.407" stroke="#8c8c8c" stroke-width="0.3" stroke-dasharray="1.2,0.8"/>
<line x1="161.897" y1="114.407" x2="161.897" y2="96.726" stroke="#8c8c8c" stroke-width="0.3" stroke-dasharray="1.2,0.8"/>
<line x1="141.908" y1="143.363" x2="153.183" y2="143.363" stroke="#8c8c8c" stroke-width="0.3" stroke-dasharray="1.2,0.8"/>
<line x1="141.908" y1="125.682" x2="153.183" y2="125.682" stroke="#8c8c8c" stroke-width="0.3" stroke-dasharray="1.2,0.8"/>
<line x1="161.896" y1="125.682" x2="161.896" y2="143.363" stroke="#8c8c8c" stroke-width="0.3" stroke-dasharray="1.2,0.8"/>
<line x1="161.896" y1="154.638" x2="161.896" y2="143.363" stroke="#8c8c8c" stroke-width="0.3" stroke-dasharray="1.2,0.8"/>
<line x1="161.896" y1="114.407" x2="161.896" y2="125.682" stroke="#8c8c8c" stroke-width="0.3" stroke-dasharray="1.2,0.8"/>
<line x1="141.908" y1="125.682" x2="141.908" y2="143.363" stroke="#8c8c8c" stroke-width="0.3" stroke-dasharray="1.2,0.8"/>
<line x1="161.896" y1="154.638" x2="153.183" y2="154.638" stroke="#8c8c8c" stroke-width="0.3" stroke-dasharray="1.2,0.8"/>
<line x1="153.183" y1="154.638" x2="153.183" y2="143.363" stroke="#141414" stroke-width="0.4"/>
<line x1="153.183" y1="125.682" x2="153.183" y2="114.407" stroke="#141414" stroke-width="0.4"/>
<line x1="173.172" y1="96.726" x2="173.172" y2="114.407" stroke="#141414" stroke-width="0.4"/>
<line x1="161.897" y1="96.726" x2="173.172" y2="96.726" stroke="#141414" stroke-width="0.4"/>
<line x1="173.172" y1="114.407" x2="161.897" y2="114.407" stroke="#141414" stroke-width="0.4"/>
<line x1="153.183" y1="114.407" x2="153.183" y2="96.726" stroke="#141414" stroke-width="0.4"/>
<line x1="153.183" y1="96.726" x2="161.897" y2="96.726" stroke="#141414" stroke-width="0.4"/>
<line x1="153.183" y1="143.363" x2="150.792" y2="148.963" stroke="#141414" stroke-width="0.4"/>
<line x1="150.792" y1="148.963" x2="144.299" y2="148.963" stroke="#141414" stroke-width="0.4"/>
<line x1="144.299" y1="148.963" x2="141.908" y2="143.363" stroke="#141414" stroke-width="0.4"/>
<line x1="153.183" y1="125.682" x2="150.792" y2="120.082" stroke="#141414" stroke-width="0.4"/>
<line x1="150.792" y1="120.082" x2="144.299" y2="120.082" stroke="#141414" stroke-width="0.4"/>
<line x1="144.299" y1="120.082" x2="141.908" y2="125.682" stroke="#141414" stroke-width="0.4"/>
<line x1="161.896" y1="143.363" x2="167.496" y2="139.613" stroke="#141414" stroke-width="0.4"/>
<line x1="167.496" y1="139.613" x2="167.496" y2="129.432" stroke="#141414" stroke-width="0.4"/>
<line x1="167.496" y1="129.432" x2="161.896" y2="125.682" stroke="#141414" stroke-width="0.4"/>
<line x1="161.896" y1="143.363" x2="167.496" y2="145.754" stroke="#141414" stroke-width="0.4"/>
<line x1="167.496" y1="145.754" x2="167.496" y2="152.247" stroke="#141414" stroke-width="0.4"/>
<line x1="167.496" y1="152.247" x2="161.896" y2="154.638" stroke="#141414" stroke-width="0.4"/>
<line x1="161.896" y1="125.682" x2="167.496" y2="123.291" stroke="#141414" stroke-width="0.4"/>
<line x1="167.496" y1="123.291" x2="167.496" y2="116.798" stroke="#141414" stroke-width="0.4"/>
<line x1="167.496" y1="116.798" x2="161.896" y2="114.407" stroke="#141414" stroke-width="0.4"/>
<line x1="141.908" y1="143.363" x2="136.308" y2="139.613" stroke="#141414" stroke-width="0.4"/>
<line x1="136.308" y1="139.613" x2="136.308" y2="129.432" stroke="#141414" stroke-width="0.4"/>
<line x1="136.308" y1="129.432" x2="141.908" y2="125.682" stroke="#141414" stroke-width="0.4"/>
<line x1="153.183" y1="154.638" x2="155.031" y2="160.238" stroke="#141414" stroke-width="0.4"/>
<line x1="155.031" y1="160.238" x2="160.048" y2="160.238" stroke="#141414" stroke-width="0.4"/>
<line x1="160.048" y1="160.238" x2="161.896" y2="154.638" stroke="#141414" stroke-width="0.4"/>
<circle cx="147.546" cy="146.163" r="2.25" fill="#99d9fa" stroke="#464646" stroke-width="0.2"/>
<text x="147.546" y="146.93" font-size="2.20" text-anchor="middle" fill="#141414">132</text>
<circle cx="147.546" cy="122.882" r="2.25" fill="#ffe082" stroke="#464646" stroke-width="0.2"/>
<text x="147.546" y="123.65" font-size="2.20" text-anchor="middle" fill="#141414">133</text>
<circle cx="164.696" cy="134.523" r="2.25" fill="#ffe082" stroke="#464646" stroke-width="0.2"/>
<text x="164.696" y="135.29" font-size="2.20" text-anchor="middle" fill="#141414">134</text>
<circle cx="164.696" cy="149.001" r="2.25" fill="#ffe082" stroke="#464646" stroke-width="0.2"/>
<text x="164.696" y="149.77" font-size="2.20" text-anchor="middle" fill="#141414">135</text>
<circle cx="164.696" cy="120.044" r="2.25" fill="#ffe082" stroke="#464646" stroke-width="0.2"/>
<text x="164.696" y="120.81" font-size="2.20" text-anchor="middle" fill="#141414">136</text>
<circle cx="139.108" cy="134.523" r="2.25" fill="#ffe082" stroke="#464646" stroke-width="0.2"/>
<text x="139.108" y="135.29" font-size="2.20" text-anchor="middle" fill="#141414">137</text>
<circle cx="157.54" cy="157.438" r="2.25" fill="#ffe082" stroke="#464646" stroke-width="0.2"/>
<text x="157.54" y="158.21" font-size="2.20" text-anchor="middle" fill="#141414">138</text>
<circle cx="158.992" cy="150.88" r="1.84" fill="#eaf1fe" stroke="#2e78e6" stroke-width="0.3"/>
<text x="158.992" y="151.60" font-size="2.60" text-anchor="middle" fill="#14306e" font-weight="bold">13</text>
<text x="205.0" y="295.0" font-size="3.2" text-anchor="end" fill="#737373" font-family="sans-serif">4 / 5</text>
</svg>
