<svg xmlns="http://www.w3.org/2000/svg" xmlns:xlink="http://www.w3.org/1999/xlink" width="210.00mm" height="297.00mm" viewBox="0 0 210.00 297.00">
<rect x="0" y="0" width="210.00" height="297.00" fill="#ffffff" stroke="#cccccc" stroke-width="0.2"/>
<polygon points="106.981,62.867 100.27,69.867 68.953,69.867 62.242,62.867" fill="rgb(216,216,216)"/>
<polygon points="106.981,49.739 113.692,42.739 145.009,42.739 151.72,49.739" fill="rgb(216,216,216)"/>
<polygon points="106.981,49.739 100.27,42.739 68.953,42.739 62.242,49.739" fill="rgb(216,216,216)"/>
<polygon points="151.72,62.867 158.72,69.578 158.72,100.895 151.72,107.606" fill="rgb(216,216,216)"/>
<polygon points="17.503,5.0 10.503,11.711 10.503,43.028 17.503,49.739" fill="rgb(216,216,216)"/>
<polygon points="106.981,107.606 113.692,114.606 145.009,114.606 151.72,107.606" fill="rgb(216,216,216)"/>
<polygon points="196.458,62.867 203.023,60.898 203.023,51.708 196.458,49.739" fill="rgb(216,216,216)"/>
<polygon points="106.981,62.867 100.27,69.867 68.953,69.867 62.242,62.867" fill="#99d9fa"/>
<line x1="106.981" y1="62.867" x2="106.981" y2="49.739" stroke="#8c8c8c" stroke-width="0.3" stroke-dasharray="1.2,0.8"/>
<line x1="151.72" y1="62.867" x2="106.981" y2="62.867" stroke="#8c8c8c" stroke-width="0.3" stroke-dasharray="1.2,0.8"/>
<line x1="151.72" y1="49.739" x2="151.72" y2="62.867" stroke="#8c8c8c" stroke-width="0.3" stroke-dasharray="1.2,0.8"/>
<line x1="62.242" y1="62.867" x2="62.242" y2="49.739" stroke="#8c8c8c" stroke-width="0.3" stroke-dasharray="1.2,0.8"/>
<line x1="62.242" y1="49.739" x2="17.503" y2="49.739" stroke="#8c8c8c" stroke-width="0.3" stroke-dasharray="1.2,0.8"/>
<line x1="62.242" y1="62.867" x2="106.981" y2="62.867" stroke="#8c8c8c" stroke-width="0.3" stroke-dasharray="1.2,0.8"/>
<line x1="151.72" y1="49.739" x2="106.981" y2="49.739" stroke="#8c8c8c" stroke-width="0.3" stroke-dasharray="1.2,0.8"/>
<line x1="62.242" y1="49.739" x2="106.981" y2="49.739" stroke="#8c8c8c" stroke-width="0.3" stroke-dasharray="1.2,0.8"/>
<line x1="151.72" y1="107.606" x2="151.72" y2="62.867" stroke="#8c8c8c" stroke-width="0.3" stroke-dasharray="1.2,0.8"/>
<line x1="17.503" y1="49.739" x2="17.503" y2="5.0" stroke="#8c8c8c" stroke-width="0.3" stroke-dasharray="1.2,0.8"/>
<line x1="151.72" y1="107.606" x2="106.981" y2="107.606" stroke="#8c8c8c" stroke-width="0.3" stroke-dasharray="1.2,0.8"/>
<line x1="196.458" y1="49.739" x2="196.458" y2="62.867" stroke="#8c8c8c" stroke-width="0.3" stroke-dasharray="1.2,0.8"/>
<line x1="106.981" y1="107.606" x2="106.981" y2="62.867" stroke="#141414" stroke-width="0.4"/>
<line x1="17.503" y1="5.0" x2="62.242" y2="5.0" stroke="#141414" stroke-width="0.4"/>
<line x1="62.242" y1="5.0" x2="62.242" y2="49.739" stroke="#141414" stroke-width="0.4"/>
<line x1="196.458" y1="62.867" x2="151.72" y2="62.867" stroke="#141414" stroke-width="0.4"/>
<line x1="151.72" y1="49.739" x2="196.458" y2="49.739" stroke="#141414" stroke-width="0.4"/>
<line x1="62.242" y1="62.867" x2="17.503" y2="62.867" stroke="#141414" stroke-width="0.4"/>
<line x1="17.503" y1="62.867" x2="17.503" y2="49.739" stroke="#141414" stroke-width="0.4"/>
<line x1="106.981" y1="62.867" x2="100.27" y2="69.867" stroke="#141414" stroke-width="0.4"/>
<line x1="100.27" y1="69.867" x2="68.953" y2="69.867" stroke="#141414" stroke-width="0.4"/>
<line x1="68.953" y1="69.867" x2="62.242" y2="62.867" stroke="#141414" stroke-width="0.4"/>
<line x1="106.981" y1="49.739" x2="113.692" y2="42.739" stroke="#141414" stroke-width="0.4"/>
<line x1="113.692" y1="42.739" x2="145.009" y2="42.739" stroke="#141414" stroke-width="0.4"/>
<line x1="145.009" y1="42.739" x2="151.72" y2="49.739" stroke="#141414" stroke-width="0.4"/>
<line x1="106.981" y1="49.739" x2="100.27" y2="42.739" stroke="#141414" stroke-width="0.4"/>
<line x1="100.27" y1="42.739" x2="68.953" y2="42.739" stroke="#141414" stroke-width="0.4"/>
<line x1="68.953" y1="42.739" x2="62.242" y2="49.739" stroke="#141414" stroke-width="0.4"/>
<line x1="151.72" y1="62.867" x2="158.72" y2="69.578" stroke="#141414" stroke-width="0.4"/>
<line x1="158.72" y1="69.578" x2="158.72" y2="100.895" stroke="#141414" stroke-width="0.4"/>
<line x1="158.72" y1="100.895" x2="151.72" y2="107.606" stroke="#141414" stroke-width="0.4"/>
<line x1="17.503" y1="5.0" x2="10.503" y2="11.711" stroke="#141414" stroke-width="0.4"/>
<line x1="10.503" y1="11.711" x2="10.503" y2="43.028" stroke="#141414" stroke-width="0.4"/>
<line x1="10.503" y1="43.028" x2="17.503" y2="49.739" stroke="#141414" stroke-width="0.4"/>
<line x1="106.981" y1="107.606" x2="113.692" y2="114.606" stroke="#141414" stroke-width="0.4"/>
<line x1="113.692" y1="114.606" x2="145.009" y2="114.606" stroke="#141414" stroke-width="0.4"/>
<line x1="145.009" y1="114.606" x2="151.72" y2="107.606" stroke="#141414" stroke-width="0.4"/>
<line x1="196.458" y1="62.867" x2="203.023" y2="60.898" stroke="#141414" stroke-width="0.4"/>
<line x1="203.023" y1="60.898" x2="203.023" y2="51.708" stroke="#141414" stroke-width="0.4"/>
<line x1="203.023" y1="51.708" x2="196.458" y2="49.739" stroke="#141414" stroke-width="0.4"/>
<circle cx="84.611" cy="66.367" r="2.00" fill="#99d9fa" stroke="#464646" stroke-width="0.2"/>
<text x="84.611" y="67.32" font-size="2.72" text-anchor="middle" fill="#141414">47</text>
<circle cx="129.35" cy="46.239" r="2.00" fill="#ffe082" stroke="#464646" stroke-width="0.2"/>
<text x="129.35" y="47.19" font-size="2.72" text-anchor="middle" fill="#141414">48</text>
<circle cx="84.611" cy="46.239" r="2.00" fill="#ffe082" stroke="#464646" stroke-width="0.2"/>
<text x="84.611" y="47.19" font-size="2.72" text-anchor="middle" fill="#141414">49</text>
<circle cx="155.22" cy="85.236" r="2.00" fill="#ffe082" stroke="#464646" stroke-width="0.2"/>
<text x="155.22" y="86.19" font-size="2.72" text-anchor="middle" fill="#141414">50</text>
<circle cx="14.003" cy="27.369" r="2.00" fill="#ffe082" stroke="#464646" stroke-width="0.2"/>
<text x="14.003" y="28.32" font-size="2.72" text-anchor="middle" fill="#141414">51</text>
<circle cx="129.35" cy="111.106" r="2.00" fill="#ffe082" stroke="#464646" stroke-width="0.2"/>
<text x="129.35" y="112.06" font-size="2.72" text-anchor="middle" fill="#141414">52</text>
<circle cx="199.74" cy="56.303" r="2.00" fill="#ffe082" stroke="#464646" stroke-width="0.2"/>
<text x="199.74" y="57.25" font-size="2.72" text-anchor="middle" fill="#141414">53</text>
<circle cx="136.807" cy="92.693" r="4.60" fill="#eaf1fe" stroke="#2e78e6" stroke-width="0.3"/>
<text x="136.807" y="94.49" font-size="5.20" text-anchor="middle" fill="#14306e" font-weight="bold">7</text>
<polygon points="81.88,138.114 78.989,131.106 88.597,121.497 95.606,124.388" fill="rgb(216,216,216)"/>
<polygon points="11.181,218.727 7.418,223.252 10.766,226.005 14.994,222.54" fill="rgb(216,216,216)"/>
<polygon points="11.181,218.727 7.185,223.048 5.0,218.81 6.903,215.444" fill="rgb(216,216,216)"/>
<polygon points="95.606,151.841 102.615,154.732 112.224,145.123 109.333,138.114" fill="rgb(216,216,216)"/>
<polygon points="14.994,222.54 11.42,225.962 17.948,226.39 18.277,226.818" fill="rgb(216,216,216)"/>
<polygon points="109.333,138.114 112.224,131.106 102.615,121.497 95.606,124.388" fill="rgb(216,216,216)"/>
<polygon points="117.132,184.052 105.805,197.445 38.494,230.65 20.973,231.487" fill="rgb(216,216,216)"/>
<polygon points="81.88,138.114 78.989,131.106 88.597,121.497 95.606,124.388" fill="#99d9fa"/>
<line x1="11.181" y1="218.727" x2="81.879" y2="138.114" stroke="#8c8c8c" stroke-width="0.3" stroke-dasharray="1.2,0.8"/>
<line x1="95.606" y1="151.841" x2="81.879" y2="138.114" stroke="#8c8c8c" stroke-width="0.3" stroke-dasharray="1.2,0.8"/>
<line x1="95.606" y1="151.841" x2="14.994" y2="222.54" stroke="#8c8c8c" stroke-width="0.3" stroke-dasharray="1.2,0.8"/>
<line x1="107.424" y1="167.242" x2="18.277" y2="226.818" stroke="#8c8c8c" stroke-width="0.3" stroke-dasharray="1.2,0.8"/>
<line x1="20.973" y1="231.487" x2="18.277" y2="226.818" stroke="#8c8c8c" stroke-width="0.3" stroke-dasharray="1.2,0.8"/>
<line x1="95.606" y1="124.388" x2="81.88" y2="138.114" stroke="#8c8c8c" stroke-width="0.3" stroke-dasharray="1.2,0.8"/>
<line x1="14.994" y1="222.54" x2="11.181" y2="218.727" stroke="#8c8c8c" stroke-width="0.3" stroke-dasharray="1.2,0.8"/>
<line x1="6.903" y1="215.444" x2="11.181" y2="218.727" stroke="#8c8c8c" stroke-width="0.3" stroke-dasharray="1.2,0.8"/>
<line x1="109.333" y1="138.114" x2="95.606" y2="151.841" stroke="#8c8c8c" stroke-width="0.3" stroke-dasharray="1.2,0.8"/>
<line x1="18.277" y1="226.818" x2="14.994" y2="222.54" stroke="#8c8c8c" stroke-width="0.3" stroke-dasharray="1.2,0.8"/>
<line x1="95.606" y1="124.388" x2="109.333" y2="138.114" stroke="#8c8c8c" stroke-width="0.3" stroke-dasharray="1.2,0.8"/>
<line x1="20.973" y1="231.487" x2="117.132" y2="184.052" stroke="#8c8c8c" stroke-width="0.3" stroke-dasharray="1.2,0.8"/>
<line x1="66.479" y1="126.296" x2="81.879" y2="138.114" stroke="#141414" stroke-width="0.4"/>
<line x1="16.304" y1="234.184" x2="13.607" y2="229.514" stroke="#141414" stroke-width="0.4"/>
<line x1="20.973" y1="231.487" x2="16.304" y2="234.184" stroke="#141414" stroke-width="0.4"/>
<line x1="95.606" y1="151.841" x2="107.424" y2="167.242" stroke="#141414" stroke-width="0.4"/>
<line x1="13.607" y1="229.514" x2="18.277" y2="226.818" stroke="#141414" stroke-width="0.4"/>
<line x1="107.424" y1="167.242" x2="117.132" y2="184.052" stroke="#141414" stroke-width="0.4"/>
<line x1="6.903" y1="215.444" x2="66.479" y2="126.296" stroke="#141414" stroke-width="0.4"/>
<line x1="81.88" y1="138.114" x2="78.989" y2="131.106" stroke="#141414" stroke-width="0.4"/>
<line x1="78.989" y1="131.106" x2="88.597" y2="121.497" stroke="#141414" stroke-width="0.4"/>
<line x1="88.597" y1="121.497" x2="95.606" y2="124.388" stroke="#141414" stroke-width="0.4"/>
<line x1="11.181" y1="218.727" x2="7.418" y2="223.252" stroke="#141414" stroke-width="0.4"/>
<line x1="7.418" y1="223.252" x2="10.766" y2="226.005" stroke="#141414" stroke-width="0.4"/>
<line x1="10.766" y1="226.005" x2="14.994" y2="222.54" stroke="#141414" stroke-width="0.4"/>
<line x1="11.181" y1="218.727" x2="7.185" y2="223.048" stroke="#141414" stroke-width="0.4"/>
<line x1="7.185" y1="223.048" x2="5.0" y2="218.81" stroke="#141414" stroke-width="0.4"/>
<line x1="5.0" y1="218.81" x2="6.903" y2="215.444" stroke="#141414" stroke-width="0.4"/>
<line x1="95.606" y1="151.841" x2="102.615" y2="154.732" stroke="#141414" stroke-width="0.4"/>
<line x1="102.615" y1="154.732" x2="112.224" y2="145.123" stroke="#141414" stroke-width="0.4"/>
<line x1="112.224" y1="145.123" x2="109.333" y2="138.114" stroke="#141414" stroke-width="0.4"/>
<line x1="14.994" y1="222.54" x2="11.42" y2="225.962" stroke="#141414" stroke-width="0.4"/>
<line x1="11.42" y1="225.962" x2="17.948" y2="226.39" stroke="#141414" stroke-width="0.4"/>
<line x1="17.948" y1="226.39" x2="18.277" y2="226.818" stroke="#141414" stroke-width="0.4"/>
<line x1="109.333" y1="138.114" x2="112.224" y2="131.106" stroke="#141414" stroke-width="0.4"/>
<line x1="112.224" y1="131.106" x2="102.615" y2="121.497" stroke="#141414" stroke-width="0.4"/>
<line x1="102.615" y1="121.497" x2="95.606" y2="124.388" stroke="#141414" stroke-width="0.4"/>
<line x1="117.132" y1="184.052" x2="105.805" y2="197.445" stroke="#141414" stroke-width="0.4"/>
<line x1="105.805" y1="197.445" x2="38.494" y2="230.65" stroke="#141414" stroke-width="0.4"/>
<line x1="38.494" y1="230.65" x2="20.973" y2="231.487" stroke="#141414" stroke-width="0.4"/>
<circle cx="86.268" cy="128.776" r="2.00" fill="#99d9fa" stroke="#464646" stroke-width="0.2"/>
<text x="86.268" y="129.73" font-size="2.72" text-anchor="middle" fill="#141414">54</text>
<circle cx="104.944" cy="147.453" r="2.00" fill="#ffe082" stroke="#464646" stroke-width="0.2"/>
<text x="104.944" y="148.40" font-size="2.72" text-anchor="middle" fill="#141414">57</text>
<circle cx="104.944" cy="128.776" r="2.00" fill="#ffe082" stroke="#464646" stroke-width="0.2"/>
<text x="104.944" y="129.73" font-size="2.72" text-anchor="middle" fill="#141414">59</text>
<circle cx="70.601" cy="210.909" r="2.00" fill="#ffe082" stroke="#464646" stroke-width="0.2"/>
<text x="70.601" y="211.86" font-size="2.72" text-anchor="middle" fill="#141414">60</text>
<circle cx="80.944" cy="192.704" r="4.60" fill="#eaf1fe" stroke="#2e78e6" stroke-width="0.3"/>
<text x="80.944" y="194.50" font-size="5.20" text-anchor="middle" fill="#14306e" font-weight="bold">8</text>
<text x="205.0" y="295.0" font-size="3.2" text-anchor="end" fill="#737373" font-family="sans-serif">4 / 4</text>
<g pointer-events="none"><text x="105.0" y="83.2" text-anchor="middle" font-family="sans-serif" font-size="12.4" fill="#9aa0a6" fill-opacity="0.3" transform="rotate(-28 105.0 83.2)">papercraft.kr</text><text x="105.0" y="148.5" text-anchor="middle" font-family="sans-serif" font-size="12.4" fill="#9aa0a6" fill-opacity="0.3" transform="rotate(-28 105.0 148.5)">papercraft.kr</text><text x="105.0" y="213.8" text-anchor="middle" font-family="sans-serif" font-size="12.4" fill="#9aa0a6" fill-opacity="0.3" transform="rotate(-28 105.0 213.8)">papercraft.kr</text></g></svg>
