<svg xmlns="http://www.w3.org/2000/svg" xmlns:xlink="http://www.w3.org/1999/xlink" width="210.00mm" height="297.00mm" viewBox="0 0 210.00 297.00">
<rect x="0" y="0" width="210.00" height="297.00" fill="#ffffff" stroke="#cccccc" stroke-width="0.2"/>
<polygon points="66.049,104.216 55.517,111.238 47.938,124.339 47.1,136.969" fill="rgb(216,216,216)"/>
<polygon points="47.1,136.969 61.7,141.607 67.12,141.246 80.974,134.708" fill="rgb(216,216,216)"/>
<polygon points="28.608,98.741 34.035,84.415 37.683,80.391 51.408,73.587" fill="rgb(216,216,216)"/>
<polygon points="17.504,71.848 15.255,64.357 27.616,42.073 35.161,40.015" fill="rgb(216,216,216)"/>
<polygon points="152.561,135.533 154.566,143.251 141.301,166.178 133.612,168.286" fill="rgb(216,216,216)"/>
<polygon points="152.561,135.533 137.961,130.895 132.541,131.257 118.687,137.794" fill="rgb(216,216,216)"/>
<polygon points="95.199,16.951 89.773,31.276 86.124,35.301 72.4,42.105" fill="rgb(216,216,216)"/>
<polygon points="125.049,75.677 114.128,70.077 99.567,70.077 88.646,75.677" fill="rgb(216,216,216)"/>
<polygon points="125.049,75.677 122.66,87.715 113.621,99.131 102.452,104.216" fill="rgb(216,216,216)"/>
<polygon points="57.758,11.475 49.978,12.28 34.16,32.258 35.161,40.015" fill="rgb(216,216,216)"/>
<polygon points="133.612,168.286 122.691,173.886 108.13,173.886 97.21,168.286" fill="rgb(216,216,216)"/>
<polygon points="28.608,98.741 34.035,84.415 37.683,80.391 51.408,73.587" fill="#99d9fa"/>
<line x1="80.974" y1="134.708" x2="66.049" y2="104.216" stroke="#8c8c8c" stroke-width="0.3" stroke-dasharray="1.2,0.8"/>
<line x1="51.408" y1="73.587" x2="66.049" y2="104.216" stroke="#8c8c8c" stroke-width="0.3" stroke-dasharray="1.2,0.8"/>
<line x1="88.646" y1="75.677" x2="66.049" y2="104.216" stroke="#8c8c8c" stroke-width="0.3" stroke-dasharray="1.2,0.8"/>
<line x1="66.049" y1="104.216" x2="102.451" y2="104.216" stroke="#8c8c8c" stroke-width="0.3" stroke-dasharray="1.2,0.8"/>
<line x1="97.21" y1="168.286" x2="61.291" y2="162.369" stroke="#8c8c8c" stroke-width="0.3" stroke-dasharray="1.2,0.8"/>
<line x1="118.687" y1="137.794" x2="133.612" y2="168.286" stroke="#8c8c8c" stroke-width="0.3" stroke-dasharray="1.2,0.8"/>
<line x1="72.4" y1="42.105" x2="57.758" y2="11.475" stroke="#8c8c8c" stroke-width="0.3" stroke-dasharray="1.2,0.8"/>
<line x1="118.687" y1="137.794" x2="80.974" y2="134.708" stroke="#8c8c8c" stroke-width="0.3" stroke-dasharray="1.2,0.8"/>
<line x1="97.21" y1="168.286" x2="118.687" y2="137.794" stroke="#8c8c8c" stroke-width="0.3" stroke-dasharray="1.2,0.8"/>
<line x1="102.451" y1="104.216" x2="118.687" y2="137.794" stroke="#8c8c8c" stroke-width="0.3" stroke-dasharray="1.2,0.8"/>
<line x1="80.974" y1="134.708" x2="97.21" y2="168.286" stroke="#8c8c8c" stroke-width="0.3" stroke-dasharray="1.2,0.8"/>
<line x1="102.451" y1="104.216" x2="80.974" y2="134.708" stroke="#8c8c8c" stroke-width="0.3" stroke-dasharray="1.2,0.8"/>
<line x1="51.408" y1="73.587" x2="72.4" y2="42.105" stroke="#8c8c8c" stroke-width="0.3" stroke-dasharray="1.2,0.8"/>
<line x1="72.4" y1="42.105" x2="35.161" y2="40.015" stroke="#8c8c8c" stroke-width="0.3" stroke-dasharray="1.2,0.8"/>
<line x1="72.4" y1="42.105" x2="88.646" y2="75.677" stroke="#8c8c8c" stroke-width="0.3" stroke-dasharray="1.2,0.8"/>
<line x1="35.161" y1="40.015" x2="51.408" y2="73.587" stroke="#8c8c8c" stroke-width="0.3" stroke-dasharray="1.2,0.8"/>
<line x1="51.408" y1="73.587" x2="88.646" y2="75.677" stroke="#8c8c8c" stroke-width="0.3" stroke-dasharray="1.2,0.8"/>
<line x1="78.949" y1="194.202" x2="97.21" y2="168.286" stroke="#8c8c8c" stroke-width="0.3" stroke-dasharray="1.2,0.8"/>
<line x1="88.646" y1="75.677" x2="102.451" y2="104.216" stroke="#8c8c8c" stroke-width="0.3" stroke-dasharray="1.2,0.8"/>
<line x1="47.1" y1="136.969" x2="66.049" y2="104.216" stroke="#8c8c8c" stroke-width="0.3" stroke-dasharray="1.2,0.8"/>
<line x1="80.974" y1="134.708" x2="47.1" y2="136.969" stroke="#8c8c8c" stroke-width="0.3" stroke-dasharray="1.2,0.8"/>
<line x1="51.408" y1="73.587" x2="28.608" y2="98.741" stroke="#8c8c8c" stroke-width="0.3" stroke-dasharray="1.2,0.8"/>
<line x1="35.161" y1="40.015" x2="17.504" y2="71.848" stroke="#8c8c8c" stroke-width="0.3" stroke-dasharray="1.2,0.8"/>
<line x1="133.612" y1="168.286" x2="152.561" y2="135.533" stroke="#8c8c8c" stroke-width="0.3" stroke-dasharray="1.2,0.8"/>
<line x1="118.687" y1="137.794" x2="152.561" y2="135.533" stroke="#8c8c8c" stroke-width="0.3" stroke-dasharray="1.2,0.8"/>
<line x1="72.4" y1="42.105" x2="95.199" y2="16.951" stroke="#8c8c8c" stroke-width="0.3" stroke-dasharray="1.2,0.8"/>
<line x1="88.646" y1="75.677" x2="125.049" y2="75.677" stroke="#8c8c8c" stroke-width="0.3" stroke-dasharray="1.2,0.8"/>
<line x1="102.452" y1="104.216" x2="125.049" y2="75.677" stroke="#8c8c8c" stroke-width="0.3" stroke-dasharray="1.2,0.8"/>
<line x1="35.161" y1="40.015" x2="57.758" y2="11.475" stroke="#8c8c8c" stroke-width="0.3" stroke-dasharray="1.2,0.8"/>
<line x1="97.21" y1="168.286" x2="133.612" y2="168.286" stroke="#8c8c8c" stroke-width="0.3" stroke-dasharray="1.2,0.8"/>
<line x1="66.049" y1="104.216" x2="28.608" y2="98.741" stroke="#141414" stroke-width="0.4"/>
<line x1="61.291" y1="162.369" x2="80.974" y2="134.708" stroke="#141414" stroke-width="0.4"/>
<line x1="51.408" y1="73.587" x2="17.504" y2="71.848" stroke="#141414" stroke-width="0.4"/>
<line x1="78.949" y1="194.202" x2="61.291" y2="162.369" stroke="#141414" stroke-width="0.4"/>
<line x1="57.758" y1="11.475" x2="95.199" y2="16.951" stroke="#141414" stroke-width="0.4"/>
<line x1="138.37" y1="110.133" x2="118.687" y2="137.794" stroke="#141414" stroke-width="0.4"/>
<line x1="72.4" y1="42.105" x2="106.304" y2="43.844" stroke="#141414" stroke-width="0.4"/>
<line x1="106.304" y1="43.844" x2="88.646" y2="75.677" stroke="#141414" stroke-width="0.4"/>
<line x1="102.451" y1="104.216" x2="138.37" y2="110.133" stroke="#141414" stroke-width="0.4"/>
<line x1="114.867" y1="200.119" x2="78.949" y2="194.202" stroke="#141414" stroke-width="0.4"/>
<line x1="97.21" y1="168.286" x2="114.867" y2="200.119" stroke="#141414" stroke-width="0.4"/>
<line x1="66.049" y1="104.216" x2="55.517" y2="111.238" stroke="#141414" stroke-width="0.4"/>
<line x1="55.517" y1="111.238" x2="47.938" y2="124.339" stroke="#141414" stroke-width="0.4"/>
<line x1="47.938" y1="124.339" x2="47.1" y2="136.969" stroke="#141414" stroke-width="0.4"/>
<line x1="47.1" y1="136.969" x2="61.7" y2="141.607" stroke="#141414" stroke-width="0.4"/>
<line x1="61.7" y1="141.607" x2="67.12" y2="141.246" stroke="#141414" stroke-width="0.4"/>
<line x1="67.12" y1="141.246" x2="80.974" y2="134.708" stroke="#141414" stroke-width="0.4"/>
<line x1="28.608" y1="98.741" x2="34.035" y2="84.415" stroke="#141414" stroke-width="0.4"/>
<line x1="34.035" y1="84.415" x2="37.683" y2="80.391" stroke="#141414" stroke-width="0.4"/>
<line x1="37.683" y1="80.391" x2="51.408" y2="73.587" stroke="#141414" stroke-width="0.4"/>
<line x1="17.504" y1="71.848" x2="15.255" y2="64.357" stroke="#141414" stroke-width="0.4"/>
<line x1="15.255" y1="64.357" x2="27.616" y2="42.073" stroke="#141414" stroke-width="0.4"/>
<line x1="27.616" y1="42.073" x2="35.161" y2="40.015" stroke="#141414" stroke-width="0.4"/>
<line x1="152.561" y1="135.533" x2="154.566" y2="143.251" stroke="#141414" stroke-width="0.4"/>
<line x1="154.566" y1="143.251" x2="141.301" y2="166.178" stroke="#141414" stroke-width="0.4"/>
<line x1="141.301" y1="166.178" x2="133.612" y2="168.286" stroke="#141414" stroke-width="0.4"/>
<line x1="152.561" y1="135.533" x2="137.961" y2="130.895" stroke="#141414" stroke-width="0.4"/>
<line x1="137.961" y1="130.895" x2="132.541" y2="131.257" stroke="#141414" stroke-width="0.4"/>
<line x1="132.541" y1="131.257" x2="118.687" y2="137.794" stroke="#141414" stroke-width="0.4"/>
<line x1="95.199" y1="16.951" x2="89.773" y2="31.276" stroke="#141414" stroke-width="0.4"/>
<line x1="89.773" y1="31.276" x2="86.124" y2="35.301" stroke="#141414" stroke-width="0.4"/>
<line x1="86.124" y1="35.301" x2="72.4" y2="42.105" stroke="#141414" stroke-width="0.4"/>
<line x1="125.049" y1="75.677" x2="114.128" y2="70.077" stroke="#141414" stroke-width="0.4"/>
<line x1="114.128" y1="70.077" x2="99.567" y2="70.077" stroke="#141414" stroke-width="0.4"/>
<line x1="99.567" y1="70.077" x2="88.646" y2="75.677" stroke="#141414" stroke-width="0.4"/>
<line x1="125.049" y1="75.677" x2="122.66" y2="87.715" stroke="#141414" stroke-width="0.4"/>
<line x1="122.66" y1="87.715" x2="113.621" y2="99.131" stroke="#141414" stroke-width="0.4"/>
<line x1="113.621" y1="99.131" x2="102.452" y2="104.216" stroke="#141414" stroke-width="0.4"/>
<line x1="57.758" y1="11.475" x2="49.978" y2="12.28" stroke="#141414" stroke-width="0.4"/>
<line x1="49.978" y1="12.28" x2="34.16" y2="32.258" stroke="#141414" stroke-width="0.4"/>
<line x1="34.16" y1="32.258" x2="35.161" y2="40.015" stroke="#141414" stroke-width="0.4"/>
<line x1="133.612" y1="168.286" x2="122.691" y2="173.886" stroke="#141414" stroke-width="0.4"/>
<line x1="122.691" y1="173.886" x2="108.13" y2="173.886" stroke="#141414" stroke-width="0.4"/>
<line x1="108.13" y1="173.886" x2="97.21" y2="168.286" stroke="#141414" stroke-width="0.4"/>
<circle cx="54.151" cy="119.191" r="2.34" fill="#ffe082" stroke="#464646" stroke-width="0.2"/>
<text x="54.151" y="119.99" font-size="2.30" text-anchor="middle" fill="#141414">56</text>
<circle cx="64.224" cy="138.633" r="2.34" fill="#ffe082" stroke="#464646" stroke-width="0.2"/>
<text x="64.224" y="139.44" font-size="2.30" text-anchor="middle" fill="#141414">57</text>
<circle cx="37.934" cy="84.284" r="2.34" fill="#99d9fa" stroke="#464646" stroke-width="0.2"/>
<text x="37.934" y="85.09" font-size="2.30" text-anchor="middle" fill="#141414">58</text>
<circle cx="23.884" cy="54.573" r="2.34" fill="#ffe082" stroke="#464646" stroke-width="0.2"/>
<text x="23.884" y="55.38" font-size="2.30" text-anchor="middle" fill="#141414">59</text>
<circle cx="145.51" cy="153.312" r="2.34" fill="#ffe082" stroke="#464646" stroke-width="0.2"/>
<text x="145.51" y="154.12" font-size="2.30" text-anchor="middle" fill="#141414">60</text>
<circle cx="135.437" cy="133.87" r="2.34" fill="#ffe082" stroke="#464646" stroke-width="0.2"/>
<text x="135.437" y="134.67" font-size="2.30" text-anchor="middle" fill="#141414">61</text>
<circle cx="85.874" cy="31.408" r="2.34" fill="#ffe082" stroke="#464646" stroke-width="0.2"/>
<text x="85.874" y="32.21" font-size="2.30" text-anchor="middle" fill="#141414">62</text>
<circle cx="106.847" cy="72.877" r="2.34" fill="#ffe082" stroke="#464646" stroke-width="0.2"/>
<text x="106.847" y="73.68" font-size="2.30" text-anchor="middle" fill="#141414">63</text>
<circle cx="115.945" cy="91.685" r="2.34" fill="#ffe082" stroke="#464646" stroke-width="0.2"/>
<text x="115.945" y="92.49" font-size="2.30" text-anchor="middle" fill="#141414">64</text>
<circle cx="44.265" cy="24.007" r="2.34" fill="#ffe082" stroke="#464646" stroke-width="0.2"/>
<text x="44.265" y="24.81" font-size="2.30" text-anchor="middle" fill="#141414">65</text>
<circle cx="115.411" cy="171.086" r="2.34" fill="#ffe082" stroke="#464646" stroke-width="0.2"/>
<text x="115.411" y="171.89" font-size="2.30" text-anchor="middle" fill="#141414">66</text>
<circle cx="52.99" cy="51.902" r="4.60" fill="#eaf1fe" stroke="#2e78e6" stroke-width="0.3"/>
<text x="52.99" y="53.70" font-size="5.20" text-anchor="middle" fill="#14306e" font-weight="bold">6</text>
<text x="205.0" y="295.0" font-size="3.2" text-anchor="end" fill="#737373" font-family="sans-serif">6 / 10</text>
</svg>
