<svg xmlns="http://www.w3.org/2000/svg" xmlns:xlink="http://www.w3.org/1999/xlink" width="210.00mm" height="297.00mm" viewBox="0 0 210.00 297.00">
<rect x="0" y="0" width="210.00" height="297.00" fill="#ffffff" stroke="#cccccc" stroke-width="0.2"/>
<polygon points="59.828,196.63 59.999,195.824 22.804,209.286 14.194,214.054" fill="rgb(216,216,216)"/>
<polygon points="74.737,186.245 73.639,185.677 84.906,170.234 92.826,164.486" fill="rgb(216,216,216)"/>
<polygon points="101.918,138.511 100.862,138.93 104.015,115.54 107.554,106.629" fill="rgb(216,216,216)"/>
<polygon points="130.063,19.138 128.586,17.817 122.772,22.524 121.1,31.601" fill="rgb(216,216,216)"/>
<polygon points="110.931,45.739 105.169,44.345 90.242,60.748 92.172,66.354" fill="rgb(216,216,216)"/>
<line x1="79.81" y1="224.556" x2="69.023" y2="193.119" stroke="#8c8c8c" stroke-width="0.3" stroke-dasharray="1.2,0.8"/>
<line x1="98.541" y1="157.613" x2="132.049" y2="159.593" stroke="#8c8c8c" stroke-width="0.3" stroke-dasharray="1.2,0.8"/>
<line x1="110.931" y1="87.528" x2="132.049" y2="159.593" stroke="#8c8c8c" stroke-width="0.3" stroke-dasharray="1.2,0.8"/>
<line x1="110.931" y1="87.528" x2="168.197" y2="83.373" stroke="#8c8c8c" stroke-width="0.3" stroke-dasharray="1.2,0.8"/>
<line x1="88.296" y1="83.706" x2="110.931" y2="87.528" stroke="#8c8c8c" stroke-width="0.3" stroke-dasharray="1.2,0.8"/>
<line x1="92.172" y1="66.353" x2="110.931" y2="87.528" stroke="#8c8c8c" stroke-width="0.3" stroke-dasharray="1.2,0.8"/>
<line x1="110.931" y1="87.528" x2="110.931" y2="45.739" stroke="#8c8c8c" stroke-width="0.3" stroke-dasharray="1.2,0.8"/>
<line x1="14.194" y1="214.054" x2="59.828" y2="196.63" stroke="#8c8c8c" stroke-width="0.3" stroke-dasharray="1.2,0.8"/>
<line x1="92.826" y1="164.486" x2="74.737" y2="186.245" stroke="#8c8c8c" stroke-width="0.3" stroke-dasharray="1.2,0.8"/>
<line x1="107.554" y1="106.629" x2="101.918" y2="138.511" stroke="#8c8c8c" stroke-width="0.3" stroke-dasharray="1.2,0.8"/>
<line x1="121.1" y1="31.601" x2="130.063" y2="19.138" stroke="#8c8c8c" stroke-width="0.3" stroke-dasharray="1.2,0.8"/>
<line x1="92.172" y1="66.354" x2="110.931" y2="45.739" stroke="#8c8c8c" stroke-width="0.3" stroke-dasharray="1.2,0.8"/>
<line x1="79.81" y1="224.556" x2="5.0" y2="217.565" stroke="#141414" stroke-width="0.4"/>
<line x1="132.049" y1="159.593" x2="79.81" y2="224.556" stroke="#141414" stroke-width="0.4"/>
<line x1="5.0" y1="217.565" x2="14.195" y2="214.054" stroke="#141414" stroke-width="0.4"/>
<line x1="59.828" y1="196.63" x2="69.023" y2="193.119" stroke="#141414" stroke-width="0.4"/>
<line x1="69.023" y1="193.119" x2="74.737" y2="186.245" stroke="#141414" stroke-width="0.4"/>
<line x1="92.826" y1="164.486" x2="98.541" y2="157.613" stroke="#141414" stroke-width="0.4"/>
<line x1="98.541" y1="157.613" x2="101.918" y2="138.511" stroke="#141414" stroke-width="0.4"/>
<line x1="107.554" y1="106.629" x2="110.931" y2="87.528" stroke="#141414" stroke-width="0.4"/>
<line x1="168.197" y1="83.373" x2="132.049" y2="159.593" stroke="#141414" stroke-width="0.4"/>
<line x1="110.931" y1="87.528" x2="102.679" y2="116.752" stroke="#141414" stroke-width="0.4"/>
<line x1="102.679" y1="116.752" x2="88.296" y2="83.706" stroke="#141414" stroke-width="0.4"/>
<line x1="140.232" y1="5.0" x2="168.197" y2="83.373" stroke="#141414" stroke-width="0.4"/>
<line x1="110.931" y1="45.739" x2="121.1" y2="31.601" stroke="#141414" stroke-width="0.4"/>
<line x1="130.063" y1="19.138" x2="140.232" y2="5.0" stroke="#141414" stroke-width="0.4"/>
<line x1="88.296" y1="83.706" x2="92.172" y2="66.353" stroke="#141414" stroke-width="0.4"/>
<line x1="59.828" y1="196.63" x2="59.999" y2="195.824" stroke="#141414" stroke-width="0.4"/>
<line x1="59.999" y1="195.824" x2="22.804" y2="209.286" stroke="#141414" stroke-width="0.4"/>
<line x1="22.804" y1="209.286" x2="14.194" y2="214.054" stroke="#141414" stroke-width="0.4"/>
<line x1="74.737" y1="186.245" x2="73.639" y2="185.677" stroke="#141414" stroke-width="0.4"/>
<line x1="73.639" y1="185.677" x2="84.906" y2="170.234" stroke="#141414" stroke-width="0.4"/>
<line x1="84.906" y1="170.234" x2="92.826" y2="164.486" stroke="#141414" stroke-width="0.4"/>
<line x1="101.918" y1="138.511" x2="100.862" y2="138.93" stroke="#141414" stroke-width="0.4"/>
<line x1="100.862" y1="138.93" x2="104.015" y2="115.54" stroke="#141414" stroke-width="0.4"/>
<line x1="104.015" y1="115.54" x2="107.554" y2="106.629" stroke="#141414" stroke-width="0.4"/>
<line x1="130.063" y1="19.138" x2="128.586" y2="17.817" stroke="#141414" stroke-width="0.4"/>
<line x1="128.586" y1="17.817" x2="122.772" y2="22.524" stroke="#141414" stroke-width="0.4"/>
<line x1="122.772" y1="22.524" x2="121.1" y2="31.601" stroke="#141414" stroke-width="0.4"/>
<line x1="110.931" y1="45.739" x2="105.169" y2="44.345" stroke="#141414" stroke-width="0.4"/>
<line x1="105.169" y1="44.345" x2="90.242" y2="60.748" stroke="#141414" stroke-width="0.4"/>
<line x1="90.242" y1="60.748" x2="92.172" y2="66.354" stroke="#141414" stroke-width="0.4"/>
<circle cx="99.629" cy="54.297" r="2.29" fill="#ffe082" stroke="#464646" stroke-width="0.2"/>
<text x="99.629" y="55.08" font-size="2.24" text-anchor="middle" fill="#141414">76</text>
<circle cx="51.278" cy="211.747" r="4.60" fill="#eaf1fe" stroke="#2e78e6" stroke-width="0.3"/>
<text x="51.278" y="213.55" font-size="5.20" text-anchor="middle" fill="#14306e" font-weight="bold">10</text>
<polygon points="95.634,267.361 101.181,263.764 104.051,232.091 99.24,227.556" fill="rgb(216,216,216)"/>
<line x1="33.016" y1="256.039" x2="95.634" y2="267.361" stroke="#8c8c8c" stroke-width="0.3" stroke-dasharray="1.2,0.8"/>
<line x1="95.634" y1="267.361" x2="50.973" y2="227.556" stroke="#8c8c8c" stroke-width="0.3" stroke-dasharray="1.2,0.8"/>
<line x1="33.016" y1="256.039" x2="50.973" y2="227.556" stroke="#8c8c8c" stroke-width="0.3" stroke-dasharray="1.2,0.8"/>
<line x1="99.24" y1="227.556" x2="95.634" y2="267.361" stroke="#8c8c8c" stroke-width="0.3" stroke-dasharray="1.2,0.8"/>
<line x1="95.634" y1="267.361" x2="32.529" y2="275.811" stroke="#141414" stroke-width="0.4"/>
<line x1="32.529" y1="275.811" x2="33.016" y2="256.039" stroke="#141414" stroke-width="0.4"/>
<line x1="33.016" y1="256.039" x2="5.0" y2="239.676" stroke="#141414" stroke-width="0.4"/>
<line x1="50.973" y1="227.556" x2="99.24" y2="227.556" stroke="#141414" stroke-width="0.4"/>
<line x1="5.0" y1="239.676" x2="50.973" y2="227.556" stroke="#141414" stroke-width="0.4"/>
<line x1="95.634" y1="267.361" x2="101.181" y2="263.764" stroke="#141414" stroke-width="0.4"/>
<line x1="101.181" y1="263.764" x2="104.051" y2="232.091" stroke="#141414" stroke-width="0.4"/>
<line x1="104.051" y1="232.091" x2="99.24" y2="227.556" stroke="#141414" stroke-width="0.4"/>
<circle cx="100.026" cy="247.693" r="2.29" fill="#ffe082" stroke="#464646" stroke-width="0.2"/>
<text x="100.026" y="248.48" font-size="2.24" text-anchor="middle" fill="#141414">88</text>
<circle cx="53.726" cy="266.404" r="4.60" fill="#eaf1fe" stroke="#2e78e6" stroke-width="0.3"/>
<text x="53.726" y="268.20" font-size="5.20" text-anchor="middle" fill="#14306e" font-weight="bold">11</text>
<text x="205.0" y="295.0" font-size="3.2" text-anchor="end" fill="#737373" font-family="sans-serif">5 / 9</text>
<g pointer-events="none"><text x="105.0" y="83.2" text-anchor="middle" font-family="sans-serif" font-size="12.4" fill="#9aa0a6" fill-opacity="0.3" transform="rotate(-28 105.0 83.2)">papercraft.kr</text><text x="105.0" y="148.5" text-anchor="middle" font-family="sans-serif" font-size="12.4" fill="#9aa0a6" fill-opacity="0.3" transform="rotate(-28 105.0 148.5)">papercraft.kr</text><text x="105.0" y="213.8" text-anchor="middle" font-family="sans-serif" font-size="12.4" fill="#9aa0a6" fill-opacity="0.3" transform="rotate(-28 105.0 213.8)">papercraft.kr</text></g></svg>
