<svg xmlns="http://www.w3.org/2000/svg" xmlns:xlink="http://www.w3.org/1999/xlink" width="210.00mm" height="297.00mm" viewBox="0 0 210.00 297.00">
<rect x="0" y="0" width="210.00" height="297.00" fill="#ffffff" stroke="#cccccc" stroke-width="0.2"/>
<polygon points="16.434,179.194 15.175,186.571 29.858,208.066 37.187,209.577" fill="rgb(216,216,216)"/>
<polygon points="5.0,153.664 7.426,147.901 23.921,144.724 28.314,149.173" fill="rgb(216,216,216)"/>
<polygon points="37.187,209.577 42.074,213.459 57.952,208.31 59.63,202.299" fill="rgb(216,216,216)"/>
<polygon points="49.31,156.69 60.697,153.164 71.814,142.774 76.099,131.651" fill="rgb(216,216,216)"/>
<polygon points="170.25,61.204 169.031,67.282 153.861,73.298 148.808,69.708" fill="rgb(216,216,216)"/>
<polygon points="170.25,61.204 163.256,50.984 116.546,23.152 104.228,21.866" fill="rgb(216,216,216)"/>
<polygon points="76.099,131.651 69.77,148.202 69.676,148.899 71.411,166.534" fill="rgb(216,216,216)"/>
<polygon points="94.819,189.993 95.206,196.125 82.363,205.386 76.667,203.082" fill="rgb(216,216,216)"/>
<polygon points="71.411,166.534 65.755,164.763 55.846,174.312 57.406,180.03" fill="rgb(216,216,216)"/>
<polygon points="141.523,164.114 141.716,169.96 130.402,176.268 125.53,173.03" fill="rgb(216,216,216)"/>
<polygon points="76.667,203.082 69.859,203.045 56.233,186.736 57.406,180.03" fill="rgb(216,216,216)"/>
<polygon points="110.141,178.766 116.459,181.961 122.845,179.581 125.53,173.03" fill="rgb(216,216,216)"/>
<polygon points="99.719,99.778 99.337,105.571 87.811,110.374 83.428,106.567" fill="rgb(216,216,216)"/>
<polygon points="148.808,69.708 137.781,68.749 98.135,43.013 92.771,33.331" fill="rgb(216,216,216)"/>
<polygon points="48.391,37.457 43.191,33.603 43.191,14.961 48.391,11.108" fill="rgb(216,216,216)"/>
<polygon points="74.172,26.967 73.126,20.219 54.886,8.998 48.391,11.108" fill="rgb(216,216,216)"/>
<polygon points="104.228,21.866 107.446,16.911 100.939,5.001 95.03,5.032" fill="rgb(216,216,216)"/>
<polygon points="141.523,164.114 141.716,169.96 130.402,176.268 125.53,173.03" fill="#99d9fa"/>
<line x1="37.187" y1="209.577" x2="28.314" y2="149.173" stroke="#8c8c8c" stroke-width="0.3" stroke-dasharray="1.2,0.8"/>
<line x1="28.314" y1="149.173" x2="59.63" y2="202.299" stroke="#8c8c8c" stroke-width="0.3" stroke-dasharray="1.2,0.8"/>
<line x1="28.314" y1="149.173" x2="76.099" y2="131.651" stroke="#8c8c8c" stroke-width="0.3" stroke-dasharray="1.2,0.8"/>
<line x1="94.819" y1="189.993" x2="76.099" y2="131.651" stroke="#8c8c8c" stroke-width="0.3" stroke-dasharray="1.2,0.8"/>
<line x1="76.099" y1="131.651" x2="110.141" y2="178.767" stroke="#8c8c8c" stroke-width="0.3" stroke-dasharray="1.2,0.8"/>
<line x1="76.099" y1="131.651" x2="93.598" y2="123.524" stroke="#8c8c8c" stroke-width="0.3" stroke-dasharray="1.2,0.8"/>
<line x1="68.549" y1="114.401" x2="76.099" y2="131.651" stroke="#8c8c8c" stroke-width="0.3" stroke-dasharray="1.2,0.8"/>
<line x1="71.411" y1="166.534" x2="94.819" y2="189.993" stroke="#8c8c8c" stroke-width="0.3" stroke-dasharray="1.2,0.8"/>
<line x1="110.141" y1="178.767" x2="94.819" y2="189.993" stroke="#8c8c8c" stroke-width="0.3" stroke-dasharray="1.2,0.8"/>
<line x1="94.819" y1="189.993" x2="122.266" y2="189.844" stroke="#8c8c8c" stroke-width="0.3" stroke-dasharray="1.2,0.8"/>
<line x1="48.392" y1="102.435" x2="74.172" y2="26.967" stroke="#8c8c8c" stroke-width="0.3" stroke-dasharray="1.2,0.8"/>
<line x1="76.667" y1="203.082" x2="71.411" y2="166.534" stroke="#8c8c8c" stroke-width="0.3" stroke-dasharray="1.2,0.8"/>
<line x1="93.598" y1="123.524" x2="110.141" y2="178.767" stroke="#8c8c8c" stroke-width="0.3" stroke-dasharray="1.2,0.8"/>
<line x1="125.53" y1="173.03" x2="93.598" y2="123.524" stroke="#8c8c8c" stroke-width="0.3" stroke-dasharray="1.2,0.8"/>
<line x1="68.549" y1="114.401" x2="74.172" y2="26.967" stroke="#8c8c8c" stroke-width="0.3" stroke-dasharray="1.2,0.8"/>
<line x1="129.754" y1="136.476" x2="125.53" y2="173.03" stroke="#8c8c8c" stroke-width="0.3" stroke-dasharray="1.2,0.8"/>
<line x1="74.172" y1="26.967" x2="83.428" y2="106.567" stroke="#8c8c8c" stroke-width="0.3" stroke-dasharray="1.2,0.8"/>
<line x1="92.771" y1="33.331" x2="83.428" y2="106.567" stroke="#8c8c8c" stroke-width="0.3" stroke-dasharray="1.2,0.8"/>
<line x1="74.172" y1="26.967" x2="48.391" y2="37.457" stroke="#8c8c8c" stroke-width="0.3" stroke-dasharray="1.2,0.8"/>
<line x1="74.172" y1="26.967" x2="92.771" y2="33.331" stroke="#8c8c8c" stroke-width="0.3" stroke-dasharray="1.2,0.8"/>
<line x1="104.228" y1="21.866" x2="92.771" y2="33.331" stroke="#8c8c8c" stroke-width="0.3" stroke-dasharray="1.2,0.8"/>
<line x1="92.771" y1="33.331" x2="95.03" y2="5.032" stroke="#8c8c8c" stroke-width="0.3" stroke-dasharray="1.2,0.8"/>
<line x1="16.434" y1="179.194" x2="28.314" y2="149.173" stroke="#8c8c8c" stroke-width="0.3" stroke-dasharray="1.2,0.8"/>
<line x1="28.314" y1="149.173" x2="49.31" y2="156.69" stroke="#8c8c8c" stroke-width="0.3" stroke-dasharray="1.2,0.8"/>
<line x1="92.771" y1="33.331" x2="170.25" y2="61.204" stroke="#8c8c8c" stroke-width="0.3" stroke-dasharray="1.2,0.8"/>
<line x1="48.392" y1="102.435" x2="68.549" y2="114.401" stroke="#8c8c8c" stroke-width="0.3" stroke-dasharray="1.2,0.8"/>
<line x1="68.549" y1="114.401" x2="93.598" y2="123.524" stroke="#8c8c8c" stroke-width="0.3" stroke-dasharray="1.2,0.8"/>
<line x1="93.598" y1="123.524" x2="129.754" y2="136.476" stroke="#8c8c8c" stroke-width="0.3" stroke-dasharray="1.2,0.8"/>
<line x1="83.428" y1="106.567" x2="68.549" y2="114.401" stroke="#8c8c8c" stroke-width="0.3" stroke-dasharray="1.2,0.8"/>
<line x1="37.187" y1="209.577" x2="16.434" y2="179.194" stroke="#8c8c8c" stroke-width="0.3" stroke-dasharray="1.2,0.8"/>
<line x1="28.314" y1="149.173" x2="5.0" y2="153.664" stroke="#8c8c8c" stroke-width="0.3" stroke-dasharray="1.2,0.8"/>
<line x1="59.63" y1="202.299" x2="37.187" y2="209.577" stroke="#8c8c8c" stroke-width="0.3" stroke-dasharray="1.2,0.8"/>
<line x1="76.099" y1="131.651" x2="49.31" y2="156.69" stroke="#8c8c8c" stroke-width="0.3" stroke-dasharray="1.2,0.8"/>
<line x1="148.808" y1="69.708" x2="170.25" y2="61.204" stroke="#8c8c8c" stroke-width="0.3" stroke-dasharray="1.2,0.8"/>
<line x1="104.228" y1="21.866" x2="170.25" y2="61.204" stroke="#8c8c8c" stroke-width="0.3" stroke-dasharray="1.2,0.8"/>
<line x1="71.411" y1="166.534" x2="76.099" y2="131.651" stroke="#8c8c8c" stroke-width="0.3" stroke-dasharray="1.2,0.8"/>
<line x1="76.667" y1="203.082" x2="94.819" y2="189.993" stroke="#8c8c8c" stroke-width="0.3" stroke-dasharray="1.2,0.8"/>
<line x1="57.406" y1="180.03" x2="71.411" y2="166.534" stroke="#8c8c8c" stroke-width="0.3" stroke-dasharray="1.2,0.8"/>
<line x1="125.53" y1="173.03" x2="141.523" y2="164.114" stroke="#8c8c8c" stroke-width="0.3" stroke-dasharray="1.2,0.8"/>
<line x1="57.406" y1="180.03" x2="76.667" y2="203.082" stroke="#8c8c8c" stroke-width="0.3" stroke-dasharray="1.2,0.8"/>
<line x1="125.53" y1="173.03" x2="110.141" y2="178.766" stroke="#8c8c8c" stroke-width="0.3" stroke-dasharray="1.2,0.8"/>
<line x1="83.428" y1="106.567" x2="99.719" y2="99.778" stroke="#8c8c8c" stroke-width="0.3" stroke-dasharray="1.2,0.8"/>
<line x1="92.771" y1="33.331" x2="148.808" y2="69.708" stroke="#8c8c8c" stroke-width="0.3" stroke-dasharray="1.2,0.8"/>
<line x1="48.391" y1="11.108" x2="48.391" y2="37.457" stroke="#8c8c8c" stroke-width="0.3" stroke-dasharray="1.2,0.8"/>
<line x1="48.391" y1="11.108" x2="74.172" y2="26.967" stroke="#8c8c8c" stroke-width="0.3" stroke-dasharray="1.2,0.8"/>
<line x1="95.03" y1="5.032" x2="104.228" y2="21.866" stroke="#8c8c8c" stroke-width="0.3" stroke-dasharray="1.2,0.8"/>
<line x1="16.434" y1="179.194" x2="5.0" y2="153.664" stroke="#141414" stroke-width="0.4"/>
<line x1="18.735" y1="130.339" x2="48.392" y2="102.435" stroke="#141414" stroke-width="0.4"/>
<line x1="68.549" y1="114.401" x2="18.735" y2="130.339" stroke="#141414" stroke-width="0.4"/>
<line x1="28.314" y1="149.173" x2="68.549" y2="114.401" stroke="#141414" stroke-width="0.4"/>
<line x1="49.31" y1="156.69" x2="59.63" y2="202.299" stroke="#141414" stroke-width="0.4"/>
<line x1="111.64" y1="204.755" x2="94.819" y2="189.993" stroke="#141414" stroke-width="0.4"/>
<line x1="48.392" y1="102.435" x2="48.391" y2="37.457" stroke="#141414" stroke-width="0.4"/>
<line x1="122.266" y1="189.844" x2="111.64" y2="204.755" stroke="#141414" stroke-width="0.4"/>
<line x1="129.754" y1="136.476" x2="141.523" y2="164.114" stroke="#141414" stroke-width="0.4"/>
<line x1="110.141" y1="178.767" x2="122.266" y2="189.844" stroke="#141414" stroke-width="0.4"/>
<line x1="93.598" y1="123.524" x2="117.2" y2="109.502" stroke="#141414" stroke-width="0.4"/>
<line x1="83.428" y1="106.567" x2="93.598" y2="123.524" stroke="#141414" stroke-width="0.4"/>
<line x1="117.2" y1="109.502" x2="129.754" y2="136.476" stroke="#141414" stroke-width="0.4"/>
<line x1="92.771" y1="33.331" x2="99.719" y2="99.778" stroke="#141414" stroke-width="0.4"/>
<line x1="74.172" y1="26.967" x2="95.03" y2="5.032" stroke="#141414" stroke-width="0.4"/>
<line x1="16.434" y1="179.194" x2="15.175" y2="186.571" stroke="#141414" stroke-width="0.4"/>
<line x1="15.175" y1="186.571" x2="29.858" y2="208.066" stroke="#141414" stroke-width="0.4"/>
<line x1="29.858" y1="208.066" x2="37.187" y2="209.577" stroke="#141414" stroke-width="0.4"/>
<line x1="5.0" y1="153.664" x2="7.426" y2="147.901" stroke="#141414" stroke-width="0.4"/>
<line x1="7.426" y1="147.901" x2="23.921" y2="144.724" stroke="#141414" stroke-width="0.4"/>
<line x1="23.921" y1="144.724" x2="28.314" y2="149.173" stroke="#141414" stroke-width="0.4"/>
<line x1="37.187" y1="209.577" x2="42.074" y2="213.459" stroke="#141414" stroke-width="0.4"/>
<line x1="42.074" y1="213.459" x2="57.952" y2="208.31" stroke="#141414" stroke-width="0.4"/>
<line x1="57.952" y1="208.31" x2="59.63" y2="202.299" stroke="#141414" stroke-width="0.4"/>
<line x1="49.31" y1="156.69" x2="60.697" y2="153.164" stroke="#141414" stroke-width="0.4"/>
<line x1="60.697" y1="153.164" x2="71.814" y2="142.774" stroke="#141414" stroke-width="0.4"/>
<line x1="71.814" y1="142.774" x2="76.099" y2="131.651" stroke="#141414" stroke-width="0.4"/>
<line x1="170.25" y1="61.204" x2="169.031" y2="67.282" stroke="#141414" stroke-width="0.4"/>
<line x1="169.031" y1="67.282" x2="153.861" y2="73.298" stroke="#141414" stroke-width="0.4"/>
<line x1="153.861" y1="73.298" x2="148.808" y2="69.708" stroke="#141414" stroke-width="0.4"/>
<line x1="170.25" y1="61.204" x2="163.256" y2="50.984" stroke="#141414" stroke-width="0.4"/>
<line x1="163.256" y1="50.984" x2="116.546" y2="23.152" stroke="#141414" stroke-width="0.4"/>
<line x1="116.546" y1="23.152" x2="104.228" y2="21.866" stroke="#141414" stroke-width="0.4"/>
<line x1="76.099" y1="131.651" x2="69.77" y2="148.202" stroke="#141414" stroke-width="0.4"/>
<line x1="69.77" y1="148.202" x2="69.676" y2="148.899" stroke="#141414" stroke-width="0.4"/>
<line x1="69.676" y1="148.899" x2="71.411" y2="166.534" stroke="#141414" stroke-width="0.4"/>
<line x1="94.819" y1="189.993" x2="95.206" y2="196.125" stroke="#141414" stroke-width="0.4"/>
<line x1="95.206" y1="196.125" x2="82.363" y2="205.386" stroke="#141414" stroke-width="0.4"/>
<line x1="82.363" y1="205.386" x2="76.667" y2="203.082" stroke="#141414" stroke-width="0.4"/>
<line x1="71.411" y1="166.534" x2="65.755" y2="164.763" stroke="#141414" stroke-width="0.4"/>
<line x1="65.755" y1="164.763" x2="55.846" y2="174.312" stroke="#141414" stroke-width="0.4"/>
<line x1="55.846" y1="174.312" x2="57.406" y2="180.03" stroke="#141414" stroke-width="0.4"/>
<line x1="141.523" y1="164.114" x2="141.716" y2="169.96" stroke="#141414" stroke-width="0.4"/>
<line x1="141.716" y1="169.96" x2="130.402" y2="176.268" stroke="#141414" stroke-width="0.4"/>
<line x1="130.402" y1="176.268" x2="125.53" y2="173.03" stroke="#141414" stroke-width="0.4"/>
<line x1="76.667" y1="203.082" x2="69.859" y2="203.045" stroke="#141414" stroke-width="0.4"/>
<line x1="69.859" y1="203.045" x2="56.233" y2="186.736" stroke="#141414" stroke-width="0.4"/>
<line x1="56.233" y1="186.736" x2="57.406" y2="180.03" stroke="#141414" stroke-width="0.4"/>
<line x1="110.141" y1="178.766" x2="116.459" y2="181.961" stroke="#141414" stroke-width="0.4"/>
<line x1="116.459" y1="181.961" x2="122.845" y2="179.581" stroke="#141414" stroke-width="0.4"/>
<line x1="122.845" y1="179.581" x2="125.53" y2="173.03" stroke="#141414" stroke-width="0.4"/>
<line x1="99.719" y1="99.778" x2="99.337" y2="105.571" stroke="#141414" stroke-width="0.4"/>
<line x1="99.337" y1="105.571" x2="87.811" y2="110.374" stroke="#141414" stroke-width="0.4"/>
<line x1="87.811" y1="110.374" x2="83.428" y2="106.567" stroke="#141414" stroke-width="0.4"/>
<line x1="148.808" y1="69.708" x2="137.781" y2="68.749" stroke="#141414" stroke-width="0.4"/>
<line x1="137.781" y1="68.749" x2="98.135" y2="43.013" stroke="#141414" stroke-width="0.4"/>
<line x1="98.135" y1="43.013" x2="92.771" y2="33.331" stroke="#141414" stroke-width="0.4"/>
<line x1="48.391" y1="37.457" x2="43.191" y2="33.603" stroke="#141414" stroke-width="0.4"/>
<line x1="43.191" y1="33.603" x2="43.191" y2="14.961" stroke="#141414" stroke-width="0.4"/>
<line x1="43.191" y1="14.961" x2="48.391" y2="11.108" stroke="#141414" stroke-width="0.4"/>
<line x1="74.172" y1="26.967" x2="73.126" y2="20.219" stroke="#141414" stroke-width="0.4"/>
<line x1="73.126" y1="20.219" x2="54.886" y2="8.998" stroke="#141414" stroke-width="0.4"/>
<line x1="54.886" y1="8.998" x2="48.391" y2="11.108" stroke="#141414" stroke-width="0.4"/>
<line x1="104.228" y1="21.866" x2="107.446" y2="16.911" stroke="#141414" stroke-width="0.4"/>
<line x1="107.446" y1="16.911" x2="100.939" y2="5.001" stroke="#141414" stroke-width="0.4"/>
<line x1="100.939" y1="5.001" x2="95.03" y2="5.032" stroke="#141414" stroke-width="0.4"/>
<circle cx="24.664" cy="195.852" r="2.29" fill="#ffe082" stroke="#464646" stroke-width="0.2"/>
<text x="24.664" y="196.94" font-size="3.11" text-anchor="middle" fill="#141414">10</text>
<circle cx="16.165" cy="148.865" r="2.29" fill="#ffe082" stroke="#464646" stroke-width="0.2"/>
<text x="16.165" y="149.95" font-size="3.11" text-anchor="middle" fill="#141414">11</text>
<circle cx="49.211" cy="208.411" r="2.29" fill="#ffe082" stroke="#464646" stroke-width="0.2"/>
<text x="49.211" y="209.50" font-size="3.11" text-anchor="middle" fill="#141414">17</text>
<circle cx="64.48" cy="146.07" r="2.29" fill="#ffe082" stroke="#464646" stroke-width="0.2"/>
<text x="64.48" y="147.16" font-size="3.11" text-anchor="middle" fill="#141414">26</text>
<circle cx="160.488" cy="67.873" r="2.29" fill="#ffe082" stroke="#464646" stroke-width="0.2"/>
<text x="160.488" y="68.96" font-size="3.11" text-anchor="middle" fill="#141414">27</text>
<circle cx="138.57" cy="39.302" r="2.29" fill="#ffe082" stroke="#464646" stroke-width="0.2"/>
<text x="138.57" y="40.39" font-size="3.11" text-anchor="middle" fill="#141414">28</text>
<circle cx="87.264" cy="198.646" r="2.29" fill="#ffe082" stroke="#464646" stroke-width="0.2"/>
<text x="87.264" y="199.73" font-size="3.11" text-anchor="middle" fill="#141414">34</text>
<circle cx="62.604" cy="171.41" r="2.29" fill="#ffe082" stroke="#464646" stroke-width="0.2"/>
<text x="62.604" y="172.50" font-size="3.11" text-anchor="middle" fill="#141414">36</text>
<circle cx="134.793" cy="170.843" r="2.29" fill="#99d9fa" stroke="#464646" stroke-width="0.2"/>
<text x="134.793" y="171.93" font-size="3.11" text-anchor="middle" fill="#141414">37</text>
<circle cx="65.041" cy="193.223" r="2.29" fill="#ffe082" stroke="#464646" stroke-width="0.2"/>
<text x="65.041" y="194.31" font-size="3.11" text-anchor="middle" fill="#141414">38</text>
<circle cx="118.744" cy="178.335" r="2.29" fill="#ffe082" stroke="#464646" stroke-width="0.2"/>
<text x="118.744" y="179.42" font-size="3.11" text-anchor="middle" fill="#141414">39</text>
<circle cx="92.574" cy="105.572" r="2.29" fill="#ffe082" stroke="#464646" stroke-width="0.2"/>
<text x="92.574" y="106.66" font-size="3.11" text-anchor="middle" fill="#141414">45</text>
<circle cx="119.374" cy="53.7" r="2.29" fill="#ffe082" stroke="#464646" stroke-width="0.2"/>
<text x="119.374" y="54.79" font-size="3.11" text-anchor="middle" fill="#141414">46</text>
<circle cx="45.791" cy="24.282" r="2.29" fill="#ffe082" stroke="#464646" stroke-width="0.2"/>
<text x="45.791" y="25.37" font-size="3.11" text-anchor="middle" fill="#141414">47</text>
<circle cx="62.644" cy="16.823" r="2.29" fill="#ffe082" stroke="#464646" stroke-width="0.2"/>
<text x="62.644" y="17.91" font-size="3.11" text-anchor="middle" fill="#141414">48</text>
<circle cx="101.911" cy="12.202" r="2.29" fill="#ffe082" stroke="#464646" stroke-width="0.2"/>
<text x="101.911" y="13.29" font-size="3.11" text-anchor="middle" fill="#141414">49</text>
<circle cx="109.575" cy="194.864" r="3.96" fill="#eaf1fe" stroke="#2e78e6" stroke-width="0.3"/>
<text x="109.575" y="196.41" font-size="4.48" text-anchor="middle" fill="#14306e" font-weight="bold">2</text>
<text x="205.0" y="295.0" font-size="3.2" text-anchor="end" fill="#737373" font-family="sans-serif">2 / 3</text>
<g pointer-events="none"><text x="105.0" y="83.2" text-anchor="middle" font-family="sans-serif" font-size="12.4" fill="#9aa0a6" fill-opacity="0.3" transform="rotate(-28 105.0 83.2)">papercraft.kr</text><text x="105.0" y="148.5" text-anchor="middle" font-family="sans-serif" font-size="12.4" fill="#9aa0a6" fill-opacity="0.3" transform="rotate(-28 105.0 148.5)">papercraft.kr</text><text x="105.0" y="213.8" text-anchor="middle" font-family="sans-serif" font-size="12.4" fill="#9aa0a6" fill-opacity="0.3" transform="rotate(-28 105.0 213.8)">papercraft.kr</text></g></svg>
