<svg xmlns="http://www.w3.org/2000/svg" xmlns:xlink="http://www.w3.org/1999/xlink" width="210.00mm" height="297.00mm" viewBox="0 0 210.00 297.00">
<rect x="0" y="0" width="210.00" height="297.00" fill="#ffffff" stroke="#cccccc" stroke-width="0.2"/>
<polygon points="172.451,145.027 160.632,140.887 122.283,104.062 117.667,92.421" fill="rgb(216,216,216)"/>
<polygon points="180.926,63.45 176.307,57.327 150.416,52.627 143.94,56.737" fill="rgb(216,216,216)"/>
<polygon points="57.595,132.454 57.158,139.962 38.59,157.23 31.07,157.122" fill="rgb(216,216,216)"/>
<polygon points="57.595,132.454 64.358,131.649 75.668,114.522 73.753,107.987" fill="rgb(216,216,216)"/>
<polygon points="31.07,157.122 24.488,155.909 15.084,138.641 17.635,132.454" fill="rgb(216,216,216)"/>
<polygon points="63.197,18.494 55.057,15.836 25.098,26.334 20.397,33.491" fill="rgb(216,216,216)"/>
<line x1="117.667" y1="92.421" x2="143.94" y2="56.737" stroke="#8c8c8c" stroke-width="0.3" stroke-dasharray="1.2,0.8"/>
<line x1="17.635" y1="132.454" x2="73.753" y2="107.987" stroke="#8c8c8c" stroke-width="0.3" stroke-dasharray="1.2,0.8"/>
<line x1="117.667" y1="92.421" x2="63.197" y2="18.494" stroke="#8c8c8c" stroke-width="0.3" stroke-dasharray="1.2,0.8"/>
<line x1="63.197" y1="18.494" x2="73.753" y2="107.987" stroke="#8c8c8c" stroke-width="0.3" stroke-dasharray="1.2,0.8"/>
<line x1="73.753" y1="107.987" x2="20.397" y2="33.491" stroke="#8c8c8c" stroke-width="0.3" stroke-dasharray="1.2,0.8"/>
<line x1="143.94" y1="56.737" x2="172.912" y2="94.066" stroke="#8c8c8c" stroke-width="0.3" stroke-dasharray="1.2,0.8"/>
<line x1="17.635" y1="132.454" x2="57.595" y2="132.454" stroke="#8c8c8c" stroke-width="0.3" stroke-dasharray="1.2,0.8"/>
<line x1="117.667" y1="92.421" x2="172.451" y2="145.027" stroke="#8c8c8c" stroke-width="0.3" stroke-dasharray="1.2,0.8"/>
<line x1="143.94" y1="56.737" x2="180.926" y2="63.45" stroke="#8c8c8c" stroke-width="0.3" stroke-dasharray="1.2,0.8"/>
<line x1="31.07" y1="157.122" x2="57.595" y2="132.454" stroke="#8c8c8c" stroke-width="0.3" stroke-dasharray="1.2,0.8"/>
<line x1="73.753" y1="107.987" x2="57.595" y2="132.454" stroke="#8c8c8c" stroke-width="0.3" stroke-dasharray="1.2,0.8"/>
<line x1="17.635" y1="132.454" x2="31.07" y2="157.122" stroke="#8c8c8c" stroke-width="0.3" stroke-dasharray="1.2,0.8"/>
<line x1="20.397" y1="33.491" x2="63.197" y2="18.494" stroke="#8c8c8c" stroke-width="0.3" stroke-dasharray="1.2,0.8"/>
<line x1="172.912" y1="94.066" x2="172.451" y2="145.027" stroke="#141414" stroke-width="0.4"/>
<line x1="180.926" y1="63.45" x2="172.912" y2="94.066" stroke="#141414" stroke-width="0.4"/>
<line x1="63.197" y1="18.494" x2="143.94" y2="56.737" stroke="#141414" stroke-width="0.4"/>
<line x1="17.635" y1="132.454" x2="20.397" y2="33.491" stroke="#141414" stroke-width="0.4"/>
<line x1="117.667" y1="92.421" x2="73.753" y2="107.987" stroke="#141414" stroke-width="0.4"/>
<line x1="172.451" y1="145.027" x2="160.632" y2="140.887" stroke="#141414" stroke-width="0.4"/>
<line x1="160.632" y1="140.887" x2="122.283" y2="104.062" stroke="#141414" stroke-width="0.4"/>
<line x1="122.283" y1="104.062" x2="117.667" y2="92.421" stroke="#141414" stroke-width="0.4"/>
<line x1="180.926" y1="63.45" x2="176.307" y2="57.327" stroke="#141414" stroke-width="0.4"/>
<line x1="176.307" y1="57.327" x2="150.416" y2="52.627" stroke="#141414" stroke-width="0.4"/>
<line x1="150.416" y1="52.627" x2="143.94" y2="56.737" stroke="#141414" stroke-width="0.4"/>
<line x1="57.595" y1="132.454" x2="57.158" y2="139.962" stroke="#141414" stroke-width="0.4"/>
<line x1="57.158" y1="139.962" x2="38.59" y2="157.23" stroke="#141414" stroke-width="0.4"/>
<line x1="38.59" y1="157.23" x2="31.07" y2="157.122" stroke="#141414" stroke-width="0.4"/>
<line x1="57.595" y1="132.454" x2="64.358" y2="131.649" stroke="#141414" stroke-width="0.4"/>
<line x1="64.358" y1="131.649" x2="75.668" y2="114.522" stroke="#141414" stroke-width="0.4"/>
<line x1="75.668" y1="114.522" x2="73.753" y2="107.987" stroke="#141414" stroke-width="0.4"/>
<line x1="31.07" y1="157.122" x2="24.488" y2="155.909" stroke="#141414" stroke-width="0.4"/>
<line x1="24.488" y1="155.909" x2="15.084" y2="138.641" stroke="#141414" stroke-width="0.4"/>
<line x1="15.084" y1="138.641" x2="17.635" y2="132.454" stroke="#141414" stroke-width="0.4"/>
<line x1="63.197" y1="18.494" x2="55.057" y2="15.836" stroke="#141414" stroke-width="0.4"/>
<line x1="55.057" y1="15.836" x2="25.098" y2="26.334" stroke="#141414" stroke-width="0.4"/>
<line x1="25.098" y1="26.334" x2="20.397" y2="33.491" stroke="#141414" stroke-width="0.4"/>
<circle cx="143.258" cy="120.599" r="2.15" fill="#ffe082" stroke="#464646" stroke-width="0.2"/>
<text x="143.258" y="121.34" font-size="2.11" text-anchor="middle" fill="#141414">105</text>
<circle cx="162.897" cy="57.535" r="2.15" fill="#ffe082" stroke="#464646" stroke-width="0.2"/>
<text x="162.897" y="58.27" font-size="2.11" text-anchor="middle" fill="#141414">112</text>
<circle cx="46.103" cy="146.692" r="2.15" fill="#ffe082" stroke="#464646" stroke-width="0.2"/>
<text x="46.103" y="147.43" font-size="2.11" text-anchor="middle" fill="#141414">115</text>
<circle cx="67.844" cy="121.653" r="2.15" fill="#ffe082" stroke="#464646" stroke-width="0.2"/>
<text x="67.844" y="122.39" font-size="2.11" text-anchor="middle" fill="#141414">116</text>
<circle cx="22.069" cy="146.032" r="2.15" fill="#ffe082" stroke="#464646" stroke-width="0.2"/>
<text x="22.069" y="146.77" font-size="2.11" text-anchor="middle" fill="#141414">118</text>
<circle cx="40.937" cy="23.539" r="2.15" fill="#ffe082" stroke="#464646" stroke-width="0.2"/>
<text x="40.937" y="24.28" font-size="2.11" text-anchor="middle" fill="#141414">122</text>
<circle cx="37.262" cy="91.31" r="4.60" fill="#eaf1fe" stroke="#2e78e6" stroke-width="0.3"/>
<text x="37.262" y="93.11" font-size="5.20" text-anchor="middle" fill="#14306e" font-weight="bold">26</text>
<text x="205.0" y="295.0" font-size="3.2" text-anchor="end" fill="#737373" font-family="sans-serif">22 / 22</text>
</svg>
