<svg xmlns="http://www.w3.org/2000/svg" xmlns:xlink="http://www.w3.org/1999/xlink" width="210.00mm" height="297.00mm" viewBox="0 0 210.00 297.00">
<rect x="0" y="0" width="210.00" height="297.00" fill="#ffffff" stroke="#cccccc" stroke-width="0.2"/>
<polygon points="126.342,265.123 132.785,268.274 146.182,263.288 148.997,256.691" fill="rgb(216,216,216)"/>
<polygon points="126.342,265.123 112.084,273.474 67.686,282.922 51.263,281.1" fill="rgb(216,216,216)"/>
<polygon points="143.991,232.278 150.108,236.221 153.068,250.658 148.997,256.691" fill="rgb(216,216,216)"/>
<polygon points="51.263,281.1 43.762,278.59 35.037,263.713 36.508,255.942" fill="rgb(216,216,216)"/>
<polygon points="118.518,234.998 111.118,218.524 104.625,168.894 107.537,151.071" fill="rgb(216,216,216)"/>
<polygon points="142.649,123.138 144.753,108.534 136.147,69.507 128.096,57.143" fill="rgb(216,216,216)"/>
<polygon points="88.509,48.437 72.375,42.772 25.249,41.42 8.817,46.151" fill="rgb(216,216,216)"/>
<polygon points="128.096,57.143 134.618,53.191 139.014,37.657 135.529,30.874" fill="rgb(216,216,216)"/>
<polygon points="8.817,75.778 3.617,69.724 3.617,52.204 8.817,46.151" fill="rgb(216,216,216)"/>
<polygon points="177.999,50.214 167.166,50.995 142.052,39.558 135.529,30.874" fill="rgb(216,216,216)"/>
<polygon points="177.999,50.214 183.609,47.44 184.926,37.444 180.226,33.311" fill="rgb(216,216,216)"/>
<polygon points="180.226,33.311 168.574,22.737 128.99,5.995 113.287,5.0" fill="rgb(216,216,216)"/>
<polygon points="118.518,234.998 111.118,218.524 104.625,168.894 107.537,151.071" fill="#99d9fa"/>
<line x1="118.518" y1="234.998" x2="126.342" y2="265.123" stroke="#8c8c8c" stroke-width="0.3" stroke-dasharray="1.2,0.8"/>
<line x1="118.518" y1="234.998" x2="143.991" y2="232.278" stroke="#8c8c8c" stroke-width="0.3" stroke-dasharray="1.2,0.8"/>
<line x1="148.997" y1="256.691" x2="118.518" y2="234.998" stroke="#8c8c8c" stroke-width="0.3" stroke-dasharray="1.2,0.8"/>
<line x1="51.263" y1="281.1" x2="118.518" y2="234.998" stroke="#8c8c8c" stroke-width="0.3" stroke-dasharray="1.2,0.8"/>
<line x1="107.537" y1="151.071" x2="142.649" y2="123.138" stroke="#8c8c8c" stroke-width="0.3" stroke-dasharray="1.2,0.8"/>
<line x1="88.509" y1="48.437" x2="80.368" y2="80.715" stroke="#8c8c8c" stroke-width="0.3" stroke-dasharray="1.2,0.8"/>
<line x1="88.509" y1="48.437" x2="8.817" y2="75.778" stroke="#8c8c8c" stroke-width="0.3" stroke-dasharray="1.2,0.8"/>
<line x1="135.529" y1="30.874" x2="88.509" y2="48.437" stroke="#8c8c8c" stroke-width="0.3" stroke-dasharray="1.2,0.8"/>
<line x1="135.529" y1="30.874" x2="180.226" y2="33.311" stroke="#8c8c8c" stroke-width="0.3" stroke-dasharray="1.2,0.8"/>
<line x1="107.537" y1="151.071" x2="143.991" y2="232.278" stroke="#8c8c8c" stroke-width="0.3" stroke-dasharray="1.2,0.8"/>
<line x1="92.601" y1="115.811" x2="107.537" y2="151.071" stroke="#8c8c8c" stroke-width="0.3" stroke-dasharray="1.2,0.8"/>
<line x1="92.601" y1="115.811" x2="88.509" y2="48.437" stroke="#8c8c8c" stroke-width="0.3" stroke-dasharray="1.2,0.8"/>
<line x1="128.096" y1="57.143" x2="88.509" y2="48.437" stroke="#8c8c8c" stroke-width="0.3" stroke-dasharray="1.2,0.8"/>
<line x1="135.529" y1="30.874" x2="113.287" y2="5.0" stroke="#8c8c8c" stroke-width="0.3" stroke-dasharray="1.2,0.8"/>
<line x1="148.997" y1="256.691" x2="126.342" y2="265.123" stroke="#8c8c8c" stroke-width="0.3" stroke-dasharray="1.2,0.8"/>
<line x1="51.263" y1="281.1" x2="126.342" y2="265.123" stroke="#8c8c8c" stroke-width="0.3" stroke-dasharray="1.2,0.8"/>
<line x1="148.997" y1="256.691" x2="143.991" y2="232.278" stroke="#8c8c8c" stroke-width="0.3" stroke-dasharray="1.2,0.8"/>
<line x1="36.508" y1="255.942" x2="51.263" y2="281.1" stroke="#8c8c8c" stroke-width="0.3" stroke-dasharray="1.2,0.8"/>
<line x1="107.537" y1="151.071" x2="118.518" y2="234.998" stroke="#8c8c8c" stroke-width="0.3" stroke-dasharray="1.2,0.8"/>
<line x1="128.096" y1="57.143" x2="142.649" y2="123.138" stroke="#8c8c8c" stroke-width="0.3" stroke-dasharray="1.2,0.8"/>
<line x1="8.817" y1="46.151" x2="88.509" y2="48.437" stroke="#8c8c8c" stroke-width="0.3" stroke-dasharray="1.2,0.8"/>
<line x1="135.529" y1="30.874" x2="128.096" y2="57.143" stroke="#8c8c8c" stroke-width="0.3" stroke-dasharray="1.2,0.8"/>
<line x1="8.817" y1="46.151" x2="8.817" y2="75.778" stroke="#8c8c8c" stroke-width="0.3" stroke-dasharray="1.2,0.8"/>
<line x1="135.529" y1="30.874" x2="177.999" y2="50.214" stroke="#8c8c8c" stroke-width="0.3" stroke-dasharray="1.2,0.8"/>
<line x1="180.226" y1="33.311" x2="177.999" y2="50.214" stroke="#8c8c8c" stroke-width="0.3" stroke-dasharray="1.2,0.8"/>
<line x1="113.287" y1="5.0" x2="180.226" y2="33.311" stroke="#8c8c8c" stroke-width="0.3" stroke-dasharray="1.2,0.8"/>
<line x1="142.649" y1="123.138" x2="143.991" y2="232.278" stroke="#141414" stroke-width="0.4"/>
<line x1="36.508" y1="255.942" x2="118.518" y2="234.998" stroke="#141414" stroke-width="0.4"/>
<line x1="107.537" y1="151.071" x2="88.669" y2="142.048" stroke="#141414" stroke-width="0.4"/>
<line x1="88.669" y1="142.048" x2="92.601" y2="115.811" stroke="#141414" stroke-width="0.4"/>
<line x1="92.601" y1="115.811" x2="80.368" y2="80.715" stroke="#141414" stroke-width="0.4"/>
<line x1="88.509" y1="48.437" x2="113.287" y2="5.0" stroke="#141414" stroke-width="0.4"/>
<line x1="80.368" y1="80.715" x2="8.817" y2="75.778" stroke="#141414" stroke-width="0.4"/>
<line x1="126.342" y1="265.123" x2="132.785" y2="268.274" stroke="#141414" stroke-width="0.4"/>
<line x1="132.785" y1="268.274" x2="146.182" y2="263.288" stroke="#141414" stroke-width="0.4"/>
<line x1="146.182" y1="263.288" x2="148.997" y2="256.691" stroke="#141414" stroke-width="0.4"/>
<line x1="126.342" y1="265.123" x2="112.084" y2="273.474" stroke="#141414" stroke-width="0.4"/>
<line x1="112.084" y1="273.474" x2="67.686" y2="282.922" stroke="#141414" stroke-width="0.4"/>
<line x1="67.686" y1="282.922" x2="51.263" y2="281.1" stroke="#141414" stroke-width="0.4"/>
<line x1="143.991" y1="232.278" x2="150.108" y2="236.221" stroke="#141414" stroke-width="0.4"/>
<line x1="150.108" y1="236.221" x2="153.068" y2="250.658" stroke="#141414" stroke-width="0.4"/>
<line x1="153.068" y1="250.658" x2="148.997" y2="256.691" stroke="#141414" stroke-width="0.4"/>
<line x1="51.263" y1="281.1" x2="43.762" y2="278.59" stroke="#141414" stroke-width="0.4"/>
<line x1="43.762" y1="278.59" x2="35.037" y2="263.713" stroke="#141414" stroke-width="0.4"/>
<line x1="35.037" y1="263.713" x2="36.508" y2="255.942" stroke="#141414" stroke-width="0.4"/>
<line x1="118.518" y1="234.998" x2="111.118" y2="218.524" stroke="#141414" stroke-width="0.4"/>
<line x1="111.118" y1="218.524" x2="104.625" y2="168.894" stroke="#141414" stroke-width="0.4"/>
<line x1="104.625" y1="168.894" x2="107.537" y2="151.071" stroke="#141414" stroke-width="0.4"/>
<line x1="142.649" y1="123.138" x2="144.753" y2="108.534" stroke="#141414" stroke-width="0.4"/>
<line x1="144.753" y1="108.534" x2="136.147" y2="69.507" stroke="#141414" stroke-width="0.4"/>
<line x1="136.147" y1="69.507" x2="128.096" y2="57.143" stroke="#141414" stroke-width="0.4"/>
<line x1="88.509" y1="48.437" x2="72.375" y2="42.772" stroke="#141414" stroke-width="0.4"/>
<line x1="72.375" y1="42.772" x2="25.249" y2="41.42" stroke="#141414" stroke-width="0.4"/>
<line x1="25.249" y1="41.42" x2="8.817" y2="46.151" stroke="#141414" stroke-width="0.4"/>
<line x1="128.096" y1="57.143" x2="134.618" y2="53.191" stroke="#141414" stroke-width="0.4"/>
<line x1="134.618" y1="53.191" x2="139.014" y2="37.657" stroke="#141414" stroke-width="0.4"/>
<line x1="139.014" y1="37.657" x2="135.529" y2="30.874" stroke="#141414" stroke-width="0.4"/>
<line x1="8.817" y1="75.778" x2="3.617" y2="69.724" stroke="#141414" stroke-width="0.4"/>
<line x1="3.617" y1="69.724" x2="3.617" y2="52.204" stroke="#141414" stroke-width="0.4"/>
<line x1="3.617" y1="52.204" x2="8.817" y2="46.151" stroke="#141414" stroke-width="0.4"/>
<line x1="177.999" y1="50.214" x2="167.166" y2="50.995" stroke="#141414" stroke-width="0.4"/>
<line x1="167.166" y1="50.995" x2="142.052" y2="39.558" stroke="#141414" stroke-width="0.4"/>
<line x1="142.052" y1="39.558" x2="135.529" y2="30.874" stroke="#141414" stroke-width="0.4"/>
<line x1="177.999" y1="50.214" x2="183.609" y2="47.44" stroke="#141414" stroke-width="0.4"/>
<line x1="183.609" y1="47.44" x2="184.926" y2="37.444" stroke="#141414" stroke-width="0.4"/>
<line x1="184.926" y1="37.444" x2="180.226" y2="33.311" stroke="#141414" stroke-width="0.4"/>
<line x1="180.226" y1="33.311" x2="168.574" y2="22.737" stroke="#141414" stroke-width="0.4"/>
<line x1="168.574" y1="22.737" x2="128.99" y2="5.995" stroke="#141414" stroke-width="0.4"/>
<line x1="128.99" y1="5.995" x2="113.287" y2="5.0" stroke="#141414" stroke-width="0.4"/>
<circle cx="138.577" cy="263.344" r="2.29" fill="#ffe082" stroke="#464646" stroke-width="0.2"/>
<text x="138.577" y="264.43" font-size="3.11" text-anchor="middle" fill="#141414">1</text>
<circle cx="89.344" cy="275.655" r="2.29" fill="#ffe082" stroke="#464646" stroke-width="0.2"/>
<text x="89.344" y="276.74" font-size="3.11" text-anchor="middle" fill="#141414">2</text>
<circle cx="149.041" cy="243.962" r="2.29" fill="#ffe082" stroke="#464646" stroke-width="0.2"/>
<text x="149.041" y="245.05" font-size="3.11" text-anchor="middle" fill="#141414">3</text>
<circle cx="41.642" cy="269.836" r="2.29" fill="#ffe082" stroke="#464646" stroke-width="0.2"/>
<text x="41.642" y="270.92" font-size="3.11" text-anchor="middle" fill="#141414">5</text>
<circle cx="110.449" cy="193.372" r="2.29" fill="#99d9fa" stroke="#464646" stroke-width="0.2"/>
<text x="110.449" y="194.46" font-size="3.11" text-anchor="middle" fill="#141414">9</text>
<circle cx="137.911" cy="89.58" r="2.29" fill="#ffe082" stroke="#464646" stroke-width="0.2"/>
<text x="137.911" y="90.67" font-size="3.11" text-anchor="middle" fill="#141414">10</text>
<circle cx="48.738" cy="44.695" r="2.29" fill="#ffe082" stroke="#464646" stroke-width="0.2"/>
<text x="48.738" y="45.78" font-size="3.11" text-anchor="middle" fill="#141414">30</text>
<circle cx="134.314" cy="44.716" r="2.29" fill="#ffe082" stroke="#464646" stroke-width="0.2"/>
<text x="134.314" y="45.80" font-size="3.11" text-anchor="middle" fill="#141414">32</text>
<circle cx="6.217" cy="60.964" r="2.29" fill="#ffe082" stroke="#464646" stroke-width="0.2"/>
<text x="6.217" y="62.05" font-size="3.11" text-anchor="middle" fill="#141414">40</text>
<circle cx="155.686" cy="42.91" r="2.29" fill="#ffe082" stroke="#464646" stroke-width="0.2"/>
<text x="155.686" y="44.00" font-size="3.11" text-anchor="middle" fill="#141414">42</text>
<circle cx="181.69" cy="42.102" r="2.29" fill="#ffe082" stroke="#464646" stroke-width="0.2"/>
<text x="181.69" y="43.19" font-size="3.11" text-anchor="middle" fill="#141414">43</text>
<circle cx="147.769" cy="16.761" r="2.29" fill="#ffe082" stroke="#464646" stroke-width="0.2"/>
<text x="147.769" y="17.85" font-size="3.11" text-anchor="middle" fill="#141414">50</text>
<circle cx="98.708" cy="260.407" r="4.60" fill="#eaf1fe" stroke="#2e78e6" stroke-width="0.3"/>
<text x="98.708" y="262.21" font-size="5.20" text-anchor="middle" fill="#14306e" font-weight="bold">4</text>
<text x="205.0" y="295.0" font-size="3.2" text-anchor="end" fill="#737373" font-family="sans-serif">4 / 6</text>
<g pointer-events="none"><text x="105.0" y="83.2" text-anchor="middle" font-family="sans-serif" font-size="12.4" fill="#9aa0a6" fill-opacity="0.3" transform="rotate(-28 105.0 83.2)">papercraft.kr</text><text x="105.0" y="148.5" text-anchor="middle" font-family="sans-serif" font-size="12.4" fill="#9aa0a6" fill-opacity="0.3" transform="rotate(-28 105.0 148.5)">papercraft.kr</text><text x="105.0" y="213.8" text-anchor="middle" font-family="sans-serif" font-size="12.4" fill="#9aa0a6" fill-opacity="0.3" transform="rotate(-28 105.0 213.8)">papercraft.kr</text></g></svg>
