<svg xmlns="http://www.w3.org/2000/svg" xmlns:xlink="http://www.w3.org/1999/xlink" width="210.00mm" height="297.00mm" viewBox="0 0 210.00 297.00">
<rect x="0" y="0" width="210.00" height="297.00" fill="#ffffff" stroke="#cccccc" stroke-width="0.2"/>
<polygon points="70.792,35.649 71.7,33.907 61.009,32.164 52.927,35.649" fill="rgb(216,216,216)"/>
<polygon points="66.627,72.753 58.685,75.292 42.894,98.983 43.606,107.29" fill="rgb(216,216,216)"/>
<line x1="155.383" y1="58.627" x2="66.626" y2="72.753" stroke="#8c8c8c" stroke-width="0.3" stroke-dasharray="1.2,0.8"/>
<line x1="66.626" y1="72.753" x2="36.488" y2="35.649" stroke="#8c8c8c" stroke-width="0.3" stroke-dasharray="1.2,0.8"/>
<line x1="36.488" y1="35.649" x2="8.286" y2="74.622" stroke="#8c8c8c" stroke-width="0.3" stroke-dasharray="1.2,0.8"/>
<line x1="40.447" y1="79.573" x2="36.488" y2="35.649" stroke="#8c8c8c" stroke-width="0.3" stroke-dasharray="1.2,0.8"/>
<line x1="87.231" y1="35.649" x2="66.626" y2="72.753" stroke="#8c8c8c" stroke-width="0.3" stroke-dasharray="1.2,0.8"/>
<line x1="52.927" y1="35.649" x2="70.792" y2="35.649" stroke="#8c8c8c" stroke-width="0.3" stroke-dasharray="1.2,0.8"/>
<line x1="43.606" y1="107.29" x2="66.627" y2="72.753" stroke="#8c8c8c" stroke-width="0.3" stroke-dasharray="1.2,0.8"/>
<line x1="123.846" y1="5.0" x2="155.383" y2="58.627" stroke="#141414" stroke-width="0.4"/>
<line x1="155.383" y1="58.627" x2="92.886" y2="99.867" stroke="#141414" stroke-width="0.4"/>
<line x1="87.231" y1="35.649" x2="123.846" y2="5.0" stroke="#141414" stroke-width="0.4"/>
<line x1="36.488" y1="35.649" x2="52.927" y2="35.649" stroke="#141414" stroke-width="0.4"/>
<line x1="70.792" y1="35.649" x2="87.231" y2="35.649" stroke="#141414" stroke-width="0.4"/>
<line x1="66.626" y1="72.753" x2="40.447" y2="79.573" stroke="#141414" stroke-width="0.4"/>
<line x1="5.0" y1="40.808" x2="36.488" y2="35.649" stroke="#141414" stroke-width="0.4"/>
<line x1="8.286" y1="74.622" x2="5.0" y2="40.808" stroke="#141414" stroke-width="0.4"/>
<line x1="92.886" y1="99.867" x2="43.606" y2="107.291" stroke="#141414" stroke-width="0.4"/>
<line x1="40.447" y1="79.573" x2="8.286" y2="74.622" stroke="#141414" stroke-width="0.4"/>
<line x1="70.792" y1="35.649" x2="71.7" y2="33.907" stroke="#141414" stroke-width="0.4"/>
<line x1="71.7" y1="33.907" x2="61.009" y2="32.164" stroke="#141414" stroke-width="0.4"/>
<line x1="61.009" y1="32.164" x2="52.927" y2="35.649" stroke="#141414" stroke-width="0.4"/>
<line x1="66.627" y1="72.753" x2="58.685" y2="75.292" stroke="#141414" stroke-width="0.4"/>
<line x1="58.685" y1="75.292" x2="42.894" y2="98.983" stroke="#141414" stroke-width="0.4"/>
<line x1="42.894" y1="98.983" x2="43.606" y2="107.29" stroke="#141414" stroke-width="0.4"/>
<circle cx="52.953" cy="88.58" r="2.27" fill="#ffe082" stroke="#464646" stroke-width="0.2"/>
<text x="52.953" y="89.66" font-size="3.08" text-anchor="middle" fill="#141414">51</text>
<circle cx="28.407" cy="63.281" r="4.60" fill="#eaf1fe" stroke="#2e78e6" stroke-width="0.3"/>
<text x="28.407" y="65.08" font-size="5.20" text-anchor="middle" fill="#14306e" font-weight="bold">12</text>
<text x="205.0" y="295.0" font-size="3.2" text-anchor="end" fill="#737373" font-family="sans-serif">8 / 15</text>
</svg>
