<svg xmlns="http://www.w3.org/2000/svg" xmlns:xlink="http://www.w3.org/1999/xlink" width="210.00mm" height="297.00mm" viewBox="0 0 210.00 297.00">
<rect x="0" y="0" width="210.00" height="297.00" fill="#ffffff" stroke="#cccccc" stroke-width="0.2"/>
<polygon points="87.59,127.634 87.59,132.267 128.853,132.267 135.142,127.634" fill="rgb(216,216,216)"/>
<polygon points="87.59,90.093 93.879,85.459 135.142,85.459 135.142,90.093" fill="rgb(216,216,216)"/>
<polygon points="135.142,127.634 140.078,122.345 140.078,90.093 135.142,90.093" fill="rgb(216,216,216)"/>
<polygon points="87.59,175.185 82.854,180.26 52.552,180.26 52.552,175.185" fill="rgb(216,216,216)"/>
<polygon points="52.552,127.634 47.343,127.634 47.343,94.205 52.552,90.093" fill="rgb(216,216,216)"/>
<polygon points="52.552,127.634 47.821,127.634 47.821,169.193 52.552,175.185" fill="rgb(216,216,216)"/>
<polygon points="52.552,90.093 47.821,84.1 47.821,42.541 52.552,42.541" fill="rgb(216,216,216)"/>
<polygon points="87.59,127.634 87.59,132.267 128.853,132.267 135.142,127.634" fill="#99d9fa"/>
<line x1="87.59" y1="127.634" x2="87.59" y2="90.093" stroke="#8c8c8c" stroke-width="0.3" stroke-dasharray="1.2,0.8"/>
<line x1="87.59" y1="127.634" x2="52.552" y2="127.634" stroke="#8c8c8c" stroke-width="0.3" stroke-dasharray="1.2,0.8"/>
<line x1="52.552" y1="90.093" x2="87.59" y2="90.093" stroke="#8c8c8c" stroke-width="0.3" stroke-dasharray="1.2,0.8"/>
<line x1="52.552" y1="42.541" x2="87.59" y2="42.541" stroke="#8c8c8c" stroke-width="0.3" stroke-dasharray="1.2,0.8"/>
<line x1="52.552" y1="42.541" x2="52.552" y2="5.0" stroke="#8c8c8c" stroke-width="0.3" stroke-dasharray="1.2,0.8"/>
<line x1="135.142" y1="127.634" x2="87.59" y2="127.634" stroke="#8c8c8c" stroke-width="0.3" stroke-dasharray="1.2,0.8"/>
<line x1="135.142" y1="90.093" x2="87.59" y2="90.093" stroke="#8c8c8c" stroke-width="0.3" stroke-dasharray="1.2,0.8"/>
<line x1="135.142" y1="90.093" x2="135.142" y2="127.634" stroke="#8c8c8c" stroke-width="0.3" stroke-dasharray="1.2,0.8"/>
<line x1="52.552" y1="175.185" x2="87.59" y2="175.185" stroke="#8c8c8c" stroke-width="0.3" stroke-dasharray="1.2,0.8"/>
<line x1="52.552" y1="90.093" x2="52.552" y2="127.634" stroke="#8c8c8c" stroke-width="0.3" stroke-dasharray="1.2,0.8"/>
<line x1="52.552" y1="175.185" x2="52.552" y2="127.634" stroke="#8c8c8c" stroke-width="0.3" stroke-dasharray="1.2,0.8"/>
<line x1="52.552" y1="42.541" x2="52.552" y2="90.093" stroke="#8c8c8c" stroke-width="0.3" stroke-dasharray="1.2,0.8"/>
<line x1="87.59" y1="127.634" x2="87.59" y2="175.185" stroke="#141414" stroke-width="0.4"/>
<line x1="87.59" y1="42.541" x2="87.59" y2="90.093" stroke="#141414" stroke-width="0.4"/>
<line x1="87.59" y1="5.0" x2="87.59" y2="42.541" stroke="#141414" stroke-width="0.4"/>
<line x1="52.552" y1="5.0" x2="87.59" y2="5.0" stroke="#141414" stroke-width="0.4"/>
<line x1="5.0" y1="42.541" x2="5.0" y2="5.0" stroke="#141414" stroke-width="0.4"/>
<line x1="5.0" y1="5.0" x2="52.552" y2="5.0" stroke="#141414" stroke-width="0.4"/>
<line x1="52.552" y1="42.541" x2="5.0" y2="42.541" stroke="#141414" stroke-width="0.4"/>
<line x1="87.59" y1="127.634" x2="87.59" y2="132.267" stroke="#141414" stroke-width="0.4"/>
<line x1="87.59" y1="132.267" x2="128.853" y2="132.267" stroke="#141414" stroke-width="0.4"/>
<line x1="128.853" y1="132.267" x2="135.142" y2="127.634" stroke="#141414" stroke-width="0.4"/>
<line x1="87.59" y1="90.093" x2="93.879" y2="85.459" stroke="#141414" stroke-width="0.4"/>
<line x1="93.879" y1="85.459" x2="135.142" y2="85.459" stroke="#141414" stroke-width="0.4"/>
<line x1="135.142" y1="85.459" x2="135.142" y2="90.093" stroke="#141414" stroke-width="0.4"/>
<line x1="135.142" y1="127.634" x2="140.078" y2="122.345" stroke="#141414" stroke-width="0.4"/>
<line x1="140.078" y1="122.345" x2="140.078" y2="90.093" stroke="#141414" stroke-width="0.4"/>
<line x1="140.078" y1="90.093" x2="135.142" y2="90.093" stroke="#141414" stroke-width="0.4"/>
<line x1="87.59" y1="175.185" x2="82.854" y2="180.26" stroke="#141414" stroke-width="0.4"/>
<line x1="82.854" y1="180.26" x2="52.552" y2="180.26" stroke="#141414" stroke-width="0.4"/>
<line x1="52.552" y1="180.26" x2="52.552" y2="175.185" stroke="#141414" stroke-width="0.4"/>
<line x1="52.552" y1="127.634" x2="47.343" y2="127.634" stroke="#141414" stroke-width="0.4"/>
<line x1="47.343" y1="127.634" x2="47.343" y2="94.205" stroke="#141414" stroke-width="0.4"/>
<line x1="47.343" y1="94.205" x2="52.552" y2="90.093" stroke="#141414" stroke-width="0.4"/>
<line x1="52.552" y1="127.634" x2="47.821" y2="127.634" stroke="#141414" stroke-width="0.4"/>
<line x1="47.821" y1="127.634" x2="47.821" y2="169.193" stroke="#141414" stroke-width="0.4"/>
<line x1="47.821" y1="169.193" x2="52.552" y2="175.185" stroke="#141414" stroke-width="0.4"/>
<line x1="52.552" y1="90.093" x2="47.821" y2="84.1" stroke="#141414" stroke-width="0.4"/>
<line x1="47.821" y1="84.1" x2="47.821" y2="42.541" stroke="#141414" stroke-width="0.4"/>
<line x1="47.821" y1="42.541" x2="52.552" y2="42.541" stroke="#141414" stroke-width="0.4"/>
<circle cx="109.794" cy="129.95" r="2.20" fill="#99d9fa" stroke="#464646" stroke-width="0.2"/>
<text x="109.794" y="130.71" font-size="2.16" text-anchor="middle" fill="#141414">9</text>
<circle cx="112.938" cy="87.776" r="2.20" fill="#ffe082" stroke="#464646" stroke-width="0.2"/>
<text x="112.938" y="88.53" font-size="2.16" text-anchor="middle" fill="#141414">10</text>
<circle cx="137.61" cy="107.541" r="2.20" fill="#ffe082" stroke="#464646" stroke-width="0.2"/>
<text x="137.61" y="108.30" font-size="2.16" text-anchor="middle" fill="#141414">11</text>
<circle cx="68.887" cy="177.723" r="2.20" fill="#ffe082" stroke="#464646" stroke-width="0.2"/>
<text x="68.887" y="178.48" font-size="2.16" text-anchor="middle" fill="#141414">12</text>
<circle cx="49.947" cy="109.891" r="2.20" fill="#ffe082" stroke="#464646" stroke-width="0.2"/>
<text x="49.947" y="110.65" font-size="2.16" text-anchor="middle" fill="#141414">13</text>
<circle cx="50.186" cy="149.911" r="2.20" fill="#ffe082" stroke="#464646" stroke-width="0.2"/>
<text x="50.186" y="150.67" font-size="2.16" text-anchor="middle" fill="#141414">14</text>
<circle cx="50.186" cy="64.819" r="2.20" fill="#ffe082" stroke="#464646" stroke-width="0.2"/>
<text x="50.186" y="65.57" font-size="2.16" text-anchor="middle" fill="#141414">15</text>
<circle cx="64.231" cy="159.335" r="4.60" fill="#eaf1fe" stroke="#2e78e6" stroke-width="0.3"/>
<text x="64.231" y="161.14" font-size="5.20" text-anchor="middle" fill="#14306e" font-weight="bold">3</text>
<polygon points="90.919,224.152 95.117,227.069 92.577,233.025 87.972,231.061" fill="rgb(216,216,216)"/>
<polygon points="12.647,190.771 7.861,189.174 5.075,195.708 9.7,197.68" fill="rgb(216,216,216)"/>
<polygon points="105.155,190.771 107.127,186.146 113.661,188.932 112.064,193.718" fill="rgb(216,216,216)"/>
<polygon points="87.972,231.061 89.942,231.901 79.766,255.763 73.736,264.442" fill="rgb(216,216,216)"/>
<polygon points="9.7,197.68 9.052,198.302 65.436,257.085 73.736,264.442" fill="rgb(216,216,216)"/>
<polygon points="90.919,224.152 95.117,227.069 92.577,233.025 87.972,231.061" fill="#99d9fa"/>
<line x1="90.919" y1="224.152" x2="12.647" y2="190.771" stroke="#8c8c8c" stroke-width="0.3" stroke-dasharray="1.2,0.8"/>
<line x1="105.155" y1="190.771" x2="90.919" y2="224.152" stroke="#8c8c8c" stroke-width="0.3" stroke-dasharray="1.2,0.8"/>
<line x1="12.647" y1="190.771" x2="105.155" y2="190.771" stroke="#8c8c8c" stroke-width="0.3" stroke-dasharray="1.2,0.8"/>
<line x1="9.7" y1="197.68" x2="87.972" y2="231.061" stroke="#8c8c8c" stroke-width="0.3" stroke-dasharray="1.2,0.8"/>
<line x1="87.972" y1="231.061" x2="90.919" y2="224.152" stroke="#8c8c8c" stroke-width="0.3" stroke-dasharray="1.2,0.8"/>
<line x1="9.7" y1="197.68" x2="12.647" y2="190.771" stroke="#8c8c8c" stroke-width="0.3" stroke-dasharray="1.2,0.8"/>
<line x1="112.064" y1="193.718" x2="105.155" y2="190.771" stroke="#8c8c8c" stroke-width="0.3" stroke-dasharray="1.2,0.8"/>
<line x1="73.736" y1="264.442" x2="87.972" y2="231.061" stroke="#8c8c8c" stroke-width="0.3" stroke-dasharray="1.2,0.8"/>
<line x1="73.736" y1="264.442" x2="9.7" y2="197.68" stroke="#8c8c8c" stroke-width="0.3" stroke-dasharray="1.2,0.8"/>
<line x1="97.828" y1="227.099" x2="90.919" y2="224.152" stroke="#141414" stroke-width="0.4"/>
<line x1="12.647" y1="190.771" x2="12.647" y2="183.26" stroke="#141414" stroke-width="0.4"/>
<line x1="105.155" y1="183.26" x2="105.155" y2="190.771" stroke="#141414" stroke-width="0.4"/>
<line x1="112.064" y1="193.718" x2="97.828" y2="227.099" stroke="#141414" stroke-width="0.4"/>
<line x1="12.647" y1="183.26" x2="105.155" y2="183.26" stroke="#141414" stroke-width="0.4"/>
<line x1="90.919" y1="224.152" x2="95.117" y2="227.069" stroke="#141414" stroke-width="0.4"/>
<line x1="95.117" y1="227.069" x2="92.577" y2="233.025" stroke="#141414" stroke-width="0.4"/>
<line x1="92.577" y1="233.025" x2="87.972" y2="231.061" stroke="#141414" stroke-width="0.4"/>
<line x1="12.647" y1="190.771" x2="7.861" y2="189.174" stroke="#141414" stroke-width="0.4"/>
<line x1="7.861" y1="189.174" x2="5.075" y2="195.708" stroke="#141414" stroke-width="0.4"/>
<line x1="5.075" y1="195.708" x2="9.7" y2="197.68" stroke="#141414" stroke-width="0.4"/>
<line x1="105.155" y1="190.771" x2="107.127" y2="186.146" stroke="#141414" stroke-width="0.4"/>
<line x1="107.127" y1="186.146" x2="113.661" y2="188.932" stroke="#141414" stroke-width="0.4"/>
<line x1="113.661" y1="188.932" x2="112.064" y2="193.718" stroke="#141414" stroke-width="0.4"/>
<line x1="87.972" y1="231.061" x2="89.942" y2="231.901" stroke="#141414" stroke-width="0.4"/>
<line x1="89.942" y1="231.901" x2="79.766" y2="255.763" stroke="#141414" stroke-width="0.4"/>
<line x1="79.766" y1="255.763" x2="73.736" y2="264.442" stroke="#141414" stroke-width="0.4"/>
<line x1="9.7" y1="197.68" x2="9.052" y2="198.302" stroke="#141414" stroke-width="0.4"/>
<line x1="9.052" y1="198.302" x2="65.436" y2="257.085" stroke="#141414" stroke-width="0.4"/>
<line x1="65.436" y1="257.085" x2="73.736" y2="264.442" stroke="#141414" stroke-width="0.4"/>
<circle cx="91.646" cy="228.827" r="2.20" fill="#99d9fa" stroke="#464646" stroke-width="0.2"/>
<text x="91.646" y="229.58" font-size="2.16" text-anchor="middle" fill="#141414">44</text>
<circle cx="8.821" cy="193.334" r="2.20" fill="#ffe082" stroke="#464646" stroke-width="0.2"/>
<text x="8.821" y="194.09" font-size="2.16" text-anchor="middle" fill="#141414">45</text>
<circle cx="109.502" cy="189.892" r="2.20" fill="#ffe082" stroke="#464646" stroke-width="0.2"/>
<text x="109.502" y="190.65" font-size="2.16" text-anchor="middle" fill="#141414">46</text>
<circle cx="69.573" cy="201.898" r="4.60" fill="#eaf1fe" stroke="#2e78e6" stroke-width="0.3"/>
<text x="69.573" y="203.70" font-size="5.20" text-anchor="middle" fill="#14306e" font-weight="bold">8</text>
<text x="205.0" y="295.0" font-size="3.2" text-anchor="end" fill="#737373" font-family="sans-serif">3 / 8</text>
</svg>
