<svg xmlns="http://www.w3.org/2000/svg" xmlns:xlink="http://www.w3.org/1999/xlink" width="210.00mm" height="297.00mm" viewBox="0 0 210.00 297.00">
<rect x="0" y="0" width="210.00" height="297.00" fill="#ffffff" stroke="#cccccc" stroke-width="0.2"/>
<polygon points="122.317,56.107 115.317,50.001 115.317,21.51 122.317,15.405" fill="rgb(216,216,216)"/>
<polygon points="122.317,15.405 127.704,8.405 152.843,8.405 158.23,15.405" fill="rgb(216,216,216)"/>
<polygon points="158.23,56.107 165.23,50.001 165.23,21.51 158.23,15.405" fill="rgb(216,216,216)"/>
<polygon points="158.23,56.107 165.23,61.314 165.23,85.615 158.23,90.823" fill="rgb(216,216,216)"/>
<polygon points="122.317,90.823 116.212,97.823 87.72,97.823 81.615,90.823" fill="rgb(216,216,216)"/>
<polygon points="122.317,90.823 127.704,97.823 152.843,97.823 158.23,90.823" fill="rgb(216,216,216)"/>
<polygon points="5.0,90.823 11.105,97.823 39.597,97.823 45.702,90.823" fill="rgb(216,216,216)"/>
<polygon points="122.317,90.823 116.212,97.823 87.72,97.823 81.615,90.823" fill="#99d9fa"/>
<line x1="158.23" y1="56.107" x2="122.317" y2="56.107" stroke="#8c8c8c" stroke-width="0.3" stroke-dasharray="1.2,0.8"/>
<line x1="122.317" y1="56.107" x2="122.317" y2="90.823" stroke="#8c8c8c" stroke-width="0.3" stroke-dasharray="1.2,0.8"/>
<line x1="81.615" y1="90.823" x2="81.615" y2="56.107" stroke="#8c8c8c" stroke-width="0.3" stroke-dasharray="1.2,0.8"/>
<line x1="45.702" y1="90.823" x2="45.702" y2="56.107" stroke="#8c8c8c" stroke-width="0.3" stroke-dasharray="1.2,0.8"/>
<line x1="81.615" y1="90.823" x2="45.702" y2="90.823" stroke="#8c8c8c" stroke-width="0.3" stroke-dasharray="1.2,0.8"/>
<line x1="122.317" y1="15.405" x2="122.317" y2="56.107" stroke="#8c8c8c" stroke-width="0.3" stroke-dasharray="1.2,0.8"/>
<line x1="158.23" y1="15.405" x2="122.317" y2="15.405" stroke="#8c8c8c" stroke-width="0.3" stroke-dasharray="1.2,0.8"/>
<line x1="158.23" y1="15.405" x2="158.23" y2="56.107" stroke="#8c8c8c" stroke-width="0.3" stroke-dasharray="1.2,0.8"/>
<line x1="158.23" y1="90.823" x2="158.23" y2="56.107" stroke="#8c8c8c" stroke-width="0.3" stroke-dasharray="1.2,0.8"/>
<line x1="81.615" y1="90.823" x2="122.317" y2="90.823" stroke="#8c8c8c" stroke-width="0.3" stroke-dasharray="1.2,0.8"/>
<line x1="158.23" y1="90.823" x2="122.317" y2="90.823" stroke="#8c8c8c" stroke-width="0.3" stroke-dasharray="1.2,0.8"/>
<line x1="45.702" y1="90.823" x2="5.0" y2="90.823" stroke="#8c8c8c" stroke-width="0.3" stroke-dasharray="1.2,0.8"/>
<line x1="81.615" y1="56.107" x2="122.317" y2="56.107" stroke="#141414" stroke-width="0.4"/>
<line x1="45.702" y1="56.107" x2="81.615" y2="56.107" stroke="#141414" stroke-width="0.4"/>
<line x1="5.0" y1="56.107" x2="45.702" y2="56.107" stroke="#141414" stroke-width="0.4"/>
<line x1="5.0" y1="90.823" x2="5.0" y2="56.107" stroke="#141414" stroke-width="0.4"/>
<line x1="81.615" y1="90.823" x2="81.615" y2="131.525" stroke="#141414" stroke-width="0.4"/>
<line x1="81.615" y1="131.525" x2="45.702" y2="131.525" stroke="#141414" stroke-width="0.4"/>
<line x1="45.702" y1="131.525" x2="45.702" y2="90.823" stroke="#141414" stroke-width="0.4"/>
<line x1="122.317" y1="56.107" x2="115.317" y2="50.001" stroke="#141414" stroke-width="0.4"/>
<line x1="115.317" y1="50.001" x2="115.317" y2="21.51" stroke="#141414" stroke-width="0.4"/>
<line x1="115.317" y1="21.51" x2="122.317" y2="15.405" stroke="#141414" stroke-width="0.4"/>
<line x1="122.317" y1="15.405" x2="127.704" y2="8.405" stroke="#141414" stroke-width="0.4"/>
<line x1="127.704" y1="8.405" x2="152.843" y2="8.405" stroke="#141414" stroke-width="0.4"/>
<line x1="152.843" y1="8.405" x2="158.23" y2="15.405" stroke="#141414" stroke-width="0.4"/>
<line x1="158.23" y1="56.107" x2="165.23" y2="50.001" stroke="#141414" stroke-width="0.4"/>
<line x1="165.23" y1="50.001" x2="165.23" y2="21.51" stroke="#141414" stroke-width="0.4"/>
<line x1="165.23" y1="21.51" x2="158.23" y2="15.405" stroke="#141414" stroke-width="0.4"/>
<line x1="158.23" y1="56.107" x2="165.23" y2="61.314" stroke="#141414" stroke-width="0.4"/>
<line x1="165.23" y1="61.314" x2="165.23" y2="85.615" stroke="#141414" stroke-width="0.4"/>
<line x1="165.23" y1="85.615" x2="158.23" y2="90.823" stroke="#141414" stroke-width="0.4"/>
<line x1="122.317" y1="90.823" x2="116.212" y2="97.823" stroke="#141414" stroke-width="0.4"/>
<line x1="116.212" y1="97.823" x2="87.72" y2="97.823" stroke="#141414" stroke-width="0.4"/>
<line x1="87.72" y1="97.823" x2="81.615" y2="90.823" stroke="#141414" stroke-width="0.4"/>
<line x1="122.317" y1="90.823" x2="127.704" y2="97.823" stroke="#141414" stroke-width="0.4"/>
<line x1="127.704" y1="97.823" x2="152.843" y2="97.823" stroke="#141414" stroke-width="0.4"/>
<line x1="152.843" y1="97.823" x2="158.23" y2="90.823" stroke="#141414" stroke-width="0.4"/>
<line x1="5.0" y1="90.823" x2="11.105" y2="97.823" stroke="#141414" stroke-width="0.4"/>
<line x1="11.105" y1="97.823" x2="39.597" y2="97.823" stroke="#141414" stroke-width="0.4"/>
<line x1="39.597" y1="97.823" x2="45.702" y2="90.823" stroke="#141414" stroke-width="0.4"/>
<circle cx="118.817" cy="35.756" r="2.54" fill="#ffe082" stroke="#464646" stroke-width="0.2"/>
<text x="118.817" y="36.63" font-size="2.49" text-anchor="middle" fill="#141414">57</text>
<circle cx="140.274" cy="11.905" r="2.54" fill="#ffe082" stroke="#464646" stroke-width="0.2"/>
<text x="140.274" y="12.78" font-size="2.49" text-anchor="middle" fill="#141414">58</text>
<circle cx="161.73" cy="35.756" r="2.54" fill="#ffe082" stroke="#464646" stroke-width="0.2"/>
<text x="161.73" y="36.63" font-size="2.49" text-anchor="middle" fill="#141414">59</text>
<circle cx="161.73" cy="73.465" r="2.54" fill="#ffe082" stroke="#464646" stroke-width="0.2"/>
<text x="161.73" y="74.34" font-size="2.49" text-anchor="middle" fill="#141414">60</text>
<circle cx="101.966" cy="94.323" r="2.54" fill="#99d9fa" stroke="#464646" stroke-width="0.2"/>
<text x="101.966" y="95.19" font-size="2.49" text-anchor="middle" fill="#141414">61</text>
<circle cx="140.274" cy="94.323" r="2.54" fill="#ffe082" stroke="#464646" stroke-width="0.2"/>
<text x="140.274" y="95.19" font-size="2.49" text-anchor="middle" fill="#141414">62</text>
<circle cx="25.351" cy="94.323" r="2.54" fill="#ffe082" stroke="#464646" stroke-width="0.2"/>
<text x="25.351" y="95.19" font-size="2.49" text-anchor="middle" fill="#141414">63</text>
<circle cx="69.644" cy="117.957" r="4.60" fill="#eaf1fe" stroke="#2e78e6" stroke-width="0.3"/>
<text x="69.644" y="119.76" font-size="5.20" text-anchor="middle" fill="#14306e" font-weight="bold">5</text>
<polygon points="103.163,176.241 96.163,171.034 96.163,146.732 103.163,141.525" fill="rgb(216,216,216)"/>
<polygon points="103.163,141.525 107.473,134.525 127.584,134.525 131.894,141.525" fill="rgb(216,216,216)"/>
<polygon points="131.894,176.241 138.894,171.034 138.894,146.732 131.894,141.525" fill="rgb(216,216,216)"/>
<polygon points="131.894,176.241 138.894,180.371 138.894,199.644 131.894,203.775" fill="rgb(216,216,216)"/>
<polygon points="103.163,203.775 97.956,210.775 73.654,210.775 68.447,203.775" fill="rgb(216,216,216)"/>
<polygon points="103.163,203.775 107.473,210.775 127.584,210.775 131.894,203.775" fill="rgb(216,216,216)"/>
<polygon points="5.0,203.775 10.207,210.775 34.509,210.775 39.716,203.775" fill="rgb(216,216,216)"/>
<polygon points="103.163,203.775 97.956,210.775 73.654,210.775 68.447,203.775" fill="#99d9fa"/>
<line x1="131.894" y1="176.241" x2="103.163" y2="176.241" stroke="#8c8c8c" stroke-width="0.3" stroke-dasharray="1.2,0.8"/>
<line x1="103.163" y1="176.241" x2="103.163" y2="203.775" stroke="#8c8c8c" stroke-width="0.3" stroke-dasharray="1.2,0.8"/>
<line x1="68.447" y1="203.775" x2="68.447" y2="176.241" stroke="#8c8c8c" stroke-width="0.3" stroke-dasharray="1.2,0.8"/>
<line x1="39.716" y1="203.775" x2="39.716" y2="176.241" stroke="#8c8c8c" stroke-width="0.3" stroke-dasharray="1.2,0.8"/>
<line x1="68.447" y1="203.775" x2="39.716" y2="203.775" stroke="#8c8c8c" stroke-width="0.3" stroke-dasharray="1.2,0.8"/>
<line x1="103.163" y1="141.525" x2="103.163" y2="176.241" stroke="#8c8c8c" stroke-width="0.3" stroke-dasharray="1.2,0.8"/>
<line x1="131.894" y1="141.525" x2="103.163" y2="141.525" stroke="#8c8c8c" stroke-width="0.3" stroke-dasharray="1.2,0.8"/>
<line x1="131.894" y1="141.525" x2="131.894" y2="176.241" stroke="#8c8c8c" stroke-width="0.3" stroke-dasharray="1.2,0.8"/>
<line x1="131.894" y1="203.775" x2="131.894" y2="176.241" stroke="#8c8c8c" stroke-width="0.3" stroke-dasharray="1.2,0.8"/>
<line x1="68.447" y1="203.775" x2="103.163" y2="203.775" stroke="#8c8c8c" stroke-width="0.3" stroke-dasharray="1.2,0.8"/>
<line x1="131.894" y1="203.775" x2="103.163" y2="203.775" stroke="#8c8c8c" stroke-width="0.3" stroke-dasharray="1.2,0.8"/>
<line x1="39.716" y1="203.775" x2="5.0" y2="203.775" stroke="#8c8c8c" stroke-width="0.3" stroke-dasharray="1.2,0.8"/>
<line x1="68.447" y1="176.241" x2="103.163" y2="176.241" stroke="#141414" stroke-width="0.4"/>
<line x1="39.716" y1="176.241" x2="68.447" y2="176.241" stroke="#141414" stroke-width="0.4"/>
<line x1="5.0" y1="176.241" x2="39.716" y2="176.241" stroke="#141414" stroke-width="0.4"/>
<line x1="5.0" y1="203.775" x2="5.0" y2="176.241" stroke="#141414" stroke-width="0.4"/>
<line x1="68.447" y1="203.775" x2="68.447" y2="238.491" stroke="#141414" stroke-width="0.4"/>
<line x1="68.447" y1="238.491" x2="39.716" y2="238.491" stroke="#141414" stroke-width="0.4"/>
<line x1="39.716" y1="238.491" x2="39.716" y2="203.775" stroke="#141414" stroke-width="0.4"/>
<line x1="103.163" y1="176.241" x2="96.163" y2="171.034" stroke="#141414" stroke-width="0.4"/>
<line x1="96.163" y1="171.034" x2="96.163" y2="146.732" stroke="#141414" stroke-width="0.4"/>
<line x1="96.163" y1="146.732" x2="103.163" y2="141.525" stroke="#141414" stroke-width="0.4"/>
<line x1="103.163" y1="141.525" x2="107.473" y2="134.525" stroke="#141414" stroke-width="0.4"/>
<line x1="107.473" y1="134.525" x2="127.584" y2="134.525" stroke="#141414" stroke-width="0.4"/>
<line x1="127.584" y1="134.525" x2="131.894" y2="141.525" stroke="#141414" stroke-width="0.4"/>
<line x1="131.894" y1="176.241" x2="138.894" y2="171.034" stroke="#141414" stroke-width="0.4"/>
<line x1="138.894" y1="171.034" x2="138.894" y2="146.732" stroke="#141414" stroke-width="0.4"/>
<line x1="138.894" y1="146.732" x2="131.894" y2="141.525" stroke="#141414" stroke-width="0.4"/>
<line x1="131.894" y1="176.241" x2="138.894" y2="180.371" stroke="#141414" stroke-width="0.4"/>
<line x1="138.894" y1="180.371" x2="138.894" y2="199.644" stroke="#141414" stroke-width="0.4"/>
<line x1="138.894" y1="199.644" x2="131.894" y2="203.775" stroke="#141414" stroke-width="0.4"/>
<line x1="103.163" y1="203.775" x2="97.956" y2="210.775" stroke="#141414" stroke-width="0.4"/>
<line x1="97.956" y1="210.775" x2="73.654" y2="210.775" stroke="#141414" stroke-width="0.4"/>
<line x1="73.654" y1="210.775" x2="68.447" y2="203.775" stroke="#141414" stroke-width="0.4"/>
<line x1="103.163" y1="203.775" x2="107.473" y2="210.775" stroke="#141414" stroke-width="0.4"/>
<line x1="107.473" y1="210.775" x2="127.584" y2="210.775" stroke="#141414" stroke-width="0.4"/>
<line x1="127.584" y1="210.775" x2="131.894" y2="203.775" stroke="#141414" stroke-width="0.4"/>
<line x1="5.0" y1="203.775" x2="10.207" y2="210.775" stroke="#141414" stroke-width="0.4"/>
<line x1="10.207" y1="210.775" x2="34.509" y2="210.775" stroke="#141414" stroke-width="0.4"/>
<line x1="34.509" y1="210.775" x2="39.716" y2="203.775" stroke="#141414" stroke-width="0.4"/>
<circle cx="99.663" cy="158.883" r="2.54" fill="#ffe082" stroke="#464646" stroke-width="0.2"/>
<text x="99.663" y="159.75" font-size="2.49" text-anchor="middle" fill="#141414">64</text>
<circle cx="117.529" cy="138.025" r="2.54" fill="#ffe082" stroke="#464646" stroke-width="0.2"/>
<text x="117.529" y="138.90" font-size="2.49" text-anchor="middle" fill="#141414">65</text>
<circle cx="135.394" cy="158.883" r="2.54" fill="#ffe082" stroke="#464646" stroke-width="0.2"/>
<text x="135.394" y="159.75" font-size="2.49" text-anchor="middle" fill="#141414">66</text>
<circle cx="135.394" cy="190.008" r="2.54" fill="#ffe082" stroke="#464646" stroke-width="0.2"/>
<text x="135.394" y="190.88" font-size="2.49" text-anchor="middle" fill="#141414">67</text>
<circle cx="85.805" cy="207.275" r="2.54" fill="#99d9fa" stroke="#464646" stroke-width="0.2"/>
<text x="85.805" y="208.15" font-size="2.49" text-anchor="middle" fill="#141414">68</text>
<circle cx="117.529" cy="207.275" r="2.54" fill="#ffe082" stroke="#464646" stroke-width="0.2"/>
<text x="117.529" y="208.15" font-size="2.49" text-anchor="middle" fill="#141414">69</text>
<circle cx="22.358" cy="207.275" r="2.54" fill="#ffe082" stroke="#464646" stroke-width="0.2"/>
<text x="22.358" y="208.15" font-size="2.49" text-anchor="middle" fill="#141414">70</text>
<circle cx="49.293" cy="215.347" r="4.60" fill="#eaf1fe" stroke="#2e78e6" stroke-width="0.3"/>
<text x="49.293" y="217.15" font-size="5.20" text-anchor="middle" fill="#14306e" font-weight="bold">6</text>
<text x="205.0" y="295.0" font-size="3.2" text-anchor="end" fill="#737373" font-family="sans-serif">3 / 5</text>
<g pointer-events="none"><text x="105.0" y="83.2" text-anchor="middle" font-family="sans-serif" font-size="12.4" fill="#9aa0a6" fill-opacity="0.3" transform="rotate(-28 105.0 83.2)">papercraft.kr</text><text x="105.0" y="148.5" text-anchor="middle" font-family="sans-serif" font-size="12.4" fill="#9aa0a6" fill-opacity="0.3" transform="rotate(-28 105.0 148.5)">papercraft.kr</text><text x="105.0" y="213.8" text-anchor="middle" font-family="sans-serif" font-size="12.4" fill="#9aa0a6" fill-opacity="0.3" transform="rotate(-28 105.0 213.8)">papercraft.kr</text></g></svg>
